<svg width="44" height="41" viewBox="0 0 44 41" fill="none" xmlns="http://www.w3.org/2000/svg">
<path d="M22.4488 11.3125C20.4871 11.3125 18.5695 11.8513 16.9384 12.8609C15.3074 13.8704 14.0361 15.3053 13.2854 16.9841C12.5347 18.6629 12.3383 20.5102 12.721 22.2924C13.1037 24.0746 14.0483 25.7116 15.4354 26.9965C16.8225 28.2814 18.5898 29.1565 20.5138 29.511C22.4378 29.8655 24.432 29.6835 26.2444 28.9881C28.0567 28.2928 29.6058 27.1152 30.6956 25.6043C31.7854 24.0934 32.3672 22.3171 32.3672 20.5C32.3644 18.0641 31.3186 15.7287 29.4591 14.0063C27.5996 12.2838 25.0785 11.315 22.4488 11.3125ZM22.4488 26.625C21.141 26.625 19.8626 26.2658 18.7752 25.5928C17.6878 24.9197 16.8403 23.9631 16.3399 22.8439C15.8394 21.7247 15.7085 20.4932 15.9636 19.3051C16.2187 18.1169 16.8485 17.0256 17.7732 16.169C18.698 15.3124 19.8761 14.729 21.1588 14.4927C22.4414 14.2564 23.7709 14.3777 24.9792 14.8412C26.1874 15.3048 27.2201 16.0899 27.9467 17.0971C28.6732 18.1044 29.061 19.2886 29.061 20.5C29.061 22.1245 28.3644 23.6824 27.1243 24.831C25.8843 25.9797 24.2025 26.625 22.4488 26.625ZM32.3672 0.59375H12.5304C9.46249 0.59679 6.52116 1.72706 4.3518 3.73656C2.18245 5.74605 0.962266 8.47064 0.958984 11.3125V29.6875C0.962266 32.5294 2.18245 35.2539 4.3518 37.2634C6.52116 39.2729 9.46249 40.4032 12.5304 40.4062H32.3672C35.4351 40.4032 38.3764 39.2729 40.5458 37.2634C42.7151 35.2539 43.9353 32.5294 43.9386 29.6875V11.3125C43.9353 8.47064 42.7151 5.74605 40.5458 3.73656C38.3764 1.72706 35.4351 0.59679 32.3672 0.59375ZM40.6325 29.6875C40.6325 31.7181 39.7617 33.6655 38.2116 35.1013C36.6616 36.5371 34.5592 37.3438 32.3672 37.3438H12.5304C10.3383 37.3438 8.23601 36.5371 6.68596 35.1013C5.13591 33.6655 4.26511 31.7181 4.26511 29.6875V11.3125C4.26511 9.28194 5.13591 7.33454 6.68596 5.89871C8.23601 4.46289 10.3383 3.65625 12.5304 3.65625H32.3672C34.5592 3.65625 36.6616 4.46289 38.2116 5.89871C39.7617 7.33454 40.6325 9.28194 40.6325 11.3125V29.6875ZM35.6733 10.5469C35.6733 11.0012 35.5278 11.4452 35.2554 11.8229C34.9829 12.2007 34.5957 12.4951 34.1426 12.6689C33.6895 12.8428 33.1909 12.8882 32.7099 12.7996C32.2289 12.711 31.7871 12.4922 31.4403 12.171C31.0936 11.8498 30.8574 11.4405 30.7617 10.995C30.6661 10.5494 30.7152 10.0876 30.9028 9.6679C31.0905 9.2482 31.4083 8.88948 31.8161 8.63709C32.2239 8.38471 32.7033 8.25 33.1937 8.25C33.8513 8.25 34.482 8.49199 34.947 8.92274C35.412 9.35349 35.6733 9.93771 35.6733 10.5469Z" fill="black"/>
</svg>
