<svg width="40" height="40" viewBox="0 0 40 40" fill="none" xmlns="http://www.w3.org/2000/svg">
<path d="M31.1711 23.1575L25.1711 20.1575C24.9349 20.0398 24.6719 19.9865 24.4085 20.003C24.1452 20.0194 23.8908 20.1051 23.6711 20.2512L20.9167 22.0887C19.6523 21.3937 18.6118 20.3531 17.9167 19.0887L19.7542 16.3344C19.9004 16.1147 19.9861 15.8603 20.0025 15.597C20.019 15.3336 19.9657 15.0706 19.848 14.8344L16.848 8.83438C16.7236 8.58326 16.5314 8.37199 16.2932 8.22452C16.0549 8.07705 15.7801 7.99927 15.4999 8C13.5107 8 11.6031 8.79018 10.1966 10.1967C8.79004 11.6032 7.99986 13.5109 7.99986 15.5C8.00482 19.8745 9.74481 24.0685 12.8381 27.1618C15.9314 30.2551 20.1253 31.995 24.4999 32C25.4848 32 26.46 31.806 27.37 31.4291C28.2799 31.0522 29.1067 30.4997 29.8032 29.8033C30.4996 29.1069 31.0521 28.2801 31.429 27.3701C31.8059 26.4602 31.9999 25.4849 31.9999 24.5C32.0001 24.2213 31.9226 23.9481 31.7762 23.711C31.6299 23.4739 31.4203 23.2822 31.1711 23.1575ZM24.4999 29C20.9207 28.996 17.4892 27.5724 14.9583 25.0416C12.4274 22.5107 11.0038 19.0792 10.9999 15.5C10.9996 14.4596 11.3598 13.4512 12.0192 12.6465C12.6787 11.8418 13.5966 11.2904 14.6167 11.0863L16.7692 15.3987L14.9374 18.125C14.8005 18.3303 14.7164 18.5663 14.6925 18.8119C14.6686 19.0575 14.7057 19.3053 14.8005 19.5331C15.8737 22.0838 17.9029 24.113 20.4536 25.1863C20.6822 25.2852 20.9318 25.3258 21.1799 25.3042C21.428 25.2826 21.6669 25.1995 21.8749 25.0625L24.6142 23.2362L28.9267 25.3888C28.721 26.4101 28.1672 27.3284 27.3599 27.987C26.5526 28.6456 25.5417 29.0036 24.4999 29ZM19.9999 0.5C16.6332 0.499266 13.3238 1.37017 10.3936 3.02793C7.4634 4.68569 5.01233 7.07385 3.27893 9.95994C1.54554 12.846 0.58889 16.1317 0.502089 19.4972C0.415289 22.8627 1.2013 26.1934 2.78361 29.165L0.655487 35.5494C0.479208 36.078 0.453626 36.6452 0.581608 37.1875C0.70959 37.7298 0.986078 38.2258 1.38008 38.6198C1.77409 39.0138 2.27004 39.2903 2.81235 39.4183C3.35466 39.5462 3.9219 39.5207 4.45049 39.3444L10.8349 37.2163C13.4501 38.6072 16.3478 39.3841 19.308 39.488C22.2683 39.5919 25.2134 39.02 27.9196 37.8157C30.6259 36.6115 33.0222 34.8065 34.9268 32.5379C36.8313 30.2693 38.194 27.5965 38.9113 24.7226C39.6287 21.8487 39.682 18.8491 39.067 15.9516C38.452 13.054 37.185 10.3346 35.3622 7.99984C33.5393 5.66506 31.2085 3.77623 28.5467 2.47673C25.8849 1.17723 22.962 0.501215 19.9999 0.5ZM19.9999 36.5C17.0992 36.502 14.2494 35.7381 11.7386 34.2856C11.5548 34.179 11.3504 34.1127 11.139 34.091C10.9276 34.0694 10.714 34.0929 10.5124 34.16L3.49986 36.5L5.83799 29.4875C5.90539 29.286 5.92921 29.0725 5.90787 28.8611C5.88654 28.6497 5.82054 28.4452 5.71424 28.2612C3.89543 25.1167 3.16519 21.4598 3.63679 17.8579C4.10839 14.256 5.75547 10.9104 8.32253 8.34011C10.8896 5.76981 14.2331 4.11851 17.8344 3.64236C21.4357 3.1662 25.0935 3.89183 28.2404 5.70666C31.3872 7.52149 33.8472 10.3241 35.2387 13.6797C36.6301 17.0352 36.8754 20.7562 35.9363 24.2654C34.9972 27.7746 32.9263 30.8758 30.0449 33.0879C27.1634 35.3 23.6325 36.4994 19.9999 36.5Z" fill="black"/>
</svg>
