<svg width="44" height="44" viewBox="0 0 44 44" fill="none" xmlns="http://www.w3.org/2000/svg">
<path d="M15.5271 9.22302C15.3993 9.09527 15.298 8.94361 15.2289 8.77669C15.1597 8.60978 15.1241 8.43088 15.1241 8.25021C15.1241 8.06954 15.1597 7.89064 15.2289 7.72373C15.298 7.55681 15.3993 7.40515 15.5271 7.2774C15.6548 7.14965 15.8065 7.04831 15.9734 6.97917C16.1403 6.91003 16.3192 6.87444 16.4999 6.87444C16.6806 6.87444 16.8595 6.91003 17.0264 6.97917C17.1933 7.04831 17.345 7.14965 17.4727 7.2774L31.2227 21.0274C31.3506 21.1551 31.452 21.3067 31.5212 21.4737C31.5904 21.6406 31.626 21.8195 31.626 22.0002C31.626 22.1809 31.5904 22.3598 31.5212 22.5268C31.452 22.6937 31.3506 22.8453 31.2227 22.973L17.4727 36.723C17.2147 36.981 16.8648 37.126 16.4999 37.126C16.135 37.126 15.7851 36.981 15.5271 36.723C15.2691 36.465 15.1241 36.1151 15.1241 35.7502C15.1241 35.3853 15.2691 35.0354 15.5271 34.7774L28.306 22.0002L15.5271 9.22302Z" fill="black"/>
</svg>
