<svg width="219" height="118" viewBox="0 0 219 118" fill="none" xmlns="http://www.w3.org/2000/svg">
<path d="M109.79 2.0203C109.65 3.18381 109.697 3.51994 109.955 3.26138C110.025 3.18381 110.048 2.58913 110.001 1.99444L109.931 0.856783L109.79 2.0203Z" fill="white"/>
<path d="M94.3825 11.7938C95.1095 12.3109 95.7193 13.1642 96.3525 14.4311C96.9857 15.7239 96.9388 19.6799 96.2587 23.0153C95.602 26.2473 95.5551 29.9447 96.1649 31.2375C96.3994 31.7287 97.2202 33.0474 98.041 34.1592C100.292 37.2878 101.324 39.3821 101.864 41.9935C102.567 45.2772 102.731 45.6392 102.755 43.7776C102.802 41.4247 103.294 39.4855 105.147 34.7022C106.789 30.4101 106.812 30.3067 106.554 29.1173C106.179 27.2557 105.03 24.8511 103.365 22.4206C102.52 21.2312 100.996 18.9301 99.9172 17.3011C98.8618 15.6981 97.5485 13.9916 97.0326 13.5262C95.7193 12.3368 94.3122 11.3284 94.0073 11.3284C93.8666 11.3284 94.0307 11.5353 94.3825 11.7938Z" fill="#832D54"/>
<path d="M123.978 12.311C122.337 13.5004 120.789 15.2845 119.569 17.4047C119.077 18.2579 118.28 19.4214 117.811 19.9903C115.629 22.6276 112.628 28.0573 112.581 29.4535C112.557 30.0999 113.144 31.7806 114.48 35.0643C115.841 38.3738 116.544 40.4164 116.802 41.9161L117.177 44.0363L117.482 42.3556C117.857 40.2871 119.053 37.5981 120.601 35.3745C121.258 34.4437 122.219 32.9958 122.782 32.1425L123.767 30.5912V27.8763C123.767 26.0405 123.58 24.2306 123.204 22.2139C122.454 18.2062 122.571 15.5172 123.556 13.7331C123.931 13.0609 124.612 12.2335 125.034 11.9232C125.479 11.5871 125.714 11.3285 125.597 11.3285C125.479 11.3285 124.752 11.7681 123.978 12.311Z" fill="#832D54"/>
<path d="M102.122 18.8268C102.122 19.1886 102.168 19.3179 102.239 19.137C102.286 18.9819 102.286 18.6717 102.239 18.4908C102.168 18.3358 102.122 18.465 102.122 18.8268Z" fill="#FFFAFA"/>
<path d="M74.9408 19.3438C72.6659 19.8609 70.4146 21.9552 70.4146 23.5841C70.4146 24.4632 71.165 25.8336 71.4933 25.4975C71.5871 25.394 71.5168 25.1355 71.3761 24.9286C70.9305 24.3339 71.165 23.1963 71.8686 22.6275C72.9004 21.7742 74.7766 21.7484 76.2072 22.524C78.7634 23.972 80.7099 27.4108 82.9613 34.4695C83.0551 34.7539 82.5861 33.8748 81.906 32.5303C81.2493 31.1858 80.405 29.712 80.0298 29.2983C79.3497 28.5485 77.9191 27.4625 77.9191 27.7211C77.9191 27.7986 78.3413 28.3933 78.8572 29.0397C79.3966 29.712 80.0767 30.8496 80.4285 31.5736C81.0148 32.8922 83.0082 36.3052 84.0635 37.8307C84.345 38.2444 83.5476 37.417 82.2577 35.995C79.5608 32.944 78.3413 32.1424 76.7935 32.3493C76.2306 32.4268 75.4802 32.7113 75.1284 32.9698C73.7916 34.0816 73.9792 36.3311 75.5036 37.1326C76.2306 37.5205 76.3713 37.5205 76.9342 37.1585C77.3563 36.8999 77.5674 36.5638 77.5674 36.1501C77.5674 35.5813 77.4736 35.5037 76.7935 35.5813C75.8788 35.6588 75.8554 35.1676 76.77 34.6763C78.0599 33.9265 80.2878 35.1159 82.9613 37.96C84.8844 40.0026 86.6901 41.5798 87.1123 41.5798C87.1826 41.5798 87.0185 41.0886 86.7136 40.468C85.6583 38.3996 85.4003 37.1326 85.072 32.401C84.7202 27.5401 84.345 25.6267 83.3834 23.8168C82.7033 22.524 81.1086 20.8434 79.8657 20.1711C79.1152 19.7316 76.512 19.0076 76.0665 19.111C75.9961 19.1369 75.4802 19.2403 74.9408 19.3438Z" fill="#680440"/>
<path d="M141.708 19.4472C140.066 19.8351 138.542 20.7917 137.322 22.2655C135.376 24.5925 134.766 26.8679 134.438 32.8923C134.203 37.2619 133.992 38.2703 132.984 40.2354L132.257 41.6316L133.031 41.192C133.453 40.9593 134.883 39.6148 136.197 38.2445C139.199 35.09 141.239 33.9524 142.716 34.5729C143.631 34.9608 143.537 35.5813 142.599 35.5296C141.661 35.5037 141.45 36.1243 142.154 36.9C142.834 37.6498 143.678 37.5722 144.522 36.719C145.108 36.1501 145.249 35.814 145.273 34.9091C145.273 33.668 144.944 33.125 143.889 32.6079C141.919 31.7029 140.277 32.5045 137.299 35.814L135.141 38.2445L136.431 36.357C137.135 35.3227 138.143 33.5387 138.683 32.401C139.222 31.2634 140.066 29.7896 140.582 29.0915C141.591 27.747 141.544 27.5918 140.395 28.4451C139.55 29.0915 138.049 31.4702 137.299 33.3577C136.689 34.8832 136.408 34.9866 136.947 33.487C139.222 27.1006 139.855 25.8078 141.731 23.8686C143.608 21.9294 145.155 21.4898 147.102 22.3431C148.462 22.9378 148.908 24.0496 148.134 24.9028C147.641 25.4458 147.852 25.6785 148.486 25.3165C149.564 24.6701 149.4 22.9636 148.157 21.4381C146.703 19.6541 144.147 18.8784 141.708 19.4472Z" fill="#680440"/>
<path d="M108.899 20.197C108.664 20.9468 108.5 21.1278 107.82 21.2054C107.375 21.2571 106.999 21.2054 106.999 21.0761C106.999 20.9468 106.671 20.8951 106.296 20.9468C105.897 21.0244 105.522 20.9727 105.452 20.8434C105.381 20.74 105.1 20.6365 104.818 20.6365C104.513 20.6365 104.044 20.4555 103.763 20.2228C103.27 19.8609 103.247 19.8609 103.317 20.3263C103.364 20.6107 103.927 21.7225 104.607 22.7826C105.85 24.7735 107.234 27.7211 107.234 28.3675C107.234 29.9964 108.524 25.1096 109.11 21.3088C109.391 19.3437 109.298 18.8266 108.899 20.197Z" fill="white"/>
<path d="M110.306 20.2746C110.306 20.5589 110.377 20.6365 110.447 20.4297C110.517 20.2488 110.494 20.0162 110.424 19.9386C110.353 19.8353 110.283 19.9903 110.306 20.2746Z" fill="white"/>
<path d="M115.841 20.2488C115.653 20.4556 115.442 20.5332 115.348 20.4556C115.278 20.3522 115.207 20.4297 115.207 20.6107C115.207 20.7917 115.114 20.8693 114.996 20.7917C114.879 20.7142 114.668 20.8176 114.504 21.0244C114.34 21.2571 113.824 21.4123 113.308 21.4123C112.792 21.4123 112.393 21.5157 112.393 21.6708C112.393 21.8001 112.229 21.8518 112.041 21.7742C111.83 21.6708 111.69 21.7742 111.666 21.9552C111.666 22.1621 111.572 22.0845 111.455 21.8001C111.267 21.3088 111.244 21.3088 111.056 21.9294L110.892 22.5758L110.705 21.8001C110.423 20.4815 110.728 23.429 111.127 25.6785C111.69 28.7553 111.737 28.7812 112.815 26.4283C113.331 25.3165 114.34 23.5325 115.067 22.4982C115.794 21.4381 116.38 20.4297 116.38 20.2229C116.38 19.7575 116.263 19.7575 115.841 20.2488ZM115.067 21.102C115.137 21.2313 115.043 21.3347 114.856 21.3347C114.668 21.3347 114.574 21.2313 114.645 21.102C114.715 20.9986 114.809 20.8951 114.856 20.8951C114.903 20.8951 114.996 20.9986 115.067 21.102Z" fill="white"/>
<path d="M109.509 23.4032C109.228 25.9112 108.524 28.3158 106.859 32.582C103.834 40.2612 103.646 40.8818 103.529 43.9328C103.365 48.2507 104.303 50.888 107.093 53.8614C108.383 55.2318 109.228 56.6539 109.72 58.257C109.861 58.7482 109.884 58.7224 110.048 58.1277C110.424 56.6797 111.151 55.5679 113.097 53.4736C115.841 50.5002 116.263 49.4142 116.24 45.0704C116.24 41.373 116.052 40.7266 113.027 33.6938C111.01 28.9622 110.471 27.2299 109.955 23.7393L109.673 21.8001L109.509 23.4032Z" fill="url(#paint0_linear_78_5)"/>
<path d="M85.2361 23.1963C86.737 23.8427 87.6516 24.6183 88.4255 25.8853C89.5981 27.7986 89.903 29.1948 90.1141 33.8231C90.2782 37.2877 90.4189 38.4771 90.9114 40.1577C92.2247 44.6825 93.4911 45.9236 100.878 49.9571C102.614 50.888 104.162 51.7929 104.326 51.948C104.795 52.3617 104.725 52.1549 104.091 50.8621C103.529 49.7503 102.051 45.0962 101.254 41.9677C100.667 39.6665 100.011 38.4254 97.3138 34.5212C95.9536 32.5561 94.4527 30.2291 94.0071 29.3241C92.8579 27.0488 91.3101 25.2647 89.6919 24.3081C88.191 23.429 85.9865 22.705 84.8374 22.705C84.1807 22.7309 84.2042 22.7567 85.2361 23.1963Z" fill="#651240"/>
<path d="M132.703 22.9895C131.085 23.4031 128.833 24.7735 127.684 26.0404C127.074 26.7127 126.113 28.1089 125.574 29.1173C125.034 30.1257 123.51 32.5044 122.22 34.3919C120.907 36.2794 119.5 38.6323 119.077 39.6407C118.35 41.3213 116.849 47.0613 116.849 48.1214C116.849 48.3541 116.545 49.3108 116.169 50.2416L115.489 51.8964L116.334 51.3017C116.803 50.9655 118.866 49.7245 120.93 48.5351C125.292 46.0271 126.817 44.6309 127.872 42.278C128.904 39.8992 129.256 38.0117 129.49 33.306C129.725 28.807 130.006 27.4625 131.061 25.756C131.765 24.6442 133.219 23.5324 134.556 23.067L135.494 22.7309L134.556 22.7567C134.04 22.7567 133.219 22.8602 132.703 22.9895Z" fill="#651240"/>
<path d="M77.6143 39.8995C76.4886 40.3132 76.1368 40.6752 77.0984 40.3649C78.9042 39.822 80.6162 40.4425 82.3985 42.2783C84.087 44.0106 85.0955 45.743 87.1358 50.4487C89.2933 55.3872 90.5363 57.5074 92.5063 59.5759C96.6572 63.9455 101.488 65.5744 105.921 64.0748C106.765 63.7904 107.515 63.4284 107.586 63.2991C107.656 63.144 107.844 63.0406 107.961 63.0406C108.383 63.0406 107.703 64.0748 106.038 66.014C103.318 69.1426 99.9874 70.7456 95.6253 70.9783C92.8815 71.1335 91.2399 70.8232 88.965 69.7631C86.7371 68.703 84.7906 65.6779 85.5645 64.4885C86.1273 63.5835 85.9866 62.1098 85.2831 61.5151C84.4623 60.7911 83.6649 60.8428 82.9613 61.6185C82.2343 62.3942 82.1874 63.9455 82.8441 65.3417C83.4538 66.6604 85.5879 68.7289 87.511 69.8665C88.3553 70.3836 88.9416 70.7973 88.7774 70.7973C88.238 70.7973 84.3216 69.1684 83.1255 68.4186C81.2728 67.2551 79.209 65.0315 78.482 63.4025C77.4032 60.9721 77.4736 57.6108 78.6462 55.956C79.0449 55.3872 79.3029 55.2838 80.2644 55.2838C81.2259 55.2838 81.4839 55.3872 81.906 55.9819C82.2343 56.4473 82.375 56.9127 82.3047 57.3523L82.1874 57.9987L82.6096 57.404C83.0317 56.861 82.9848 55.9043 82.5158 55.0769C82.2343 54.5598 80.7334 53.991 79.6781 53.991C75.1988 53.991 73.0412 60.6618 76.0899 65.109C77.5909 67.2551 77.6143 67.3585 76.6293 66.4794C74.4952 64.6436 73.5337 62.8596 73.2992 60.3516C73.0412 57.4815 74.7532 54.0944 77.0984 52.9309C79.4436 51.7415 82.5158 52.8533 83.6649 55.2838C84.1105 56.2405 84.2981 56.2663 84.1105 55.3355C83.6649 53.3705 82.2109 51.4571 80.2644 50.3453C79.3498 49.8023 78.8807 49.7248 76.6293 49.7248C74.12 49.7248 74.0027 49.7506 72.5253 50.6556C71.1885 51.4571 70.9071 51.7674 70.2504 53.1895C69.3593 55.0769 69.242 56.6542 69.8283 59.6793C70.2504 61.9288 70.6257 62.7561 72.0328 64.5919L73.1116 65.9881L72.2907 65.4969C71.8452 65.2125 70.6257 64.0489 69.5703 62.8854C68.0694 61.2565 67.4597 60.3257 66.6857 58.6192C65.6304 56.2663 65.1614 53.9651 65.3959 52.3104C65.607 50.759 67.3189 47.2943 68.5384 45.9757C69.7579 44.6053 71.7748 43.7521 73.0412 44.0365C74.1434 44.295 75.5036 45.3293 75.9258 46.2601C76.1368 46.6996 76.3714 46.984 76.4417 46.9323C76.7466 46.5703 75.9023 44.8639 74.847 43.6745C71.5872 40.0288 66.3574 39.5117 63.168 42.511C61.6905 43.9072 61.0104 45.5878 60.9869 47.889C60.9635 51.1468 61.9954 54.0168 64.5751 57.8694L66.0291 60.0671L62.652 56.4214C59.7909 53.3705 58.9701 52.6206 57.4223 51.7932C55.8041 50.9141 55.3819 50.7849 53.9045 50.759C52.4739 50.759 52.0049 50.8883 50.8323 51.5347C49.2141 52.4655 48.6044 53.4997 48.6044 55.3614C48.6044 57.8177 50.0818 59.6793 52.0283 59.6793C53.154 59.6793 54.0686 58.8261 54.0686 57.766C54.0686 56.5766 53.0837 55.8785 52.427 56.6024C52.0987 56.9644 51.8407 56.5249 52.0283 55.956C52.2628 55.2579 53.412 54.7667 54.7722 54.7667C57.774 54.7667 60.6117 56.4473 65.2317 60.9462C66.6857 62.3942 69.0075 64.3592 70.3677 65.3676C71.7279 66.3501 72.7598 67.1775 72.7129 67.1775C72.6425 67.1775 71.7748 66.7638 70.7898 66.2726C65.818 63.7645 61.0573 62.5752 55.0536 62.2907C49.4017 62.0063 47.5021 61.2824 46.095 58.8261C45.5556 57.8694 45.0631 55.5165 44.9928 53.4222C44.9693 52.5172 44.8286 52.6465 43.914 54.6115C43.2808 56.0078 43.1635 56.499 43.2573 57.4815C43.3277 58.1279 43.3746 58.6451 43.3511 58.6451C43.3277 58.6451 42.8821 58.4124 42.3661 58.1538C40.5838 57.1971 38.4966 56.7317 35.9403 56.7317C33.8297 56.7059 33.3137 56.7834 32.3991 57.3006C30.3119 58.4382 28.9048 60.6618 28.9048 62.9113C28.9048 64.0748 29.8428 65.9106 30.7575 66.5828C32.0942 67.5654 33.9704 67.2551 34.5098 65.9623C35.2837 64.1265 34.0876 62.4717 32.188 62.782C31.7894 62.8337 34.7208 60.636 35.9872 59.912C38.2855 58.6192 41.7329 59.1363 46.2592 61.4892C47.8773 62.3166 49.4252 63.0664 49.73 63.1698C50.1756 63.2991 49.8004 63.5318 47.9242 64.2041C45.1335 65.2642 43.5622 66.0916 40.021 68.4962C36.4797 70.9008 35.2602 71.3662 32.188 71.5213C28.8344 71.6764 28.1543 71.4179 26.0671 69.3236C25.1056 68.3669 24.4958 67.7981 24.7069 68.0825C25.3635 68.9616 25.6919 69.8407 26.0202 71.5472C26.6299 74.805 28.0136 76.0978 30.6637 75.9168C32.446 75.7875 34.2518 74.8567 37.3709 72.478C39.7161 70.6939 39.4347 71.0042 36.0576 73.9C33.7593 75.891 31.3203 77.3389 29.4442 77.8043C28.2481 78.1146 27.9902 78.0887 24.3786 77.3389C24.0268 77.2613 23.2294 77.3389 22.6431 77.5457L21.5643 77.8819L22.479 78.218C22.9715 78.399 23.6985 78.9161 24.0971 79.3298C25.5277 80.8294 26.7707 80.8811 29.2331 79.5366C29.9836 79.1229 30.6402 78.8385 30.7106 78.8902C30.7575 78.9678 30.2415 79.4074 29.5614 79.8986C24.8007 83.3892 19.8054 84.5527 16.5456 82.9496C13.708 81.5793 12.3478 78.6317 13.7314 76.8476C14.3881 76.0202 15.5607 75.9168 16.2642 76.6408C17.0147 77.3906 16.6863 78.5541 15.7248 78.5541C15.2089 78.5541 15.1854 78.3214 15.7014 77.9077C15.9359 77.7267 16.0297 77.4165 15.9359 77.1579C15.7014 76.5115 14.7867 76.7442 14.3881 77.5716C13.8956 78.5283 14.3881 79.4849 15.5372 79.8728C17.6713 80.5709 19.4771 77.7009 18.5156 75.1411C17.812 73.2795 15.5607 72.1418 13.6376 72.6848C10.8703 73.4605 9.53353 77.4423 10.9406 80.7519C12.0663 83.4409 13.9659 84.5268 17.8824 84.7078C21.2126 84.863 23.5343 84.2941 26.6768 82.5876C28.5295 81.5793 29.6787 80.7777 33.173 78.0887C34.3456 77.1837 31.5783 79.9762 30.0774 81.2173C28.2481 82.7428 22.5962 85.8713 19.9931 86.8539C17.9293 87.6037 17.601 87.6554 15.4199 87.5261C13.7783 87.4485 12.4885 87.19 11.0813 86.6987C8.26713 85.6903 6.0392 85.6903 4.28031 86.6729C2.70903 87.552 2.07583 88.1725 1.30192 89.6204C0.57491 90.9649 0.504555 92.3612 1.09085 92.9817C1.34882 93.2144 1.46608 93.2661 1.37227 93.0851C1.1143 92.5939 1.86476 91.4821 2.75593 91.0684C3.99888 90.4995 4.8666 90.6288 6.81311 91.6372C10.9172 93.7574 13.9659 92.9559 21.3533 87.914C24.144 86.0006 27.7322 83.8546 27.7322 84.0873C27.7322 84.139 26.4423 85.1215 24.8711 86.2333C21.705 88.5086 19.7116 90.3444 19.1019 91.5855C18.8205 92.1543 18.6798 93.2661 18.586 95.3605C18.4452 98.7734 18.0935 99.6267 16.4753 100.454C15.9593 100.713 15.5372 100.997 15.5372 101.1C15.5138 101.98 19.2661 99.6267 20.8608 97.7651C21.4236 97.1445 22.2679 95.6707 22.7838 94.5072C23.2763 93.3437 24.0033 91.6372 24.4255 90.7064C25.3635 88.4828 28.5295 84.5268 34.9554 77.5199C37.7461 74.4689 39.294 72.8917 38.3793 74.0293C36.4797 76.3822 34.885 78.942 33.2199 82.3032C32.3522 84.0356 31.4845 85.2766 29.749 87.2417C27.0286 90.3444 26.2078 91.6113 25.7153 93.5247C24.9414 96.4205 25.645 98.7734 27.3804 99.1354C28.9751 99.4457 30.3822 97.8426 29.8663 96.3171C29.5614 95.438 29.0924 95.2312 28.4123 95.619C27.9667 95.9034 27.826 95.8776 27.568 95.4639C27.1693 94.8692 27.1928 93.0851 27.5915 92.2577C27.8025 91.844 28.7641 91.1459 30.2181 90.3186C33.2668 88.6121 33.431 88.3276 36.1983 80.5192C37.9572 75.5548 39.4581 73.3054 43.656 69.2201C46.7751 66.195 47.3379 65.8589 51.4186 64.6695C55.335 63.506 62.2533 63.6094 64.8565 64.8763C65.3021 65.0832 65.2786 65.109 64.6689 64.9798C62.9569 64.6178 57.0236 64.5402 55.1474 64.8505C48.5809 65.8847 43.0697 69.608 39.8568 75.1153C35.9403 81.7861 34.7677 86.8797 34.2987 99.0837C34.0173 106.142 33.8297 107.564 33.0558 108.65C32.4226 109.529 30.7106 109.866 29.9836 109.245C29.3973 108.754 29.6552 108.03 30.4291 108.03C31.1327 108.03 31.1562 107.771 30.5699 106.97C30.265 106.556 29.8898 106.375 29.28 106.375C27.099 106.375 25.8795 110.202 27.1693 112.968C27.6384 114.003 29.0455 115.218 29.9601 115.425L30.7809 115.58L30.2884 116.278C30.0305 116.64 29.538 117.079 29.1862 117.26L28.553 117.571H29.1393C30.0539 117.597 32.5867 116.873 33.5717 116.33C35.0257 115.502 36.8081 113.149 37.2536 111.443C37.6992 109.762 37.582 105.832 36.9957 102.729C36.4563 99.9111 36.6204 99.8594 37.2302 102.652C38.1917 106.944 39.6223 109.219 42.1082 110.512C43.0932 111.003 43.7029 111.133 45.3211 111.133C48.5574 111.107 50.1287 110.072 51.5593 106.918C52.5443 104.772 54.0217 102.936 55.0302 102.626L55.7572 102.393L55.0771 102.367C54.7018 102.342 53.8341 102.729 53.0837 103.221C51.3013 104.436 49.1437 105.005 47.1034 104.85C45.7667 104.746 45.11 104.513 43.2808 103.505C39.5285 101.411 37.6992 98.5924 36.9957 93.8091C36.5501 90.7322 36.5501 88.9482 36.9722 86.4919C37.324 84.4493 38.4262 81.1656 39.2705 79.5883C40.1148 78.0111 41.3577 75.9685 41.4515 75.9685C41.4984 75.9685 41.2405 76.6925 40.8652 77.5716C39.3878 81.0621 38.6842 86.1557 39.2001 89.5687C39.7864 93.2144 41.3812 95.7483 43.9843 97.0669C45.2273 97.7133 45.7432 97.8168 47.4318 97.8168C50.3398 97.8168 52.1221 96.8601 53.1071 94.7658C53.9748 92.8783 53.6465 89.8273 52.4035 88.2759C52.1925 88.0174 51.5827 87.5778 51.0668 87.3193C47.9242 85.7162 44.5003 88.3535 45.3211 91.6889C45.626 92.9817 46.2123 93.5505 47.4083 93.7315C48.1353 93.835 48.4871 93.7574 48.8389 93.4213C49.4721 92.8007 49.4486 91.6113 48.792 91.1201C48.1822 90.6288 47.4318 90.9908 47.4318 91.7665C47.4318 92.4646 46.8689 92.2577 46.7751 91.5079C46.6578 90.6288 47.1503 90.1893 48.276 90.1893C49.5893 90.1893 50.246 90.9132 50.246 92.3095C50.246 93.6798 49.73 94.4296 48.3229 95.1019C46.8924 95.7741 45.7198 95.6707 44.2423 94.7141C42.9055 93.8608 41.944 92.568 41.3108 90.784C40.8418 89.4653 40.7714 88.8448 40.7714 85.7938C40.7714 82.6911 40.8418 82.0705 41.4046 80.2347C42.9994 74.9084 47.0331 70.3061 51.7469 68.341C55.4054 66.8155 61.9016 66.4018 66.076 67.3844L68.1867 67.9015L65.607 67.7463C61.7374 67.5654 60.4944 67.7981 59.3219 68.9357C58.4072 69.8407 57.047 71.935 57.047 72.4263C57.047 72.5555 57.3753 72.3487 57.774 71.9867C58.5948 71.211 58.8997 71.1335 61.1511 70.9783C62.2064 70.9008 63.3556 70.5905 64.3171 70.1509C66.2402 69.2718 67.9052 69.0909 70.8133 69.4787C73.0177 69.789 78.9511 71.2886 78.7635 71.5213C78.7166 71.573 77.4736 71.4179 75.9961 71.1852C72.4784 70.5905 68.6557 70.7456 67.0375 71.5213C64.8799 72.5814 63.0976 74.624 62.4879 76.7442C62.0892 78.1146 61.9719 79.6659 62.183 80.5192L62.394 81.269L62.4175 80.3382C62.441 79.8469 62.7224 78.7868 63.0976 78.0111C63.9184 76.2271 65.2786 75.3221 67.6473 75.0894C68.5384 74.986 70.2973 74.4947 71.5637 74.0293C74.8939 72.7624 77.3329 72.4263 80.3113 72.8141C88.4256 73.8742 94.8514 73.8742 98.2051 72.7624C101.16 71.8057 103.458 70.4612 105.217 68.703C107.093 66.8155 108.078 65.1349 108.876 62.4717C109.462 60.5325 109.485 60.274 109.227 59.1105C108.407 55.7233 106.484 53.81 100.925 50.8366C98.7914 49.6989 95.0391 47.4236 92.5766 45.7688C84.2043 40.1581 80.5458 38.736 77.6143 39.8995ZM31.5314 63.0923C31.3672 63.2733 31.25 63.6352 31.25 63.9455C31.25 64.7729 31.719 65.109 32.8212 65.109C33.9469 65.109 34.1111 65.4193 33.2668 66.014C32.2584 66.738 30.9216 65.7554 30.9685 64.3075C30.992 63.5835 31.3672 62.782 31.6721 62.782C31.7425 62.782 31.6955 62.9113 31.5314 63.0923ZM40.6307 69.8407C40.6307 69.8924 40.3962 70.1509 40.1148 70.4354L39.5754 70.9266L40.021 70.3319C40.4431 69.789 40.6307 69.6338 40.6307 69.8407ZM36.4094 74.7533C36.4094 74.805 36.1749 75.0636 35.8934 75.348L35.354 75.8392L35.7996 75.2446C36.2218 74.7016 36.4094 74.5464 36.4094 74.7533ZM36.5735 99.8077C36.5032 100.015 36.4328 99.9369 36.4328 99.6525C36.4094 99.3681 36.4797 99.213 36.5501 99.3164C36.6204 99.394 36.6439 99.6267 36.5735 99.8077Z" fill="url(#paint1_linear_78_5)"/>
<path d="M136.432 40.2354C134.251 41.1145 132.398 42.1746 127.403 45.4841C125.409 46.7769 121.751 49.0005 119.312 50.4226C113.238 53.8873 111.549 55.4904 110.517 58.7482C109.978 60.5323 110.189 61.8768 111.479 64.5916C113.566 69.0389 117.576 72.0123 123.181 73.2792C124.846 73.6412 125.949 73.6929 129.959 73.5636C132.586 73.4861 136.221 73.2017 138.026 72.969C142.06 72.4001 144.194 72.6328 147.782 74.0032C149.119 74.5203 150.901 75.0116 151.769 75.0891C153.364 75.2701 155.123 76.0458 155.826 76.9249C156.413 77.6489 157.187 79.6139 157.187 80.4672C157.187 80.8809 157.257 81.1653 157.327 81.0619C157.398 80.9843 157.468 80.1569 157.445 79.2261C157.445 77.3645 156.929 75.7614 155.873 74.2359C155.029 73.0207 153.036 71.6244 151.535 71.1849C149.87 70.6936 146.211 70.6936 143.561 71.2108C142.412 71.4176 141.333 71.5727 141.192 71.521C140.77 71.3659 145.296 70.0989 147.806 69.6335C151.23 69.0389 152.754 69.1164 155.076 70.0472C156.319 70.5385 157.796 70.9263 159.016 71.0298C160.704 71.2108 161.033 71.3142 161.642 71.9606C162.018 72.3743 162.393 72.6328 162.463 72.5811C162.721 72.2967 160.986 69.6077 160.071 68.832C158.852 67.7978 157.445 67.5651 153.927 67.7719C151.464 67.9271 151.464 67.9271 152.731 67.5651C158.172 66.0654 165.277 66.7894 169.663 69.2974C173.673 71.5986 176.816 75.6321 178.199 80.2345C178.809 82.3288 178.88 82.8976 178.88 85.9228C178.856 88.8186 178.786 89.4909 178.317 90.7837C177.168 93.964 174.353 96.0066 172.032 95.3602C170.531 94.9465 169.686 94.2225 169.358 93.059C169.03 91.8179 169.428 90.7578 170.39 90.2407C171.586 89.6202 173.087 90.6803 172.665 91.8696C172.501 92.3609 172.454 92.335 172.219 91.6628C171.914 90.8354 171.07 90.7061 170.484 91.4301C169.968 92.0506 169.991 92.3092 170.578 93.1366C170.929 93.6537 171.258 93.8088 171.914 93.8088C173.392 93.783 174.306 92.5936 174.306 90.6803C174.306 87.7327 171.258 85.9486 168.561 87.319C165.958 88.6118 165.137 92.1799 166.755 95.1016C167.224 95.9807 167.74 96.4461 168.795 97.0408C170.038 97.7131 170.46 97.8165 172.196 97.8165C173.908 97.8165 174.377 97.7131 175.502 97.0925C176.98 96.3168 178.692 94.4294 179.442 92.8263C181.178 89.0772 180.896 82.8976 178.786 77.623C178.129 76.02 178.106 75.9165 178.622 76.5629C179.466 77.7264 180.967 80.8033 181.741 83.0786C182.679 85.7676 183.077 88.6118 182.913 91.3266C182.515 97.4545 180.427 101.281 176.183 103.608C172.829 105.444 169.827 105.315 166.473 103.246C165.653 102.755 164.808 102.341 164.55 102.341C164.246 102.341 164.339 102.471 164.879 102.781C165.887 103.324 166.966 104.823 168.092 107.202C169.475 110.15 171.093 111.184 174.353 111.184C178.575 111.184 181.365 108.03 182.421 102.005C183.031 98.5922 183.101 99.4971 182.515 103.169C181.811 107.487 181.788 110.357 182.468 111.986C183.171 113.744 184.25 115.166 185.493 115.967C186.689 116.743 189.292 117.596 190.371 117.596L191.074 117.57L190.324 117.208C189.714 116.924 189.081 116.174 189.081 115.709C189.081 115.657 189.503 115.476 189.996 115.295C191.802 114.726 192.927 112.503 192.786 109.917C192.669 108.004 192.13 107.047 190.863 106.504C190.066 106.168 189.949 106.194 189.363 106.659C188.471 107.383 188.424 107.978 189.222 108.081C189.996 108.185 190.183 108.598 189.667 109.167C189.128 109.736 187.768 109.684 186.947 109.038C185.821 108.159 185.563 106.633 185.329 99.3678C184.977 88.5859 184.273 84.5783 181.67 78.6831C180.193 75.3218 178.035 72.2191 175.784 70.1507C173.884 68.4442 170.296 66.4274 167.388 65.4707C165.418 64.7985 164.973 64.7468 160.822 64.7468C158.383 64.7209 155.85 64.7985 155.193 64.9019L154.021 65.0829L155.052 64.7209C156.929 64.0487 160.939 63.5057 162.815 63.6867C166.473 64.0487 170.202 65.1088 172.618 66.4791C174.4 67.4875 179.208 72.4001 180.779 74.8306C182.116 76.8991 182.796 78.4246 183.945 81.9668C185.751 87.5258 186.853 89.284 189.128 90.2407C189.925 90.5768 190.981 91.2491 191.473 91.7662C192.247 92.5677 192.364 92.8521 192.364 93.8605C192.364 94.4811 192.224 95.205 192.059 95.4636C191.802 95.8514 191.661 95.8773 191.121 95.5929C190.559 95.3085 190.418 95.3343 190.09 95.6963C189.855 95.929 189.691 96.5237 189.691 97.0149C189.691 99.4971 192.833 99.9625 193.912 97.6355C194.194 97.0149 194.264 96.3944 194.17 95.1792C194.006 92.7746 193.115 90.9905 190.699 88.3532C188.19 85.5866 187.885 85.1212 185.798 81.1394C183.64 77.0283 182.843 75.8131 180.545 73.1241C179.513 71.9089 181.295 73.8222 184.531 77.3903C192.552 86.2589 193.983 88.0947 195.437 91.4818C197.477 96.2134 197.852 96.9374 198.814 97.9975C199.822 99.1093 203.035 101.307 203.621 101.281C203.879 101.281 203.879 101.204 203.527 100.971C201.44 99.523 200.737 97.8682 200.971 94.8689C201.135 92.5677 200.596 91.2232 198.743 89.465C197.5 88.2757 193.889 85.5091 192.646 84.7851C192.341 84.6041 192.13 84.3973 192.2 84.3456C192.411 84.1129 195.906 86.2072 198.579 88.1205C205.122 92.8263 208.828 93.7312 212.767 91.6369C214.644 90.6285 215.605 90.4993 216.872 91.0681C217.786 91.5076 218.537 92.7746 218.091 93.2658C217.95 93.421 217.903 93.5503 217.974 93.5503C218.396 93.5503 218.865 92.6453 218.865 91.8438C218.865 90.008 217.528 87.9912 215.511 86.8019C213.541 85.6383 211.478 85.6125 208.546 86.6726C207.116 87.1897 205.873 87.4224 204.208 87.5258C202.003 87.6551 201.722 87.6034 199.634 86.8277C195.132 85.1212 189.949 81.8892 187.205 79.0451C185.821 77.623 185.985 77.7006 189.198 80.1052C191.989 82.1995 194.663 83.5957 197.078 84.268C199.799 85.0437 203.645 84.8885 205.521 83.9319C207.983 82.6908 209.132 80.7516 209.132 77.9074C209.132 75.7872 208.546 74.391 207.256 73.4085C205.38 72.0123 203.434 72.2191 201.815 74.029C200.877 75.0633 200.807 75.2184 200.807 76.5629C200.807 77.804 200.901 78.1401 201.511 78.89C202.918 80.674 205.263 80.131 205.263 78.0626C205.263 77.5196 204.559 76.7439 204.043 76.7439C203.434 76.7439 203.363 77.4679 203.903 77.8816C204.372 78.2436 204.372 78.2953 203.973 78.4504C203.457 78.6831 202.824 78.2694 202.73 77.6747C202.496 76.3819 204.77 75.6838 205.732 76.7439C206.435 77.5196 206.365 79.4588 205.638 80.6482C203.481 84.1129 198.696 84.6041 193.373 81.8892C191.708 81.0619 188.612 78.9417 188.612 78.6573C188.612 78.6055 189.386 78.9934 190.324 79.5105C192.646 80.855 193.748 80.855 195.202 79.5364C195.788 78.9934 196.633 78.3987 197.055 78.1918L197.852 77.8299L196.82 77.5196C195.952 77.261 195.437 77.2869 193.842 77.6489C191.403 78.2177 190.043 78.0367 187.721 76.8732C186.056 76.02 182.046 72.8914 181.178 71.7537L180.756 71.1849L181.342 71.7279C182.515 72.8397 185.61 74.9081 186.877 75.4253C188.518 76.1234 190.066 76.1234 191.332 75.4253C192.13 75.0116 192.482 74.5979 192.927 73.5636C193.256 72.8138 193.584 71.7537 193.678 71.1849C193.842 70.0472 194.334 68.8579 194.897 68.1339C195.695 67.1514 194.874 67.7719 193.959 68.8837C193.42 69.5301 192.505 70.3575 191.919 70.7453C190.887 71.4176 190.676 71.4435 187.791 71.4435H184.742L182.655 70.3317C181.53 69.737 179.63 68.5734 178.434 67.7719C175.784 65.962 173.368 64.7468 170.929 63.9711L169.077 63.3764L169.991 63.0403C170.484 62.8593 172.125 62.0836 173.626 61.3338C177.426 59.3687 180.216 58.7741 182.374 59.4463C182.89 59.6015 184.039 60.2478 184.954 60.8684C185.868 61.5148 187.017 62.2129 187.486 62.4456C188.026 62.7042 188.424 63.1179 188.565 63.5574C189.081 65.1346 187.533 66.867 186.361 66.0137C185.587 65.4449 185.657 65.1605 186.595 65.1605C187.674 65.1605 188.378 64.6951 188.378 63.997C188.378 63.1179 187.932 62.7817 186.853 62.7817C184.93 62.7817 184.18 64.9019 185.54 66.4274C187.252 68.289 190.183 66.5567 190.629 63.4281C190.934 61.0494 189.691 58.6189 187.557 57.4813C185.188 56.1885 182.092 56.3178 177.941 57.8691L176.065 58.5672L176.136 56.99C176.183 55.5679 176.112 55.2835 175.362 53.9907L174.541 52.5686V53.7839C174.541 54.4561 174.447 55.0508 174.33 55.1284C174.236 55.2059 174.142 55.7231 174.142 56.2402C174.142 58.3862 172.548 60.4806 170.155 61.4889C169.006 61.9802 168.092 62.1095 164.339 62.2905C161.9 62.3939 159.321 62.6007 158.641 62.7559C155.381 63.4798 151.933 64.6951 148.885 66.2464C146.774 67.3065 146.281 67.3065 147.97 66.2464C149.893 65.0053 152.309 63.0144 154.044 61.2045C156.014 59.1619 158.781 56.8607 160.118 56.1109C163.425 54.2751 167.505 54.4044 167.505 56.3436C167.505 56.7314 167.412 56.7573 166.778 56.4987C166.145 56.2143 166.028 56.2402 165.723 56.6797C165.019 57.7657 165.7 59.498 166.943 59.7566C168.35 60.041 170.179 58.7482 170.765 57.0159C172.149 53.034 168.326 49.7245 163.87 51.0173C161.76 51.6378 159.719 53.215 156.624 56.6797C153.645 59.9893 153.551 60.041 155.381 57.3778C156.788 55.2835 157.445 53.8873 158.101 51.5603C159.086 48.018 158.617 44.9411 156.718 42.8468C153.763 39.589 148.58 39.7958 144.968 43.3381C143.866 44.424 143.115 45.7944 143.115 46.6735C143.115 46.9838 143.256 46.8545 143.514 46.2857C144.053 45.0446 145.695 44.062 147.173 44.1138C148.791 44.1396 150.69 45.2256 151.605 46.5959C152.754 48.3283 153.856 50.6812 154.114 51.8705C154.912 55.8265 151.746 62.4197 147.735 65.1346L146.516 65.962L147.524 64.7468C148.885 63.1179 149.588 61.3079 149.94 58.6189C150.479 54.5595 149.494 52.0515 146.75 50.5002C145.484 49.7762 145.203 49.7245 142.904 49.7245C140.747 49.7245 140.278 49.8021 139.363 50.3192C137.862 51.1724 136.432 52.8272 135.845 54.301C135.236 55.8782 135.353 56.1109 136.103 54.8181C136.455 54.2234 137.135 53.6029 137.956 53.1375C139.035 52.5169 139.457 52.4135 140.559 52.5169C142.811 52.7238 144.569 54.0941 145.719 56.5763C146.164 57.5071 146.281 58.1535 146.281 59.8083C146.281 62.4197 145.601 63.9452 143.655 65.8586C142.06 67.3841 141.474 67.6168 142.67 66.1947C143.796 64.9019 144.171 64.1521 144.616 62.5232C145.085 60.765 145.085 59.8083 144.616 58.1794C143.842 55.5679 142.037 53.9907 139.785 53.9907C137.581 53.9907 136.08 55.6455 136.783 57.3003L137.088 57.9984L137.252 57.0159C137.464 55.8006 138.026 55.3094 139.316 55.2835C141.614 55.2835 142.576 58.4121 141.474 62.368C140.559 65.6 137.37 68.5217 133.031 70.0472C130.639 70.9005 129.842 71.0039 131.319 70.2799C134.532 68.7027 137.252 65.6517 137.252 63.6091C137.252 61.4114 135.494 60.1961 134.227 61.5148C133.758 62.0061 133.711 62.2387 133.852 63.273C134.251 66.4274 133.828 67.4875 131.671 69.013C129.396 70.5902 128.27 70.9005 124.823 70.9263C122.126 70.9263 121.422 70.8488 120.039 70.3317C116.591 69.0647 114.176 67.2548 112.393 64.6175C111.291 63.0144 111.197 62.549 112.112 63.2471C113.12 64.0487 115.137 64.5916 117.107 64.5916C121.727 64.5916 126.3 61.5148 129.56 56.2402C130.1 55.3869 131.249 53.0082 132.14 50.9914C133.008 48.9488 134.11 46.5959 134.555 45.7685C136.737 41.6575 139.645 39.6407 142.295 40.3647L142.998 40.5456L142.318 40.1319C141.966 39.8992 140.911 39.6665 139.973 39.6148C138.566 39.5114 138.003 39.6148 136.432 40.2354ZM153.833 65.2639C153.763 65.3415 153.551 65.3673 153.387 65.2897C153.2 65.2122 153.27 65.1346 153.528 65.1346C153.786 65.1088 153.927 65.1863 153.833 65.2639ZM180.427 70.978C180.732 71.3917 180.709 71.4176 180.357 71.0815C180.122 70.9005 179.935 70.6936 179.935 70.6419C179.935 70.4351 180.122 70.5644 180.427 70.978ZM182.28 73.7705C182.585 74.1325 182.773 74.4169 182.702 74.4169C182.655 74.4169 182.35 74.1325 182.046 73.7705C181.741 73.4085 181.553 73.1241 181.623 73.1241C181.67 73.1241 181.975 73.4085 182.28 73.7705ZM183.148 99.2903C183.077 99.4971 183.007 99.4195 183.007 99.1351C182.984 98.8507 183.054 98.6956 183.124 98.799C183.195 98.8766 183.218 99.1093 183.148 99.2903Z" fill="url(#paint2_linear_78_5)"/>
<path d="M80.4051 81.9926C80.1237 83.2337 72.7363 101.928 72.3611 102.419C72.1266 102.677 71.6576 103.091 71.2823 103.272C70.9306 103.479 70.696 103.763 70.7664 103.893C70.8602 104.048 72.1735 104.151 73.7213 104.151C76.0431 104.151 76.5121 104.074 76.5121 103.763C76.5121 103.531 76.301 103.375 75.9727 103.375C75.2457 103.375 74.4014 102.677 74.4014 102.083C74.4014 101.824 74.8236 100.48 75.3395 99.0834C75.8554 97.6871 76.2776 96.5236 76.2776 96.4719C76.2776 96.4202 77.9427 96.3943 80.0064 96.3943C82.7034 96.3943 83.7822 96.4719 83.9463 96.7046C84.2043 97.0666 85.3769 100.247 85.6818 101.41C85.9632 102.47 85.4238 103.375 84.4857 103.375C84.0167 103.375 83.7822 103.505 83.7822 103.763C83.7822 104.099 84.6968 104.151 90.5832 104.151C96.4696 104.151 97.3843 104.099 97.3843 103.763C97.3843 103.505 97.1497 103.375 96.6807 103.375C96.2351 103.375 95.7426 103.143 95.3908 102.729L94.8046 102.109V93.7829C94.8046 89.2064 94.8515 85.509 94.8984 85.5607C94.9453 85.6124 96.4931 89.3874 98.2989 93.938C100.128 98.4887 101.699 102.393 101.817 102.6C101.91 102.807 102.192 102.988 102.45 102.988C102.895 102.988 103.06 102.574 107.727 90.706L109.814 85.4056L109.767 93.8605C109.696 103.298 109.743 103.039 108.031 103.35C107.539 103.427 107.117 103.66 107.046 103.841C106.976 104.074 107.891 104.151 111.08 104.151C114.598 104.151 115.208 104.099 115.208 103.763C115.208 103.505 114.973 103.375 114.528 103.375C114.152 103.375 113.613 103.143 113.308 102.884L112.745 102.393V92.9555C112.745 85.5866 112.816 83.4664 113.05 83.1303C113.214 82.9234 113.777 82.6649 114.293 82.5614C114.856 82.458 115.208 82.2512 115.208 82.0185C115.208 81.734 114.692 81.6565 112.534 81.6565H109.884L108.313 85.5866C107.445 87.7585 105.991 91.4817 105.053 93.8605C104.138 96.2651 103.318 98.2043 103.247 98.2043C103.177 98.2043 101.652 94.5069 99.8467 89.9821L96.5634 81.7858L93.7961 81.7082C91.4509 81.6565 91.0523 81.7082 91.0523 82.0443C91.0523 82.277 91.2633 82.4322 91.6385 82.4322C91.9669 82.4322 92.5063 82.7166 92.8111 83.0786L93.3974 83.6991V92.9038V102.109L92.8111 102.729C92.1545 103.479 91.1461 103.582 90.1142 102.988C89.223 102.47 88.7305 101.281 83.3131 86.6208C81.8357 82.6131 81.2728 81.3979 80.9679 81.3979C80.7334 81.3979 80.4989 81.6565 80.4051 81.9926ZM81.8591 90.6543C82.6565 92.9038 83.3131 94.843 83.3131 94.9206C83.3131 95.024 81.8826 95.1016 80.1237 95.1016C77.1687 95.1016 76.9342 95.0757 77.0984 94.6361C77.9896 92.0247 80.1471 86.5691 80.2644 86.5691C80.3582 86.5691 81.0852 88.4049 81.8591 90.6543Z" fill="black"/>
<path d="M121.868 81.9927C117.741 83.725 115.442 87.681 115.442 93.059C115.442 99.1869 118.608 103.531 123.768 104.461C127.028 105.056 130.264 103.841 132.492 101.204C134.72 98.5405 135.517 95.9032 135.33 91.7921C135.212 89.6978 135.095 89.1548 134.345 87.5C133.289 85.0954 131.296 83.0011 129.349 82.1478C127.286 81.2687 123.791 81.1912 121.868 81.9927ZM128.364 83.4923C130.616 84.8627 131.859 87.7844 132.023 92.1282C132.187 96.2393 131.296 99.8591 129.701 101.488C128.786 102.445 126.934 103.195 125.527 103.195C123.486 103.22 122.267 102.703 121.047 101.333C119.546 99.6781 118.937 97.8165 118.796 94.3001C118.491 87.8361 120.18 83.9577 123.768 82.9235C125.034 82.5615 127.286 82.8459 128.364 83.4923Z" fill="black"/>
<path d="M134.907 82.0702C134.907 82.2253 135.282 82.4322 135.751 82.5097C137.557 82.8459 137.487 82.4063 137.487 92.9297V102.315L136.877 102.832C136.525 103.143 135.939 103.375 135.587 103.375C135.142 103.375 134.907 103.505 134.907 103.763C134.907 104.099 135.517 104.151 139.011 104.151C142.506 104.151 143.115 104.099 143.115 103.763C143.115 103.505 142.881 103.375 142.412 103.375C141.966 103.375 141.474 103.143 141.122 102.729C140.559 102.109 140.536 102.005 140.536 97.9716C140.536 95.4636 140.629 93.7829 140.77 93.6795C141.356 93.2917 142.083 94.0932 144.687 97.9974C146.211 100.299 147.806 102.626 148.251 103.169L149.049 104.177L151.3 104.099C153.082 104.048 153.551 103.944 153.551 103.634C153.551 103.427 153.223 103.194 152.778 103.091C151.699 102.858 150.784 101.824 147.782 97.5062C146.375 95.4894 145.132 93.7829 144.992 93.6795C144.616 93.4209 144.945 93.0331 145.531 93.0331C146.234 93.0072 148.04 92.1023 148.697 91.4042C149.635 90.4475 150.151 89.0513 150.151 87.4999C150.151 84.4231 148.791 82.8459 145.578 82.1995C143.467 81.7858 134.907 81.6824 134.907 82.0702ZM144.569 83.4664C146.399 84.0352 147.501 86.6208 146.891 88.922C146.305 91.0681 144.804 92.154 142.037 92.4384L140.536 92.5936V88.1722C140.536 84.2421 140.583 83.725 140.958 83.4923C141.474 83.1561 143.467 83.1303 144.569 83.4664Z" fill="black"/>
<path d="M78.623 109.322C78.623 109.452 78.7638 109.581 78.9514 109.581C79.4673 109.581 79.5611 110.176 79.5611 113.227C79.5611 115.657 79.4908 116.122 79.1155 116.536C78.67 117.027 78.6934 117.027 80.1709 117.131C81.7187 117.208 82.0236 117.053 81.2028 116.562C80.8275 116.329 80.7337 116.019 80.7337 114.881V113.459H81.789C82.563 113.459 82.8444 113.563 82.8444 113.821C82.8444 114.028 82.9616 114.287 83.0789 114.364C83.2196 114.468 83.3134 113.976 83.3134 113.097C83.3134 111.675 83.0085 111.158 82.774 112.167C82.6802 112.58 82.4457 112.684 81.6952 112.684H80.7337V111.262V109.839H81.9532C83.0085 109.839 83.2431 109.943 83.7121 110.538L84.228 111.262L84.2515 110.15V109.064H81.4373C79.7253 109.064 78.623 109.167 78.623 109.322Z" fill="black"/>
<path d="M86.5962 109.271C86.5962 109.374 86.8073 109.607 87.0652 109.788C87.4874 110.072 87.5343 110.383 87.5343 113.201C87.5343 116.019 87.4874 116.304 87.0652 116.562C86.8073 116.717 86.5962 116.924 86.5962 117.028C86.5962 117.131 87.7688 117.209 89.2228 117.209H91.8494L92.1777 116.226C92.6468 114.933 92.3654 114.726 91.568 115.761C91.0051 116.511 90.8175 116.588 89.8795 116.511L88.8241 116.433L88.7538 113.279C88.7069 110.331 88.7303 110.098 89.1759 109.788C89.9733 109.245 89.7153 109.064 88.1206 109.064C87.2763 109.064 86.5962 109.142 86.5962 109.271Z" fill="black"/>
<path d="M97.0326 109.426C95.4613 110.176 94.617 112.089 94.875 114.235C95.1095 116.2 96.8919 117.777 98.6273 117.519C99.8703 117.338 100.668 116.665 101.324 115.243C102.356 113.097 101.606 110.538 99.6357 109.555C98.51 108.986 97.9941 108.96 97.0326 109.426ZM99.1432 109.995C100.152 110.434 100.597 114.157 99.8468 115.786C99.2371 117.079 97.6423 117.183 96.845 115.993C95.9303 114.649 96.3525 110.486 97.4313 110.02C97.8768 109.814 98.6977 109.814 99.1432 109.995Z" fill="black"/>
<path d="M136.385 109.245C135.494 109.426 134.673 110.486 134.673 111.468C134.673 112.709 135.306 113.459 137.041 114.235C138.355 114.804 138.542 114.985 138.613 115.657C138.824 117.622 136.127 117.519 135.376 115.528C134.931 114.364 134.673 114.597 134.673 116.174C134.673 117.441 134.954 118.062 135.189 117.312C135.259 117.079 135.4 117.079 135.775 117.312C136.057 117.467 136.807 117.596 137.44 117.596C138.941 117.596 139.832 116.717 139.832 115.295C139.832 114.002 139.316 113.304 138.003 112.839C136.455 112.27 135.845 111.753 135.845 110.977C135.845 109.477 138.003 109.581 138.707 111.106C139.293 112.399 139.363 112.373 139.363 110.744C139.363 109.581 139.293 109.296 139.082 109.529C138.941 109.684 138.66 109.736 138.449 109.607C137.886 109.296 136.971 109.141 136.385 109.245Z" fill="black"/>
<path d="M103.552 109.658C103.505 109.762 103.599 109.917 103.81 109.995C104.162 110.15 104.701 111.494 105.803 115.011C106.178 116.226 106.624 117.208 106.765 117.208C106.929 117.208 107.351 116.278 107.726 115.14C108.102 114.002 108.477 112.89 108.547 112.684C108.617 112.451 108.993 113.278 109.462 114.649C110.329 117.364 110.47 117.648 110.752 117.467C110.869 117.389 111.408 115.812 111.948 113.951C112.51 111.986 113.12 110.357 113.402 110.072C113.894 109.581 113.871 109.581 112.604 109.581C111.502 109.607 111.385 109.633 111.76 109.943C112.276 110.382 112.276 110.641 111.549 113.046L110.916 115.088L110.095 112.709C109.298 110.408 109.298 110.331 109.72 109.969C110.118 109.633 110.001 109.607 108.594 109.581H107.023L107.586 110.227C107.914 110.563 108.172 111.106 108.172 111.443C108.172 112.011 107.468 114.313 107.21 114.623C107.14 114.7 106.741 113.744 106.343 112.528C105.663 110.434 105.639 110.253 105.991 109.943C106.343 109.684 106.178 109.633 105.029 109.555C104.279 109.503 103.622 109.529 103.552 109.658Z" fill="black"/>
<path d="M118.139 109.607C116.287 109.684 115.513 109.814 115.864 109.943C116.357 110.15 116.38 110.279 116.38 113.485C116.38 116.226 116.31 116.872 116.029 116.976C115.091 117.389 115.935 117.596 118.397 117.596H121.094L121.446 116.665C121.892 115.476 121.704 115.269 120.977 116.122C120.484 116.717 120.203 116.821 119.077 116.821H117.788V115.269V113.718H118.819C119.664 113.718 119.898 113.821 120.015 114.235C120.297 115.192 120.602 114.778 120.602 113.459C120.602 112.244 120.32 111.753 120.062 112.528C119.922 112.916 118.679 113.252 118.139 113.046C117.881 112.942 117.788 112.503 117.788 111.624V110.357H119.054C120.086 110.357 120.367 110.46 120.672 110.925C121.141 111.727 121.399 111.365 121.165 110.305L120.954 109.452L118.139 109.607Z" fill="black"/>
<path d="M124.823 109.839C124.823 109.969 124.987 110.098 125.174 110.098C125.479 110.098 125.526 110.641 125.526 113.433C125.526 116.588 125.503 116.769 125.01 117.157C124.494 117.545 124.565 117.57 126.347 117.57L128.223 117.596L127.567 117.002C127.004 116.51 126.91 116.278 126.98 115.424C127.027 114.856 127.168 114.364 127.309 114.313C127.473 114.261 128.082 114.985 128.716 115.916C129.818 117.57 129.841 117.596 130.967 117.596C132.233 117.596 132.327 117.493 131.53 117.027C130.686 116.536 128.88 113.899 129.279 113.77C129.912 113.537 130.686 112.425 130.686 111.779C130.686 110.77 130.31 110.176 129.49 109.865C128.551 109.503 124.823 109.477 124.823 109.839ZM128.763 110.667C129.161 111.106 129.114 112.425 128.645 112.994C128.434 113.252 127.965 113.459 127.59 113.459C126.957 113.459 126.933 113.433 126.933 112.089C126.933 111.313 127.004 110.615 127.097 110.538C127.355 110.253 128.458 110.331 128.763 110.667Z" fill="black"/>
<defs>
<linearGradient id="paint0_linear_78_5" x1="109.876" y1="58.6016" x2="109.876" y2="21.8001" gradientUnits="userSpaceOnUse">
<stop offset="0.25" stop-color="#651240"/>
<stop offset="1" stop-color="#CB2481"/>
</linearGradient>
<linearGradient id="paint1_linear_78_5" x1="55.0412" y1="117.571" x2="55.0412" y2="39.5234" gradientUnits="userSpaceOnUse">
<stop offset="0.706731" stop-color="#360221"/>
<stop offset="1" stop-color="#AF076C"/>
</linearGradient>
<linearGradient id="paint2_linear_78_5" x1="164.553" y1="117.596" x2="164.553" y2="39.5799" gradientUnits="userSpaceOnUse">
<stop offset="0.639423" stop-color="#2D021C"/>
<stop offset="1" stop-color="#AF076C"/>
</linearGradient>
</defs>
</svg>
