<?xml version="1.0" encoding="UTF-8" standalone="no"?><svg xmlns="http://www.w3.org/2000/svg" xmlns:xlink="http://www.w3.org/1999/xlink"><symbol viewBox="-4.5 0 20 20" id="arrow-right" xmlns="http://www.w3.org/2000/svg"><path d="M.366 19.708c.405.39 1.06.39 1.464 0l8.563-8.264a1.95 1.95 0 0 0 0-2.827L1.768.292A1.063 1.063 0 0 0 .314.282a.976.976 0 0 0-.011 1.425l7.894 7.617a.975.975 0 0 1 0 1.414L.366 18.295a.974.974 0 0 0 0 1.413" fill="#000" fill-rule="evenodd"/></symbol><symbol shape-rendering="geometricPrecision" text-rendering="geometricPrecision" image-rendering="optimizeQuality" fill-rule="evenodd" clip-rule="evenodd" viewBox="0 0 512 266.77" id="arrow-thin-chevron-bottom-icon" xmlns="http://www.w3.org/2000/svg"><path fill-rule="nonzero" d="M493.12 3.22c4.3-4.27 11.3-4.3 15.62-.04a10.85 10.85 0 0 1 .05 15.46L263.83 263.55c-4.3 4.28-11.3 4.3-15.63.05L3.21 18.64a10.85 10.85 0 0 1 .05-15.46c4.32-4.26 11.32-4.23 15.62.04L255.99 240.3 493.12 3.22z"/></symbol><symbol viewBox="0 0 256 256" id="basket" xmlns="http://www.w3.org/2000/svg"><path d="M136 120v56a8 8 0 0 1-16 0v-56a8 8 0 0 1 16 0Zm36.84-.8-5.6 56a8 8 0 0 0 7.16 8.8 7.32 7.32 0 0 0 .81 0 8 8 0 0 0 7.95-7.2l5.6-56a8 8 0 0 0-15.92-1.6Zm-89.68 0a8 8 0 0 0-15.92 1.6l5.6 56a8 8 0 0 0 8 7.2 7.32 7.32 0 0 0 .81 0 8 8 0 0 0 7.16-8.76Zm156.77-30.14-15.07 113.06A16.06 16.06 0 0 1 209 216H47a16.06 16.06 0 0 1-15.86-13.88L16.07 89.06A8 8 0 0 1 24 80h44.37L122 18.73a8 8 0 0 1 12 0L187.63 80H232a8 8 0 0 1 7.93 9.06ZM89.63 80h76.74L128 36.15Zm133.23 16H33.14L47 200h162Z"/></symbol><symbol fill="none" viewBox="0 0 44 44" id="caret-left" xmlns="http://www.w3.org/2000/svg"><path d="M28.473 34.777a1.374 1.374 0 0 1-.446 2.244 1.375 1.375 0 0 1-1.5-.298l-13.75-13.75a1.374 1.374 0 0 1 0-1.946l13.75-13.75a1.376 1.376 0 1 1 1.946 1.946L15.694 22l12.779 12.777Z" fill="#000"/></symbol><symbol fill="none" viewBox="0 0 44 44" id="caret-right" xmlns="http://www.w3.org/2000/svg"><path d="M15.527 9.223a1.374 1.374 0 0 1 .973-2.349 1.376 1.376 0 0 1 .973.403l13.75 13.75a1.374 1.374 0 0 1 0 1.946l-13.75 13.75a1.376 1.376 0 1 1-1.946-1.946L28.306 22 15.527 9.223Z" fill="#000"/></symbol><symbol fill="none" viewBox="0 0 40 40" id="facebook" xmlns="http://www.w3.org/2000/svg"><path d="M20 .5A19.5 19.5 0 1 0 39.5 20 19.521 19.521 0 0 0 20 .5Zm1.5 35.93V24.5H26a1.5 1.5 0 1 0 0-3h-4.5V17a3 3 0 0 1 3-3h3a1.5 1.5 0 1 0 0-3h-3a6 6 0 0 0-6 6v4.5H14a1.5 1.5 0 0 0 0 3h4.5v11.93a16.5 16.5 0 1 1 3 0Z" fill="#000"/></symbol><symbol fill="none" viewBox="0 0 44 41" id="instagram" xmlns="http://www.w3.org/2000/svg"><path d="M22.449 11.313c-1.962 0-3.88.538-5.51 1.548-1.632 1.01-2.903 2.444-3.654 4.123a8.56 8.56 0 0 0-.564 5.308c.383 1.783 1.327 3.42 2.714 4.704 1.388 1.285 3.155 2.16 5.079 2.515s3.918.172 5.73-.523c1.813-.695 3.362-1.873 4.452-3.384a8.714 8.714 0 0 0 1.671-5.104c-.003-2.436-1.048-4.771-2.908-6.494-1.86-1.722-4.38-2.691-7.01-2.694Zm0 15.312a6.992 6.992 0 0 1-3.674-1.032 6.252 6.252 0 0 1-2.435-2.75 5.707 5.707 0 0 1-.376-3.538 6 6 0 0 1 1.81-3.136 6.79 6.79 0 0 1 3.385-1.676 7.104 7.104 0 0 1 3.82.348 6.53 6.53 0 0 1 2.968 2.256A5.81 5.81 0 0 1 29.06 20.5c0 1.625-.697 3.182-1.937 4.331-1.24 1.149-2.921 1.794-4.675 1.794ZM32.367.594H12.53C9.462.597 6.521 1.727 4.352 3.737 2.182 5.747.962 8.47.959 11.312v18.376c.003 2.841 1.223 5.566 3.393 7.575 2.17 2.01 5.11 3.14 8.178 3.143h19.837c3.068-.003 6.01-1.133 8.179-3.143 2.17-2.01 3.39-4.734 3.393-7.575V11.313c-.004-2.842-1.224-5.567-3.393-7.576-2.17-2.01-5.11-3.14-8.179-3.143Zm8.266 29.093c0 2.031-.871 3.979-2.421 5.414-1.55 1.436-3.653 2.243-5.845 2.243H12.53c-2.192 0-4.294-.807-5.844-2.243-1.55-1.435-2.42-3.383-2.42-5.413V11.313c0-2.031.87-3.978 2.42-5.414 1.55-1.436 3.652-2.243 5.844-2.243h19.837c2.192 0 4.295.807 5.845 2.243 1.55 1.436 2.42 3.383 2.42 5.413v18.376Zm-4.96-19.14c0 .454-.145.898-.418 1.276-.272.378-.66.672-1.112.846-.453.174-.952.22-1.433.13a2.546 2.546 0 0 1-1.27-.628 2.25 2.25 0 0 1-.678-1.176 2.141 2.141 0 0 1 .14-1.327c.188-.42.506-.779.914-1.03a2.622 2.622 0 0 1 1.378-.388c.657 0 1.288.242 1.753.673.465.43.726 1.015.726 1.624Z" fill="#000"/></symbol><symbol fill="none" viewBox="0 0 219 118" id="logo.amor" xmlns="http://www.w3.org/2000/svg"><path d="M109.79 2.02c-.14 1.164-.093 1.5.165 1.241.07-.077.093-.672.046-1.267l-.07-1.137-.141 1.163Z" fill="#fff"/><path d="M94.382 11.794c.727.517 1.337 1.37 1.97 2.637.634 1.293.587 5.249-.093 8.584-.657 3.232-.704 6.93-.094 8.223.234.49 1.055 1.81 1.876 2.921 2.251 3.129 3.283 5.223 3.823 7.834.703 3.284.867 3.646.891 1.785.047-2.353.539-4.292 2.392-9.076 1.642-4.292 1.665-4.395 1.407-5.585-.375-1.861-1.524-4.266-3.189-6.696-.845-1.19-2.369-3.49-3.448-5.12-1.055-1.603-2.368-3.31-2.884-3.775-1.314-1.19-2.72-2.198-3.026-2.198-.14 0 .024.207.375.466ZM123.978 12.311c-1.641 1.19-3.189 2.973-4.409 5.094-.492.853-1.289 2.016-1.758 2.585-2.182 2.638-5.183 8.067-5.23 9.463-.024.647.563 2.328 1.899 5.611 1.361 3.31 2.064 5.352 2.322 6.852l.375 2.12.305-1.68c.375-2.069 1.571-4.758 3.119-6.982a146.53 146.53 0 0 0 2.181-3.232l.985-1.55v-2.716c0-1.835-.187-3.645-.563-5.662-.75-4.008-.633-6.697.352-8.48.375-.673 1.056-1.5 1.478-1.81.445-.337.68-.595.563-.595-.118 0-.845.44-1.619.982Z" fill="#832D54"/><path d="M102.122 18.827c0 .362.046.49.117.31a1.497 1.497 0 0 0 0-.646c-.071-.155-.117-.026-.117.336Z" fill="snow"/><path d="M74.94 19.344c-2.274.517-4.525 2.611-4.525 4.24 0 .88.75 2.25 1.078 1.913.094-.103.024-.361-.117-.568-.446-.595-.211-1.733.493-2.301 1.031-.854 2.908-.88 4.338-.104 2.556 1.448 4.503 4.887 6.754 11.945.094.285-.375-.594-1.055-1.939-.657-1.344-1.501-2.818-1.876-3.232-.68-.75-2.11-1.835-2.11-1.577 0 .078.421.672.937 1.319.54.672 1.22 1.81 1.572 2.534.586 1.318 2.58 4.731 3.635 6.257.281.413-.516-.414-1.806-1.836-2.697-3.051-3.917-3.853-5.465-3.646-.562.078-1.313.362-1.665.62-1.336 1.113-1.149 3.362.376 4.164.727.387.867.387 1.43.025.422-.258.633-.594.633-1.008 0-.569-.093-.646-.773-.569-.915.078-.939-.413-.024-.905 1.29-.75 3.518.44 6.191 3.284 1.923 2.043 3.73 3.62 4.151 3.62.07 0-.093-.491-.398-1.112-1.056-2.068-1.314-3.335-1.642-8.067-.352-4.86-.727-6.774-1.689-8.584-.68-1.293-2.274-2.974-3.517-3.646-.75-.44-3.354-1.163-3.8-1.06-.07.026-.586.13-1.125.233ZM141.708 19.447c-1.642.388-3.166 1.345-4.386 2.819-1.946 2.327-2.556 4.602-2.884 10.626-.235 4.37-.446 5.378-1.454 7.343l-.727 1.397.774-.44c.422-.233 1.852-1.577 3.166-2.947 3.002-3.155 5.042-4.293 6.519-3.672.915.388.821 1.008-.117.957-.938-.026-1.149.594-.445 1.37.68.75 1.524.672 2.368-.181.586-.569.727-.905.751-1.81 0-1.241-.329-1.784-1.384-2.301-1.97-.905-3.612-.103-6.59 3.206l-2.158 2.43 1.29-1.887c.704-1.034 1.712-2.818 2.252-3.956.539-1.138 1.383-2.611 1.899-3.31 1.009-1.344.962-1.5-.187-.646-.845.646-2.346 3.025-3.096 4.913-.61 1.525-.891 1.629-.352.129 2.275-6.386 2.908-7.68 4.784-9.618 1.877-1.94 3.424-2.38 5.371-1.526 1.36.595 1.806 1.707 1.032 2.56-.493.543-.282.776.352.414 1.078-.647.914-2.353-.329-3.879-1.454-1.784-4.01-2.56-6.449-1.99Z" fill="#680440"/><path d="M108.899 20.197c-.235.75-.399.93-1.079 1.008-.445.052-.821 0-.821-.129 0-.13-.328-.18-.703-.13-.399.078-.774.027-.844-.103-.071-.103-.352-.206-.634-.206-.305 0-.774-.181-1.055-.414-.493-.362-.516-.362-.446.103.047.285.61 1.396 1.29 2.457 1.243 1.99 2.627 4.938 2.627 5.584 0 1.63 1.29-3.257 1.876-7.058.281-1.965.188-2.482-.211-1.112ZM110.306 20.275c0 .284.071.362.141.155.07-.181.047-.414-.023-.491-.071-.104-.141.051-.118.336ZM115.841 20.249c-.188.207-.399.284-.493.207-.07-.104-.141-.026-.141.155 0 .18-.093.258-.211.18-.117-.077-.328.027-.492.233-.164.233-.68.388-1.196.388-.516 0-.915.104-.915.259 0 .13-.164.18-.352.103-.211-.103-.351 0-.375.181 0 .207-.094.13-.211-.155-.188-.491-.211-.491-.399.13l-.164.646-.187-.776c-.282-1.319.023 1.629.422 3.878.563 3.077.61 3.103 1.688.75.516-1.111 1.525-2.896 2.252-3.93.727-1.06 1.313-2.068 1.313-2.275 0-.465-.117-.465-.539.026Zm-.774.853c.07.13-.024.233-.211.233-.188 0-.282-.104-.211-.233.07-.103.164-.207.211-.207.047 0 .14.104.211.207Z" fill="#fff"/><path d="M109.509 23.403c-.281 2.508-.985 4.913-2.65 9.179-3.025 7.68-3.213 8.3-3.33 11.35-.164 4.319.774 6.956 3.564 9.93 1.29 1.37 2.135 2.792 2.627 4.395.141.491.164.465.328-.13.376-1.447 1.103-2.56 3.049-4.653 2.744-2.974 3.166-4.06 3.143-8.404 0-3.697-.188-4.343-3.213-11.376-2.017-4.732-2.556-6.464-3.072-9.955l-.282-1.939-.164 1.603Z" fill="url(#ha)"/><path d="M85.236 23.196c1.501.647 2.416 1.422 3.19 2.69 1.172 1.913 1.477 3.309 1.688 7.937.164 3.465.305 4.654.797 6.335 1.314 4.524 2.58 5.766 9.967 9.8 1.736.93 3.284 1.835 3.448 1.99.469.414.399.207-.235-1.086-.562-1.112-2.04-5.766-2.837-8.894-.587-2.302-1.243-3.543-3.94-7.447-1.36-1.965-2.861-4.292-3.307-5.197-1.15-2.275-2.697-4.06-4.315-5.016-1.501-.879-3.705-1.603-4.855-1.603-.656.026-.633.052.4.491ZM132.703 22.99c-1.618.413-3.87 1.784-5.019 3.05-.61.673-1.571 2.069-2.11 3.077-.54 1.009-2.064 3.387-3.354 5.275-1.313 1.887-2.72 4.24-3.143 5.249-.727 1.68-2.228 7.42-2.228 8.48 0 .233-.304 1.19-.68 2.12l-.68 1.655.845-.594c.469-.337 2.532-1.578 4.596-2.767 4.362-2.508 5.887-3.904 6.942-6.257 1.032-2.379 1.384-4.266 1.618-8.972.235-4.499.516-5.843 1.571-7.55.704-1.112 2.158-2.224 3.495-2.689l.938-.336-.938.026c-.516 0-1.337.103-1.853.232Z" fill="#651240"/><path d="M77.614 39.9c-1.125.413-1.477.775-.516.465 1.806-.543 3.518.078 5.3 1.913 1.689 1.733 2.698 3.465 4.738 8.17 2.157 4.94 3.4 7.06 5.37 9.128 4.151 4.37 8.982 5.998 13.415 4.499.844-.285 1.594-.647 1.665-.776a.474.474 0 0 1 .375-.258c.422 0-.258 1.034-1.923 2.973-2.72 3.129-6.05 4.732-10.413 4.964-2.743.156-4.385-.155-6.66-1.215-2.228-1.06-4.174-4.085-3.4-5.275.562-.904.422-2.378-.282-2.973-.82-.724-1.618-.672-2.322.103-.727.776-.774 2.328-.117 3.724.61 1.318 2.744 3.387 4.667 4.525.844.517 1.43.93 1.266.93-.539 0-4.455-1.629-5.651-2.378-1.853-1.164-3.917-3.388-4.644-5.016-1.079-2.43-1.008-5.792.164-7.447.399-.569.657-.672 1.618-.672.962 0 1.22.103 1.642.698.328.465.469.93.399 1.37l-.118.647.423-.595c.422-.543.375-1.5-.094-2.327-.282-.517-1.783-1.086-2.838-1.086-4.48 0-6.637 6.67-3.588 11.118 1.5 2.146 1.524 2.25.54 1.37-2.135-1.835-3.096-3.62-3.33-6.127-.259-2.87 1.453-6.258 3.798-7.421 2.346-1.19 5.418-.078 6.567 2.353.445.956.633.982.445.052-.445-1.965-1.9-3.879-3.846-4.99-.914-.544-1.383-.621-3.635-.621-2.509 0-2.626.026-4.104.93-1.337.802-1.618 1.112-2.275 2.535-.89 1.887-1.008 3.464-.422 6.49.422 2.249.798 3.076 2.205 4.912l1.079 1.396-.821-.491c-.446-.284-1.665-1.448-2.72-2.612-1.502-1.628-2.111-2.56-2.885-4.266-1.056-2.353-1.525-4.654-1.29-6.309.211-1.551 1.923-5.016 3.142-6.334 1.22-1.37 3.237-2.224 4.503-1.94 1.102.259 2.463 1.293 2.885 2.224.21.44.445.724.516.672.305-.362-.54-2.068-1.595-3.258-3.26-3.645-8.49-4.162-11.679-1.163-1.477 1.396-2.158 3.077-2.181 5.378-.023 3.258 1.008 6.128 3.588 9.98l1.454 2.198-3.377-3.646c-2.861-3.05-3.682-3.8-5.23-4.628-1.618-.879-2.04-1.008-3.517-1.034-1.431 0-1.9.13-3.073.776-1.618.93-2.228 1.965-2.228 3.826 0 2.457 1.478 4.318 3.424 4.318 1.126 0 2.04-.853 2.04-1.913 0-1.19-.984-1.887-1.641-1.164-.328.362-.586-.077-.399-.646.235-.698 1.384-1.19 2.744-1.19 3.002 0 5.84 1.681 10.46 6.18 1.454 1.448 3.775 3.413 5.136 4.422 1.36.982 2.392 1.81 2.345 1.81-.07 0-.938-.414-1.923-.905-4.972-2.508-9.733-3.698-15.736-3.982-5.652-.285-7.552-1.009-8.959-3.465-.54-.957-1.032-3.31-1.102-5.404-.024-.905-.164-.775-1.079 1.19-.633 1.396-.75 1.887-.657 2.87.07.646.118 1.163.094 1.163-.023 0-.469-.233-.985-.491-1.782-.957-3.87-1.422-6.426-1.422-2.11-.026-2.626.051-3.54.569-2.088 1.137-3.495 3.36-3.495 5.61 0 1.164.938 3 1.852 3.672 1.337.982 3.213.672 3.753-.62.774-1.837-.422-3.491-2.322-3.181-.399.052 2.533-2.146 3.8-2.87 2.297-1.293 5.745-.776 10.271 1.577 1.618.828 3.166 1.577 3.471 1.68.446.13.07.363-1.806 1.035-2.79 1.06-4.362 1.888-7.903 4.292-3.541 2.405-4.76 2.87-7.833 3.025-3.354.155-4.034-.103-6.12-2.197-.962-.957-1.572-1.526-1.361-1.242.656.88.985 1.759 1.313 3.465.61 3.258 1.994 4.55 4.644 4.37 1.782-.13 3.588-1.06 6.707-3.439 2.345-1.784 2.064-1.474-1.313 1.422-2.299 1.991-4.738 3.439-6.614 3.904-1.196.31-1.454.285-5.065-.465-.352-.078-1.15 0-1.736.207l-1.079.336.915.336c.492.181 1.22.698 1.618 1.112 1.43 1.5 2.674 1.551 5.136.207.75-.414 1.407-.699 1.478-.647.047.078-.47.517-1.15 1.009-4.76 3.49-9.756 4.654-13.015 3.05-2.838-1.37-4.198-4.317-2.815-6.101.657-.828 1.83-.931 2.533-.207.75.75.422 1.913-.54 1.913-.515 0-.539-.233-.023-.646.235-.181.329-.492.235-.75-.235-.647-1.15-.414-1.548.414-.492.956 0 1.913 1.15 2.3 2.133.699 3.94-2.171 2.978-4.73-.704-1.862-2.955-3-4.878-2.457-2.768.775-4.104 4.757-2.697 8.067 1.125 2.689 3.025 3.775 6.941 3.956 3.33.155 5.652-.414 8.795-2.12 1.852-1.009 3.002-1.81 6.496-4.5 1.173-.904-1.595 1.888-3.096 3.13-1.829 1.525-7.48 4.653-10.084 5.636-2.064.75-2.392.801-4.573.672-1.642-.078-2.931-.336-4.339-.827-2.814-1.009-5.042-1.009-6.8-.026-1.572.879-2.205 1.5-2.98 2.947-.726 1.345-.796 2.741-.21 3.362.258.232.375.284.281.103-.258-.491.493-1.603 1.384-2.017 1.243-.569 2.11-.44 4.057.57 4.104 2.12 7.153 1.318 14.54-3.724 2.791-1.913 6.38-4.06 6.38-3.827 0 .052-1.29 1.034-2.862 2.146-3.166 2.276-5.16 4.111-5.77 5.352-.28.57-.421 1.681-.515 3.776-.14 3.412-.492 4.266-2.11 5.093-.517.259-.939.543-.939.646-.023.88 3.73-1.473 5.324-3.335.563-.62 1.407-2.094 1.923-3.258.492-1.163 1.22-2.87 1.642-3.8.938-2.224 4.104-6.18 10.53-13.187 2.79-3.051 4.338-4.628 3.423-3.49-1.9 2.352-3.494 4.912-5.16 8.273-.867 1.733-1.735 2.974-3.47 4.939-2.72 3.102-3.541 4.37-4.034 6.283-.774 2.895-.07 5.248 1.665 5.61 1.595.31 3.002-1.292 2.486-2.818-.305-.879-.774-1.086-1.454-.698-.445.284-.586.259-.844-.155-.399-.595-.375-2.379.023-3.206.211-.414 1.173-1.112 2.627-1.94 3.049-1.706 3.213-1.99 5.98-9.799 1.76-4.964 3.26-7.214 7.458-11.299 3.12-3.025 3.682-3.361 7.763-4.55 3.916-1.164 10.834-1.06 13.438.206.445.207.422.233-.188.104-1.712-.362-7.645-.44-9.522-.13-6.566 1.035-12.077 4.758-15.29 10.265-3.917 6.671-5.09 11.765-5.558 23.969-.282 7.058-.47 8.48-1.243 9.566-.633.879-2.345 1.216-3.072.595-.587-.491-.329-1.215.445-1.215.704 0 .727-.259.14-1.06-.304-.414-.68-.595-1.289-.595-2.181 0-3.4 3.827-2.11 6.593.468 1.035 1.875 2.25 2.79 2.457l.82.155-.492.698c-.258.362-.75.801-1.102.982l-.633.311h.586c.915.026 3.448-.698 4.433-1.241 1.454-.828 3.236-3.181 3.682-4.887.445-1.681.328-5.611-.258-8.714-.54-2.818-.376-2.87.234-.077.962 4.292 2.392 6.567 4.878 7.86.985.491 1.595.621 3.213.621 3.236-.026 4.808-1.061 6.238-4.215.985-2.146 2.463-3.982 3.471-4.292l.727-.233-.68-.026c-.375-.025-1.243.362-1.993.854-1.783 1.215-3.94 1.784-5.98 1.629-1.337-.104-1.994-.337-3.823-1.345-3.752-2.094-5.582-4.913-6.285-9.696-.446-3.077-.446-4.86-.024-7.317.352-2.043 1.454-5.326 2.298-6.904.845-1.577 2.088-3.62 2.181-3.62.047 0-.21.724-.586 1.604-1.477 3.49-2.18 8.584-1.665 11.997.586 3.645 2.181 6.18 4.784 7.498 1.243.646 1.76.75 3.448.75 2.908 0 4.69-.957 5.675-3.051.868-1.888.54-4.939-.703-6.49-.212-.259-.821-.698-1.337-.957-3.143-1.603-6.567 1.034-5.746 4.37.305 1.293.891 1.862 2.087 2.043.727.103 1.08.025 1.43-.31.634-.621.61-1.81-.046-2.302-.61-.491-1.36-.13-1.36.646 0 .699-.563.492-.657-.258-.117-.88.375-1.319 1.501-1.319 1.313 0 1.97.724 1.97 2.12 0 1.37-.516 2.12-1.923 2.793-1.43.672-2.603.569-4.08-.388-1.337-.853-2.299-2.146-2.932-3.93-.47-1.319-.54-1.94-.54-4.99 0-3.103.07-3.724.634-5.56 1.594-5.326 5.628-9.928 10.342-11.893 3.658-1.525 10.155-1.94 14.329-.957l2.11.517-2.579-.155c-3.87-.18-5.113.052-6.285 1.19-.915.905-2.275 2.999-2.275 3.49 0 .13.328-.077.727-.44.82-.775 1.126-.853 3.377-1.008a9.613 9.613 0 0 0 3.166-.827c1.923-.88 3.588-1.06 6.496-.672 2.205.31 8.138 1.81 7.95 2.042-.046.052-1.29-.103-2.767-.336-3.518-.594-7.34-.44-8.959.336-2.157 1.06-3.94 3.103-4.55 5.223-.398 1.37-.515 2.922-.304 3.775l.211.75.023-.93c.024-.492.305-1.552.68-2.328.821-1.784 2.182-2.689 4.55-2.922.891-.103 2.65-.594 3.917-1.06 3.33-1.267 5.769-1.603 8.747-1.215 8.115 1.06 14.54 1.06 17.894-.052 2.955-.956 5.253-2.3 7.012-4.059 1.876-1.888 2.861-3.568 3.659-6.231.586-1.94.609-2.198.351-3.361-.82-3.388-2.743-5.301-8.302-8.274-2.134-1.138-5.886-3.413-8.348-5.068-8.373-5.61-12.031-7.033-14.963-5.87ZM31.531 63.092c-.164.181-.281.543-.281.854 0 .827.469 1.163 1.571 1.163 1.126 0 1.29.31.446.905-1.009.724-2.345-.259-2.299-1.706.024-.725.4-1.526.704-1.526.07 0 .023.13-.14.31Zm9.1 6.749c0 .051-.235.31-.516.594l-.54.492.446-.595c.422-.543.61-.698.61-.491Zm-4.222 4.912c0 .052-.234.31-.516.595l-.539.491.446-.594c.422-.543.61-.699.61-.492Zm.165 25.055c-.07.207-.141.129-.141-.156-.024-.284.047-.439.117-.336.07.078.094.31.024.492Z" fill="url(#hb)"/><path d="M136.432 40.235c-2.181.88-4.034 1.94-9.029 5.25-1.994 1.292-5.652 3.516-8.091 4.938-6.074 3.464-7.763 5.067-8.795 8.325-.539 1.784-.328 3.129.962 5.844 2.087 4.447 6.097 7.42 11.702 8.687 1.665.362 2.768.414 6.778.285 2.627-.078 6.262-.362 8.067-.595 4.034-.569 6.168-.336 9.756 1.034 1.337.517 3.119 1.009 3.987 1.086 1.595.181 3.354.957 4.057 1.836.587.724 1.361 2.689 1.361 3.542 0 .414.07.698.14.595.071-.078.141-.905.118-1.836 0-1.861-.516-3.465-1.572-4.99-.844-1.215-2.837-2.612-4.338-3.051-1.665-.491-5.324-.491-7.974.026-1.149.207-2.228.362-2.369.31-.422-.155 4.104-1.422 6.614-1.888 3.424-.594 4.948-.517 7.27.414 1.243.492 2.72.88 3.94.983 1.688.18 2.017.284 2.626.93.376.414.751.673.821.621.258-.284-1.477-2.973-2.392-3.749-1.219-1.034-2.626-1.267-6.144-1.06-2.463.155-2.463.155-1.196-.207 5.441-1.5 12.546-.776 16.932 1.732 4.01 2.302 7.153 6.335 8.536 10.938.61 2.094.681 2.663.681 5.688-.024 2.896-.094 3.568-.563 4.86-1.149 3.181-3.964 5.224-6.285 4.577-1.501-.413-2.346-1.138-2.674-2.301-.328-1.241.07-2.301 1.032-2.818 1.196-.62 2.697.44 2.275 1.629-.164.49-.211.465-.446-.207-.305-.828-1.149-.957-1.735-.233-.516.62-.493.88.094 1.707.351.517.68.672 1.336.672 1.478-.026 2.392-1.215 2.392-3.129 0-2.947-3.048-4.731-5.745-3.361-2.603 1.293-3.424 4.86-1.806 7.783.469.879.985 1.344 2.04 1.939 1.243.672 1.665.776 3.401.776 1.712 0 2.181-.104 3.306-.724 1.478-.776 3.19-2.664 3.94-4.267 1.736-3.749 1.454-9.928-.656-15.203-.657-1.603-.68-1.707-.164-1.06.844 1.163 2.345 4.24 3.119 6.516.938 2.689 1.336 5.533 1.172 8.248-.398 6.127-2.486 9.954-6.73 12.281-3.354 1.836-6.356 1.707-9.71-.362-.82-.491-1.665-.905-1.923-.905-.304 0-.211.13.329.44 1.008.543 2.087 2.042 3.213 4.421 1.383 2.948 3.001 3.982 6.261 3.982 4.222 0 7.012-3.154 8.068-9.179.61-3.413.68-2.508.094 1.164-.704 4.318-.727 7.188-.047 8.817.703 1.758 1.782 3.18 3.025 3.981 1.196.776 3.799 1.629 4.878 1.629l.703-.026-.75-.362c-.61-.284-1.243-1.034-1.243-1.499 0-.052.422-.233.915-.414 1.806-.569 2.931-2.792 2.79-5.378-.117-1.913-.656-2.87-1.923-3.413-.797-.336-.914-.31-1.5.155-.892.724-.939 1.319-.141 1.422.774.104.961.517.445 1.086-.539.569-1.899.517-2.72-.129-1.126-.879-1.384-2.405-1.618-9.67-.352-10.782-1.056-14.79-3.659-20.685-1.477-3.361-3.635-6.464-5.886-8.532-1.9-1.707-5.488-3.724-8.396-4.68-1.97-.672-2.415-.724-6.566-.724-2.439-.026-4.972.052-5.629.155l-1.172.18 1.031-.361c1.877-.672 5.887-1.215 7.763-1.034 3.658.362 7.387 1.422 9.803 2.792 1.782 1.008 6.59 5.921 8.161 8.352 1.337 2.068 2.017 3.594 3.166 7.136 1.806 5.559 2.908 7.317 5.183 8.274.797.336 1.853 1.008 2.345 1.525.774.802.891 1.086.891 2.094 0 .621-.14 1.345-.305 1.604-.257.387-.398.413-.938.129-.562-.285-.703-.259-1.031.103-.235.233-.399.828-.399 1.319 0 2.482 3.142 2.948 4.221.62.282-.62.352-1.24.258-2.456-.164-2.404-1.055-4.189-3.471-6.826-2.509-2.766-2.814-3.232-4.901-7.214-2.158-4.11-2.955-5.326-5.253-8.015-1.032-1.215.75.698 3.986 4.266 8.021 8.869 9.452 10.705 10.906 14.092 2.04 4.731 2.415 5.455 3.377 6.516 1.008 1.111 4.221 3.309 4.807 3.283.258 0 .258-.077-.094-.31-2.087-1.448-2.79-3.103-2.556-6.102.164-2.301-.375-3.646-2.228-5.404-1.243-1.19-4.854-3.956-6.097-4.68-.305-.18-.516-.388-.446-.44.211-.232 3.706 1.862 6.379 3.776 6.543 4.705 10.249 5.61 14.188 3.516 1.877-1.008 2.838-1.138 4.105-.569.914.44 1.665 1.707 1.219 2.198-.141.155-.188.284-.117.284.422 0 .891-.905.891-1.706 0-1.836-1.337-3.853-3.354-5.042-1.97-1.164-4.033-1.19-6.965-.13-1.43.518-2.673.75-4.338.854-2.205.13-2.486.077-4.574-.698-4.502-1.707-9.685-4.939-12.429-7.783-1.384-1.422-1.22-1.344 1.993 1.06 2.791 2.094 5.465 3.49 7.88 4.163 2.721.776 6.567.62 8.443-.336 2.462-1.241 3.611-3.18 3.611-6.025 0-2.12-.586-3.516-1.876-4.498-1.876-1.397-3.822-1.19-5.441.62-.938 1.034-1.008 1.19-1.008 2.534 0 1.241.094 1.577.704 2.327 1.407 1.784 3.752 1.241 3.752-.827 0-.543-.704-1.32-1.22-1.32-.609 0-.68.725-.14 1.139.469.362.469.413.07.568-.516.233-1.149-.18-1.243-.775-.234-1.293 2.04-1.991 3.002-.931.703.776.633 2.715-.094 3.904-2.157 3.465-6.942 3.956-12.265 1.241-1.665-.827-4.761-2.947-4.761-3.232 0-.051.774.336 1.712.853 2.322 1.345 3.424 1.345 4.878.026.586-.543 1.431-1.137 1.853-1.344l.797-.362-1.032-.31c-.868-.259-1.383-.233-2.978.129-2.439.569-3.799.388-6.121-.776-1.665-.853-5.675-3.982-6.543-5.12l-.422-.568.586.543c1.173 1.112 4.268 3.18 5.535 3.697 1.641.698 3.189.698 4.455 0 .798-.413 1.15-.827 1.595-1.861.329-.75.657-1.81.751-2.38.164-1.137.656-2.326 1.219-3.05.798-.983-.023-.362-.938.75-.539.646-1.454 1.474-2.04 1.861-1.032.673-1.243.698-4.128.698h-3.049l-2.087-1.111c-1.125-.595-3.025-1.759-4.221-2.56-2.65-1.81-5.066-3.025-7.505-3.8l-1.852-.596.914-.336c.493-.18 2.134-.956 3.635-1.706 3.8-1.965 6.59-2.56 8.748-1.888.516.156 1.665.802 2.58 1.422.914.647 2.063 1.345 2.532 1.578.54.258.938.672 1.079 1.111.516 1.578-1.032 3.31-2.204 2.457-.774-.57-.704-.853.234-.853 1.079 0 1.783-.466 1.783-1.164 0-.88-.446-1.215-1.525-1.215-1.923 0-2.673 2.12-1.313 3.645 1.712 1.862 4.643.13 5.089-2.999.305-2.379-.938-4.81-3.072-5.947-2.369-1.293-5.465-1.163-9.616.388l-1.876.698.071-1.577c.047-1.422-.024-1.707-.774-3l-.821-1.421v1.215c0 .672-.094 1.267-.211 1.344-.094.078-.188.595-.188 1.112 0 2.146-1.594 4.24-3.987 5.249-1.149.491-2.063.62-5.816.802-2.439.103-5.018.31-5.698.465-3.26.724-6.708 1.94-9.756 3.49-2.111 1.06-2.604 1.06-.915 0 1.923-1.24 4.339-3.232 6.074-5.041 1.97-2.043 4.737-4.344 6.074-5.094 3.307-1.836 7.387-1.707 7.387.233 0 .387-.093.413-.727.155-.633-.285-.75-.259-1.055.18-.704 1.087-.023 2.819 1.22 3.078 1.407.284 3.236-1.009 3.822-2.741 1.384-3.982-2.439-7.291-6.895-5.999-2.11.62-4.151 2.198-7.246 5.663-2.979 3.31-3.073 3.361-1.243.698 1.407-2.095 2.064-3.49 2.72-5.818.985-3.542.516-6.619-1.383-8.713-2.955-3.258-8.138-3.051-11.75.491-1.102 1.086-1.853 2.456-1.853 3.335 0 .31.141.181.399-.387.539-1.241 2.181-2.224 3.659-2.172 1.618.026 3.517 1.112 4.432 2.482 1.149 1.732 2.251 4.085 2.509 5.275.798 3.956-2.368 10.549-6.379 13.264l-1.219.827 1.008-1.215c1.361-1.63 2.064-3.44 2.416-6.128.539-4.06-.446-6.568-3.19-8.119-1.266-.724-1.547-.776-3.846-.776-2.157 0-2.626.078-3.541.595-1.501.853-2.931 2.508-3.518 3.982-.609 1.577-.492 1.81.258.517.352-.595 1.032-1.215 1.853-1.68 1.079-.621 1.501-.724 2.603-.621 2.252.207 4.01 1.577 5.16 4.06.445.93.562 1.577.562 3.231 0 2.612-.68 4.137-2.626 6.05-1.595 1.526-2.181 1.759-.985.337 1.126-1.293 1.501-2.043 1.946-3.672.469-1.758.469-2.715 0-4.344-.774-2.611-2.579-4.188-4.831-4.188-2.204 0-3.705 1.654-3.002 3.31l.305.697.164-.982c.212-1.215.774-1.707 2.064-1.733 2.298 0 3.26 3.13 2.158 7.085-.915 3.232-4.104 6.154-8.443 7.68-2.392.852-3.189.956-1.712.232 3.213-1.577 5.933-4.628 5.933-6.67 0-2.199-1.758-3.414-3.025-2.095-.469.491-.516.724-.375 1.758.399 3.154-.024 4.214-2.181 5.74-2.275 1.577-3.401 1.887-6.848 1.913-2.697 0-3.401-.077-4.784-.594-3.448-1.267-5.863-3.077-7.646-5.714-1.102-1.604-1.196-2.069-.281-1.37 1.008.8 3.025 1.344 4.995 1.344 4.62 0 9.193-3.077 12.453-8.352.54-.853 1.689-3.232 2.58-5.249.868-2.042 1.97-4.395 2.415-5.222 2.182-4.111 5.09-6.128 7.74-5.404l.703.18-.68-.413c-.352-.233-1.407-.465-2.345-.517-1.407-.104-1.97 0-3.541.62Zm17.401 25.029c-.07.078-.282.103-.446.026-.187-.078-.117-.155.141-.155.258-.026.399.051.305.129Zm26.594 5.714c.305.414.282.44-.07.104-.235-.181-.422-.388-.422-.44 0-.207.187-.078.492.336Zm1.853 2.793c.305.361.493.646.422.646-.047 0-.352-.285-.656-.647-.305-.361-.493-.646-.423-.646.047 0 .352.285.657.647Zm.868 25.52c-.071.206-.141.129-.141-.156-.023-.284.047-.44.117-.336.071.078.094.31.024.491Z" fill="url(#hc)"/><path d="M80.405 81.993c-.281 1.24-7.669 19.935-8.044 20.426-.234.258-.703.672-1.079.853-.351.207-.586.491-.516.621.094.155 1.407.258 2.955.258 2.322 0 2.791-.077 2.791-.388 0-.232-.211-.388-.54-.388-.726 0-1.57-.698-1.57-1.292 0-.259.422-1.603.938-3 .515-1.396.938-2.56.938-2.611 0-.052 1.665-.078 3.728-.078 2.697 0 3.776.078 3.94.31.258.363 1.43 3.543 1.736 4.706.281 1.06-.258 1.965-1.196 1.965-.47 0-.704.13-.704.388 0 .336.915.388 6.801.388 5.887 0 6.801-.052 6.801-.388 0-.258-.234-.388-.703-.388-.446 0-.938-.232-1.29-.646l-.586-.62v-8.326c0-4.577.046-8.274.093-8.222.047.051 1.595 3.826 3.4 8.377 1.83 4.55 3.401 8.455 3.519 8.662.093.207.375.388.633.388.445 0 .61-.414 5.277-12.282l2.087-5.3-.047 8.454c-.071 9.438-.024 9.179-1.736 9.49-.492.077-.914.31-.985.491-.07.233.845.31 4.034.31 3.518 0 4.128-.052 4.128-.388 0-.258-.235-.388-.68-.388-.376 0-.915-.232-1.22-.491l-.563-.491v-9.438c0-7.368.071-9.489.305-9.825.164-.207.727-.465 1.243-.569.563-.103.915-.31.915-.543 0-.284-.516-.362-2.674-.362h-2.65l-1.571 3.93c-.868 2.172-2.322 5.896-3.26 8.275-.915 2.404-1.735 4.343-1.806 4.343-.07 0-1.595-3.697-3.4-8.222l-3.284-8.196-2.767-.078c-2.345-.052-2.744 0-2.744.336 0 .233.211.388.586.388.329 0 .868.285 1.173.647l.586.62v18.41l-.586.62c-.657.75-1.665.853-2.697.259-.891-.518-1.383-1.707-6.8-16.367-1.478-4.008-2.041-5.223-2.346-5.223-.235 0-.47.258-.563.595Zm1.454 8.661c.797 2.25 1.454 4.189 1.454 4.267 0 .103-1.43.18-3.19.18-2.954 0-3.189-.025-3.025-.465.892-2.611 3.05-8.067 3.166-8.067.094 0 .821 1.836 1.595 4.085ZM121.868 81.993c-4.127 1.732-6.426 5.688-6.426 11.066 0 6.128 3.166 10.472 8.326 11.402 3.26.595 6.496-.62 8.724-3.257 2.228-2.663 3.025-5.3 2.838-9.412-.118-2.094-.235-2.637-.985-4.292-1.056-2.405-3.049-4.499-4.996-5.352-2.063-.88-5.558-.957-7.481-.155Zm6.496 1.5c2.252 1.37 3.495 4.291 3.659 8.635.164 4.111-.727 7.731-2.322 9.36-.915.957-2.767 1.707-4.174 1.707-2.041.025-3.26-.492-4.48-1.862-1.501-1.655-2.11-3.516-2.251-7.033-.305-6.464 1.384-10.342 4.972-11.376 1.266-.363 3.518-.078 4.596.568Z" fill="#000"/><path d="M134.907 82.07c0 .155.375.362.844.44 1.806.336 1.736-.104 1.736 10.42v9.385l-.61.517c-.352.311-.938.543-1.29.543-.445 0-.68.13-.68.388 0 .336.61.388 4.104.388 3.495 0 4.104-.052 4.104-.388 0-.258-.234-.388-.703-.388-.446 0-.938-.232-1.29-.646-.563-.62-.586-.724-.586-4.757 0-2.508.093-4.19.234-4.292.586-.388 1.313.413 3.917 4.317 1.524 2.302 3.119 4.629 3.564 5.172l.798 1.008 2.251-.078c1.782-.051 2.251-.155 2.251-.465 0-.207-.328-.44-.773-.543-1.079-.233-1.994-1.267-4.996-5.585-1.407-2.017-2.65-3.723-2.79-3.826-.376-.26-.047-.647.539-.647.703-.026 2.509-.93 3.166-1.629.938-.956 1.454-2.353 1.454-3.904 0-3.077-1.36-4.654-4.573-5.3-2.111-.414-10.671-.518-10.671-.13Zm9.662 1.396c1.83.57 2.932 3.155 2.322 5.456-.586 2.146-2.087 3.232-4.854 3.516l-1.501.156v-4.422c0-3.93.047-4.447.422-4.68.516-.336 2.509-.362 3.611-.026ZM78.623 109.322c0 .13.14.259.328.259.516 0 .61.595.61 3.646 0 2.43-.07 2.895-.446 3.309-.445.491-.422.491 1.056.595 1.548.077 1.853-.078 1.032-.569-.376-.233-.47-.543-.47-1.681v-1.422h1.056c.774 0 1.055.104 1.055.362 0 .207.118.466.235.543.14.104.234-.388.234-1.267 0-1.422-.305-1.939-.539-.93-.094.413-.328.517-1.079.517h-.961V109.839h1.22c1.055 0 1.29.104 1.758.699l.516.724.023-1.112v-1.086h-2.814c-1.712 0-2.814.103-2.814.258ZM86.596 109.271c0 .103.211.336.47.517.421.284.468.595.468 3.413 0 2.818-.047 3.103-.469 3.361-.258.155-.469.362-.469.466 0 .103 1.173.181 2.627.181h2.626l.329-.983c.469-1.293.187-1.5-.61-.465-.563.75-.75.827-1.689.75l-1.055-.078-.07-3.154c-.047-2.948-.024-3.181.422-3.491.797-.543.54-.724-1.055-.724-.845 0-1.525.078-1.525.207ZM97.033 109.426c-1.572.75-2.416 2.663-2.158 4.809.234 1.965 2.017 3.542 3.752 3.284 1.243-.181 2.041-.854 2.697-2.276 1.032-2.146.282-4.705-1.688-5.688-1.126-.569-1.642-.595-2.603-.129Zm2.11.569c1.009.439 1.454 4.162.704 5.791-.61 1.293-2.205 1.397-3.002.207-.915-1.344-.492-5.507.586-5.973.446-.206 1.267-.206 1.712-.025ZM136.385 109.245c-.891.181-1.712 1.241-1.712 2.223 0 1.241.633 1.991 2.368 2.767 1.314.569 1.501.75 1.572 1.422.211 1.965-2.486 1.862-3.237-.129-.445-1.164-.703-.931-.703.646 0 1.267.281 1.888.516 1.138.07-.233.211-.233.586 0 .282.155 1.032.284 1.665.284 1.501 0 2.392-.879 2.392-2.301 0-1.293-.516-1.991-1.829-2.456-1.548-.569-2.158-1.086-2.158-1.862 0-1.5 2.158-1.396 2.862.129.586 1.293.656 1.267.656-.362 0-1.163-.07-1.448-.281-1.215a.52.52 0 0 1-.633.078c-.563-.311-1.478-.466-2.064-.362ZM103.552 109.658c-.047.104.047.259.258.337.352.155.891 1.499 1.993 5.016.375 1.215.821 2.197.962 2.197.164 0 .586-.93.961-2.068.376-1.138.751-2.25.821-2.456.07-.233.446.594.915 1.965.867 2.715 1.008 2.999 1.29 2.818.117-.078.656-1.655 1.196-3.516.562-1.965 1.172-3.594 1.454-3.879.492-.491.469-.491-.798-.491-1.102.026-1.219.052-.844.362.516.439.516.698-.211 3.103l-.633 2.042-.821-2.379c-.797-2.301-.797-2.378-.375-2.74.398-.336.281-.362-1.126-.388h-1.571l.563.646c.328.336.586.879.586 1.216 0 .568-.704 2.87-.962 3.18-.07.077-.469-.879-.867-2.095-.68-2.094-.704-2.275-.352-2.585.352-.259.187-.31-.962-.388-.75-.052-1.407-.026-1.477.103ZM118.139 109.607c-1.852.077-2.626.207-2.275.336.493.207.516.336.516 3.542 0 2.741-.07 3.387-.351 3.491-.938.413-.094.62 2.368.62h2.697l.352-.931c.446-1.189.258-1.396-.469-.543-.493.595-.774.699-1.9.699h-1.289V113.718h1.031c.845 0 1.079.103 1.196.517.282.957.587.543.587-.776 0-1.215-.282-1.706-.54-.931-.14.388-1.383.724-1.923.518-.258-.104-.351-.543-.351-1.422v-1.267h1.266c1.032 0 1.313.103 1.618.568.469.802.727.44.493-.62l-.211-.853-2.815.155ZM124.823 109.839c0 .13.164.259.351.259.305 0 .352.543.352 3.335 0 3.155-.023 3.336-.516 3.724-.516.388-.445.413 1.337.413l1.876.026-.656-.594c-.563-.492-.657-.724-.587-1.578.047-.568.188-1.06.329-1.111.164-.052.773.672 1.407 1.603 1.102 1.654 1.125 1.68 2.251 1.68 1.266 0 1.36-.103.563-.569-.844-.491-2.65-3.128-2.251-3.257.633-.233 1.407-1.345 1.407-1.991 0-1.009-.376-1.603-1.196-1.914-.939-.362-4.667-.388-4.667-.026Zm3.94.828c.398.439.351 1.758-.118 2.327-.211.258-.68.465-1.055.465-.633 0-.657-.026-.657-1.37 0-.776.071-1.474.164-1.551.258-.285 1.361-.207 1.666.129Z" fill="#000"/><defs><linearGradient id="ha" x1="109.876" y1="58.602" x2="109.876" y2="21.8" gradientUnits="userSpaceOnUse"><stop offset=".25" stop-color="#651240"/><stop offset="1" stop-color="#CB2481"/></linearGradient><linearGradient id="hb" x1="55.041" y1="117.571" x2="55.041" y2="39.523" gradientUnits="userSpaceOnUse"><stop offset=".707" stop-color="#360221"/><stop offset="1" stop-color="#AF076C"/></linearGradient><linearGradient id="hc" x1="164.553" y1="117.596" x2="164.553" y2="39.58" gradientUnits="userSpaceOnUse"><stop offset=".639" stop-color="#2D021C"/><stop offset="1" stop-color="#AF076C"/></linearGradient></defs></symbol><symbol fill="none" viewBox="0 0 55 55" id="trash" xmlns="http://www.w3.org/2000/svg"><path d="M46.406 10.313h-8.593v-1.72a5.156 5.156 0 0 0-5.157-5.155H22.344a5.156 5.156 0 0 0-5.157 5.156v1.719H8.595a1.719 1.719 0 0 0 0 3.437h1.719v30.938a3.438 3.438 0 0 0 3.437 3.437h27.5a3.438 3.438 0 0 0 3.438-3.438V13.75h1.718a1.719 1.719 0 1 0 0-3.438Zm-25.781-1.72a1.719 1.719 0 0 1 1.719-1.718h10.312a1.719 1.719 0 0 1 1.719 1.719v1.719h-13.75v-1.72ZM41.25 44.688h-27.5V13.75h27.5v30.938ZM24.062 22.345v13.75a1.719 1.719 0 0 1-3.437 0v-13.75a1.719 1.719 0 1 1 3.438 0Zm10.313 0v13.75a1.719 1.719 0 0 1-3.438 0v-13.75a1.719 1.719 0 1 1 3.438 0Z" fill="#000"/></symbol><symbol fill="none" viewBox="0 0 853 158" id="venzel" xmlns="http://www.w3.org/2000/svg"><path d="M176.113 3.24c-.989 2.166-2.069 6.316-2.338 9.294l-.63 5.233-3.508-.451c-2.518-.361-3.957-.09-4.947.902-1.349 1.353-1.259 2.256.27 8.932.36 1.715-.359 2.166-5.846 3.88-7.915 2.346-8.904 3.519-6.835 7.489 2.518 4.962 5.666 8.571 8.454 9.744l2.608 1.083-2.428 3.79c-5.037 7.398-5.666 12.18-2.249 16.06 2.789 3.067 7.376 2.075 13.312-2.798 4.946-4.06 11.512-7.218 9.983-4.782-.27.542.36 2.075 1.529 3.429 1.799 2.075 2.339 2.255 4.047 1.353 1.08-.541 2.969-2.977 4.228-5.413 2.518-5.053 3.327-5.504 10.253-5.504 2.788 0 5.576-.451 6.116-.992.719-.722 2.518-.18 6.746 2.165 8.094 4.511 34.267 13.534 48.837 16.872 4.497 1.083 10.524 2.617 13.492 3.519 2.968.902 11.602 2.436 19.157 3.338 7.555.903 13.221 1.895 12.592 2.256-1.439.722-16.459 2.346-31.749 3.519-10.793.721-17.269.992-49.468 2.255-6.386.27-18.168.903-25.993 1.534-16.909 1.173-49.108.451-65.207-1.444C125.386 87.15 125.296 87.15 119 82.73c-7.824-5.413-13.311-7.94-22.305-10.105-4.137-.993-7.645-2.436-8.814-3.61-1.08-1.082-2.249-1.623-2.518-1.262-.36.27-.09.812.54.992.539.27 1.078.812 1.078 1.353 0 .542-1.349.632-3.507.271-3.958-.631-7.555-3.609-21.136-17.233C51.815 42.49 45.788 37.797 44.349 39.24c-1.259 1.264-.989 9.655.54 13.895.72 1.985 2.249 4.15 3.328 4.962 1.979 1.264 1.979 1.264-.18-1.984-1.26-1.895-2.698-5.233-3.148-7.399-.9-4.06-.54-8.571.72-8.571 2.788 0 17.628 14.526 16.639 16.33-.45.632-.36.903.18.542s1.709.27 2.608 1.263c.99 1.083 3.418 3.158 5.576 4.602 4.228 2.977 4.677 3.88 1.889 4.601-1.529.451-1.799.993-1.35 2.797.27 1.263.27 2.346-.09 2.346-1.258 0-23.114-12.722-26.442-15.429-1.798-1.443-4.047-2.616-4.946-2.616-2.879 0-7.465-3.429-18.888-14.075C6.665 27.33 3.696 25.977.998 31.662c-1.17 2.436-1.26 3.608-.54 5.323 1.17 2.616 14.84 11.73 22.935 15.338 3.328 1.534 6.026 2.887 6.026 3.158 0 .27-1.439 1.353-3.148 2.526-3.867 2.436-4.497 5.955-.9 5.053 2.7-.632 10.524 1.895 12.593 4.15 1.169 1.354 1.259 2.076.45 3.52-.81 1.533-.72 1.984.45 2.435.719.27 1.978.27 2.787 0 .72-.27 5.487.451 10.523 1.624 5.037 1.263 12.592 2.797 16.82 3.61 4.227.811 16.189 3.247 26.532 5.413 20.686 4.42 39.934 7.128 61.969 8.752 11.333.902 18.978.902 35.977 0 11.962-.632 22.395-1.263 23.294-1.534.81-.27 1.529-.09 1.529.36 0 .452-1.439 1.174-3.148 1.444-5.756 1.083-35.886 10.557-45.24 14.256l-9.264 3.609-4.047-1.895c-2.249-1.083-6.206-3.699-8.904-5.864-6.116-5.053-19.518-11.82-25.993-13.173-2.699-.542-6.656-.903-8.815-.722-3.147.18-3.957.631-4.137 2.255-.719 5.143 5.846 18.136 8.994 17.594.81-.09 1.709.091 1.979.542.27.451-.63.812-2.069.902-3.058.09-8.814 2.346-11.062 4.421-.9.812-1.889 2.887-2.159 4.692-.36 1.804-1.349 4.782-2.338 6.676-1.529 3.068-1.529 3.519-.27 6.046.809 1.533 3.058 3.789 5.126 5.233 3.058 1.985 4.767 2.436 9.174 2.436h5.487l-.27 4.511c-.27 3.609.09 5.053 1.709 7.128 2.698 3.428 9.803 6.496 9.803 4.15 0-.541-.809-.902-1.798-.902-5.847 0-9.624-5.323-8.635-12.09.63-3.88.9-4.241 6.476-7.218 5.396-2.797 5.756-2.888 5.127-1.173-2.069 5.594.179 21.654 3.237 23.549.99.631 9.264-4.421 12.772-7.67 2.069-1.985 2.608-3.338 3.148-8.751.54-5.594.809-6.497 2.338-6.497 2.069 0 2.249-.631 2.879-8.571.539-7.94 1.349-11.91 2.698-12.993 2.158-1.714 43.711-15.699 44.521-14.977.629.632-3.508 6.406-7.016 9.925l-3.687 3.519-4.048-1.083c-6.026-1.624-7.915-1.263-2.698.541 2.608.903 4.587 2.166 4.767 2.978.36 1.985-3.688 6.676-7.015 8.03-1.529.631-2.519 1.353-2.339 1.624.27.18 2.339-.722 4.587-2.075 2.878-1.624 4.677-3.519 5.576-5.685.72-1.894 2.879-4.691 4.767-6.225 1.889-1.624 4.677-4.962 6.206-7.399 2.159-3.428 3.868-4.872 6.656-5.864 15.29-5.594 17.988-5.955 55.044-7.76 10.883-.45 29.5-2.075 41.373-3.609 16.729-2.075 28.061-2.977 50.366-3.699 15.83-.451 32.469-.722 36.876-.451 4.497.18 9.894.451 12.142.541 3.958.09 3.868.18-3.597 2.346-7.376 2.166-17.989 7.218-17.989 8.481 0 1.715 1.529 1.534 6.206-.812 11.423-5.774 28.781-9.744 38.765-8.752 8.814.813 20.237 3.88 28.511 7.76 4.407 2.075 7.645 3.158 8.005 2.616.27-.54.36-.992.27-1.172-4.677-3.43-16.909-8.482-23.745-9.745-.989-.18 4.857-.631 13.042-.992 25.813-1.083 63.768.541 89.041 3.88 18.438 2.436 30.67 3.428 55.314 4.51 22.305.903 27.072 1.715 39.394 6.316 4.137 1.534 5.487 2.617 7.825 6.316 1.529 2.436 4.317 5.775 6.116 7.308 1.889 1.625 4.137 4.602 5.127 6.587 1.619 3.338 7.285 7.759 9.893 7.669.54 0-.539-.812-2.428-1.714-3.688-1.985-7.016-5.775-7.016-8.121 0-1.082 1.26-1.894 4.048-2.706 5.576-1.534 4.407-2.256-1.259-.812l-4.587 1.173-3.238-3.158c-3.148-2.978-8.005-9.745-7.375-10.286.809-.631 42.272 13.263 44.43 14.977 1.26.993 3.058 9.745 3.058 14.888 0 4.872.72 6.676 2.699 6.676 1.259 0 1.618 1.083 2.068 5.865.63 6.586 2.339 9.835 6.386 11.819 2.698 1.354 2.698 1.354-.54-1.353-2.428-2.075-3.507-3.88-3.867-6.225-.27-1.805-.989-5.865-1.529-8.933-.72-4.691-.72-6.316.54-9.293.809-1.985 1.439-4.511 1.439-5.504 0-1.082 2.068-4.24 4.497-7.128 3.777-4.33 5.306-5.503 8.994-6.406 2.428-.631 4.227-1.443 3.957-1.804-.18-.361.63-1.534 1.979-2.526 4.227-3.339 9.534-8.301 9.174-8.662-.18-.18-3.058 1.985-6.386 4.872-7.645 6.677-14.121 9.925-19.967 10.196l-4.497.09 3.868.361c2.068.18 3.777.722 3.777 1.083 0 1.353-8.994 9.293-10.163 8.932-1.619-.542-4.317-6.587-3.688-8.211.27-.812 1.799-1.894 3.418-2.436 1.619-.541 4.587-2.255 6.476-3.879 11.872-10.106 27.701-16.873 36.786-15.79 2.518.27 2.698.541 2.518 3.79-.18 1.985-1.079 5.323-2.159 7.398-1.799 3.79-1.888 3.88-6.026 3.609-2.338-.18-2.878-.09-1.259.09 4.227.542 3.148 2.346-2.159 3.519-3.058.632-5.306 1.895-7.555 4.06-4.587 4.692-8.814 7.308-13.401 8.572-2.248.631-3.418 1.173-2.608 1.173 3.058.18 7.825 5.503 9.264 10.285 2.248 7.489 1.529 19.579-1.259 24.09-.81 1.083-1.08 1.083-2.519-.09-.899-.812-2.248-1.714-2.968-2.165-.719-.361-.09.361 1.349 1.714 1.529 1.263 3.148 2.165 3.598 1.985.54-.09 1.709-1.804 2.698-3.789 1.799-3.79 2.519-15.97 1.08-19.94-.72-1.985-.45-1.895 4.946.992 5.307 2.887 5.757 3.339 6.476 7.128 1.349 6.947-.899 10.286-8.814 12.812-.9.271-1.439.722-1.169.993 1.079 1.082 6.925-1.715 9.174-4.331 2.068-2.436 2.338-3.519 2.068-7.489l-.27-4.692 3.688.451c4.587.452 9.444-.992 13.041-4.06 5.037-4.24 4.947-5.594-.629-19.037-1.439-3.248-7.285-6.587-12.052-6.677-2.878-.09-2.788-1.624.09-1.624 3.328 0 9.444-12.09 8.724-17.143-.18-1.895-.809-2.255-3.957-2.526-8.725-.632-24.105 5.413-34.088 13.353-2.428 1.985-6.656 4.602-9.174 5.955l-4.767 2.346-7.825-3.158c-9.803-3.97-21.316-7.579-49.647-15.7-3.238-.901.809-.811 16.549.272 9.444.631 21.316 1.172 26.533 1.172 16.729.09 48.838-3.338 68.804-7.218 18.438-3.609 47.939-9.744 55.494-11.548 4.317-.993 8.454-1.625 9.264-1.354.719.27 1.979.27 2.698 0 1.169-.45 1.259-.902.36-2.526-.9-1.714-.72-2.256 1.439-3.97 3.148-2.436 9.534-4.33 12.052-3.519 3.328.993 2.338-2.797-1.259-5.143-1.709-1.173-3.148-2.255-3.148-2.526 0-.27 2.698-1.624 5.846-3.068 8.365-3.699 21.856-12.721 23.025-15.338.809-1.805.719-2.887-.45-5.414-2.698-5.684-5.666-4.33-19.787 8.843-11.332 10.646-16.009 14.075-18.797 14.075-.9 0-3.148 1.173-4.947 2.616-3.148 2.527-25.184 15.429-26.353 15.429-.27 0-.36-1.083-.09-2.346.27-1.805 0-2.346-1.529-2.797-2.788-.722-2.338-1.624 1.889-4.601 2.159-1.444 4.587-3.52 5.576-4.602.9-.992 2.069-1.624 2.609-1.263.539.27.629.09.269-.451-1.079-1.805 13.761-16.421 16.639-16.421.36 0 .9.902 1.08 1.985.36 1.804.36 1.804.539-.361 0-1.354-.269-2.617-.719-2.888-1.439-.902-10.613 6.497-16.279 13.173-3.148 3.61-8.005 8.301-10.883 10.376-2.788 2.076-5.667 4.512-6.386 5.504-1.259 1.895-8.814 3.7-8.814 2.165 0-.54.539-1.082 1.079-1.353.63-.18.899-.631.63-.992-.36-.361-1.44.18-2.429 1.263-1.079 1.173-4.497 2.526-9.084 3.609-8.364 2.075-16.639 5.865-22.485 10.466-5.127 3.97-7.195 4.421-26.982 6.225-17.629 1.625-37.686 1.534-74.741-.36-10.613-.542-28.062-1.354-38.675-1.895-21.136-.993-48.568-3.519-49.737-4.511-.36-.361 4.227-1.173 10.253-1.805 11.782-1.173 15.11-1.895 32.289-6.225 20.237-5.234 44.88-13.715 52.975-18.226 3.418-1.985 5.127-2.436 5.756-1.804.54.54 3.328.992 6.116.992 6.926 0 7.735.451 10.253 5.504 3.508 6.857 7.286 7.85 9.444 2.526 1.439-3.428 3.148-2.977 10.344 2.887 6.565 5.414 10.792 5.955 13.94 1.895 2.699-3.338 1.979-7.94-2.158-14.165l-3.148-4.782 2.698-1.083c2.878-1.263 5.846-4.692 8.365-9.744 2.068-3.97 1.079-5.143-6.836-7.49l-6.206-1.894.54-2.887c.359-1.534.809-3.609 1.079-4.692.63-3.067-1.799-4.782-6.206-4.24-2.158.27-4.317 1.082-4.947 1.804-.899 1.173-1.619.722-5.126-2.436-3.958-3.7-4.048-3.88-2.878-6.677.629-1.533 2.068-4.24 3.058-5.954l1.888-3.068 1.439 3.338c.72 1.805 1.35 4.782 1.35 6.677 0 1.895.449 4.06.899 4.782 1.079 1.624.36-6.947-.989-11.459-1.709-5.323-3.058-5.323-6.116.18-1.529 2.707-2.789 5.504-2.789 6.316 0 1.083-.359 1.173-2.338.271-3.778-1.714-6.116 1.805-8.005 12.09-1.799 10.106-3.058 12.903-7.645 17.414-1.978 1.985-3.597 3.88-3.597 4.42 0 .452 1.978-1.262 4.497-3.969 4.497-4.872 6.565-9.384 7.645-17.143.809-5.955 2.068-9.474 3.957-11.188 1.619-1.443 1.979-1.263 7.825 3.79 8.454 7.308 13.851 13.353 13.851 15.428 0 3.519-5.397 8.12-15.11 12.902-6.566 3.339-9.534 4.421-9.804 3.61-1.889-5.414-11.332-4.783-15.11 1.082-1.349 2.075-3.867 3.7-9.444 6.045-9.713 4.15-33.458 12.632-33.997 12.18-.72-.721 4.677-7.127 8.094-9.654 2.788-1.984 4.048-2.345 7.375-1.984 2.429.27 4.138.09 4.587-.542.45-.722-.089-.902-1.618-.45-1.26.27-2.969.18-3.688-.272-1.259-.721-1.259-.992 0-2.797.719-1.082 2.698-2.616 4.227-3.248 2.608-1.173 2.698-1.263.81-1.353-1.439-.09-3.598 1.353-6.386 4.15-2.339 2.436-5.577 5.594-7.285 7.038-1.709 1.534-4.587 4.42-6.296 6.496-3.148 3.79-3.328 3.88-17.539 7.489-7.915 2.075-21.226 4.692-29.68 5.955-15.02 2.255-26.803 2.526-44.071.812-6.836-.722-86.703-1.083-134.012-.722-11.333.09-29.771.632-40.923 1.263-19.877.993-20.507.993-36.517-1.353-8.994-1.354-19.067-3.248-22.485-4.24-3.418-.993-9.623-2.617-13.851-3.52-7.105-1.534-7.825-1.985-10.793-5.594-1.708-2.165-4.497-5.142-6.206-6.586-1.708-1.534-5.036-4.602-7.375-7.038-2.788-2.706-4.946-4.24-6.385-4.15-2.069.09-1.979.09.359 1.083 3.058 1.443 6.116 4.24 6.116 5.684 0 .722-1.169 1.083-3.597.902-2.159-.18-3.328.09-2.968.632.269.45 2.248.631 4.407.36 3.328-.36 4.587 0 7.375 1.985 3.148 2.346 8.814 8.933 8.184 9.564-.539.452-19.337-6.135-30.49-10.556-6.835-2.707-10.433-4.782-13.221-7.398-1.979-2.076-4.227-4.15-4.947-4.602-2.518-1.895-8.364-.451-9.263 2.346-.36.902-.9 1.714-1.35 1.714-.449 0-3.058.812-5.846 1.895-3.687 1.353-7.015 3.79-12.591 9.113-4.228 3.97-7.466 7.488-7.196 7.76.18.27 3.958-2.978 8.275-7.129 6.116-5.864 8.994-7.94 12.412-9.113 3.957-1.263 4.497-1.263 4.767-.09.449 1.985-2.699 5.865-5.307 6.677-1.169.36-3.867 1.083-5.846 1.624-2.069.541-6.026 2.887-8.814 5.143-2.699 2.255-5.397 3.88-5.847 3.519-.539-.271-1.708-.09-2.698.45-3.867 2.076-7.015-2.706-5.396-8.39.989-3.61 5.756-10.556 7.375-10.647 2.788-.18 10.253.27 11.782.722 1.079.27 1.439.09 1.079-.541-.359-.542-2.428-.993-4.497-.993-6.385 0-13.311-1.714-15.559-3.79-3.328-3.157-6.566-9.473-5.397-10.556 1.709-1.353 12.322-4.691 13.311-4.15.45.36.81 1.444.81 2.436 0 3.61 12.142 12.632 19.787 14.617 1.259.36-1.169-1.173-5.307-3.429-8.364-4.421-12.232-7.85-13.131-11.368-.45-1.805.18-3.158 2.698-6.136 5.217-6.135 16.459-15.518 17.899-14.977 1.708.632 3.777 5.955 4.497 11.639 1.169 8.12 3.148 12.632 7.734 17.594 2.519 2.707 4.498 4.421 4.498 3.97 0-.541-1.44-2.346-3.238-4.06-4.497-4.331-6.296-8.301-7.915-17.504-1.439-7.94-3.058-11.82-5.576-12.812-.81-.27-1.799-.09-2.429.541-1.349 1.354-2.428 1.264-2.428-.18 0-1.173-4.138-9.564-5.487-10.917-.359-.451-1.529.992-2.518 3.158Zm6.746 6.677c1.169 2.707 1.169 2.707-7.466 11.008-4.766 4.601-8.814 8.39-8.904 8.39-.539 0-2.068-9.293-1.619-10.014.63-1.173 7.915-.993 9.084.18.63.632.99-.992 1.08-5.594.09-3.519.809-7.94 1.529-9.654l1.349-3.248 1.889 3.068c.989 1.714 2.428 4.33 3.058 5.864ZM7.204 30.58c4.227 1.804 17.179 14.075 16.01 15.248-.63.632-.27 1.624.899 3.248.99 1.263 1.439 2.436.99 2.616-2.25.722-21.767-11.819-23.565-15.067-.9-1.714.63-7.308 2.068-7.308.36 0 1.979.541 3.598 1.263Zm844.186 1.985c1.079 2.977.989 3.428-.9 5.413-3.867 4.06-21.765 14.797-22.845 13.715-.27-.271.36-1.444 1.259-2.707 1.26-1.534 1.529-2.526.9-3.158-.9-.902 1.889-3.97 10.973-11.82 3.058-2.706 6.385-4.51 8.454-4.601.54-.09 1.529 1.353 2.159 3.158Zm-159.016-.902c2.698.812 5.756 1.985 6.836 2.706l1.978 1.263-2.158 3.88c-1.259 2.165-3.148 4.782-4.317 5.865-2.159 2.075-9.085 3.79-15.38 3.79-1.979 0-4.228.36-4.857.721-.63.451 2.248.541 6.386.36 7.465-.36 7.465-.36 9.803 2.347 1.259 1.534 3.058 4.691 3.868 6.857 1.349 3.428 1.439 4.601.449 6.767-1.259 3.158-3.058 4.06-5.486 2.797-.989-.541-2.159-.722-2.698-.451-.45.36-3.148-1.263-5.846-3.52-2.789-2.255-6.746-4.6-8.815-5.142-1.978-.541-4.677-1.263-5.846-1.624-2.608-.812-5.756-4.692-5.306-6.677.269-1.173.809-1.173 4.767.09 3.417 1.173 6.295 3.249 12.411 9.113 4.318 4.15 8.095 7.399 8.275 7.128.27-.27-2.968-3.79-7.195-7.76-5.397-5.142-8.994-7.759-12.322-9.022-5.307-1.985-5.487-1.714 2.968-4.691 7.465-2.707 14.84-9.294 16.459-14.707.54-1.895.09-1.805 6.026-.09Zm-487.39 16.601c4.137 4.24 3.148 5.865-3.598 5.955-4.587.09-6.026.451-7.824 2.165-1.26 1.173-2.519 2.978-2.789 3.97-.719 2.526-3.058 5.053-4.497 5.053-.719 0-.27-.903.99-2.256 1.259-1.173 2.248-2.616 2.248-3.158 0-.631.81-2.075 1.799-3.338.989-1.263 1.979-3.7 2.338-5.594.81-4.421 1.889-5.504 5.487-5.504 2.248 0 3.867.722 5.846 2.707Zm452.943-1.624c.539.631 1.169 2.707 1.529 4.601.359 1.805 1.439 4.331 2.338 5.504.989 1.173 1.709 2.617 1.709 3.248 0 .542.989 1.985 2.249 3.158 1.259 1.354 1.708 2.256.989 2.256-1.439 0-3.778-2.527-4.497-5.053-.27-.992-1.529-2.797-2.788-3.97-1.799-1.714-3.238-2.075-7.825-2.165-6.746-.09-7.735-1.714-3.598-5.955 2.968-2.887 8.095-3.7 9.894-1.624ZM44.979 61.255c6.566 2.707 14.48 6.316 17.718 8.12l5.847 3.249h-3.778c-2.159 0-5.486-.632-7.465-1.444-2.159-.902-4.767-1.263-6.386-.902-1.439.27-2.518.18-2.248-.27.54-.903-2.339-1.895-5.487-1.895-1.079 0-3.957-1.264-6.475-2.797-2.699-1.715-6.206-3.068-8.725-3.339l-4.317-.45 3.058-2.617c1.709-1.354 3.867-2.527 4.767-2.527.9 0 7.015 2.166 13.491 4.872Zm781.407-2.436 2.968 2.527-4.407.631c-2.338.361-6.296 1.895-8.724 3.339-2.429 1.533-5.307 2.797-6.386 2.797-3.148 0-6.026 1.082-5.486 1.984.269.452-.45.542-1.799.181-1.259-.27-4.228.09-6.746.992-2.518.813-5.756 1.354-7.375 1.173-2.788-.27-2.698-.27 2.518-3.338 6.476-3.7 27.882-12.632 30.58-12.722 1.08 0 3.238 1.083 4.857 2.436ZM83.384 71.722c1.17.721 1.08.902-.18.902-.9 0-1.619.451-1.619.902 0 .541 1.17.361 2.698-.451 2.339-1.173 3.508-1.263 8.365-.36 5.486 1.082 8.814 2.616 5.666 2.616-.81 0-1.35.36-.99.902.36.541 1.35.451 2.699-.18 1.709-.813 3.058-.632 6.206.54 5.126 1.986 15.74 8.843 14.3 9.294-.539.18-8.184-1.083-17.088-2.887-8.815-1.805-17.809-3.429-20.057-3.61-2.249-.18-7.465-1.533-11.692-2.977-6.746-2.436-7.286-2.797-4.318-2.797 1.8-.09 5.937 1.083 9.354 2.617 3.328 1.534 6.116 2.616 6.296 2.436.18-.18-1.709-1.263-4.227-2.436L74.3 74.067l2.069-1.624c2.338-1.804 4.946-2.075 7.015-.721Zm693.355.54 2.878 1.445-5.217 2.526c-7.015 3.428-5.396 3.428 2.159 0 3.328-1.534 7.375-2.707 9.174-2.617 2.698 0 1.709.542-5.756 3.158-4.947 1.715-9.444 2.887-10.074 2.707-.629-.27-8.904 1.173-18.438 3.068-9.533 1.985-17.988 3.609-18.707 3.609-2.339 0 3.597-4.331 10.703-7.85 5.756-2.797 7.015-3.158 9.263-2.256 1.439.542 2.699.542 3.058.09.27-.45-.269-.811-1.079-.811-3.148 0 .18-1.534 5.666-2.617 4.857-.902 6.026-.812 8.365.361 1.529.812 2.698.992 2.698.451 0-.451-.719-.902-1.529-.902-1.349 0-1.439-.18-.27-.902 1.889-1.264 3.778-1.083 7.106.54ZM127.005 92.384c6.296 2.256 15.65 7.669 21.586 12.632 2.428 2.075 5.756 4.15 7.285 4.601 1.619.542 3.148 1.624 3.418 2.436.63 1.624-2.069 7.669-3.688 8.211-1.169.361-10.163-7.669-10.163-9.113 0-.451 1.979-.722 4.947-.451 2.698.271 4.677.18 4.407-.09-.27-.271-3.238-.722-6.656-.993l-6.116-.451 4.407 5.053c2.429 2.797 4.408 5.955 4.408 7.037 0 .993.629 3.519 1.439 5.504 1.259 3.068 1.349 4.511.449 8.752-.539 2.797-.989 6.316-.989 7.85 0 3.879-1.889 6.225-8.185 10.466l-5.306 3.518-1.619-2.345c-1.889-2.978-2.608-16.151-1.169-21.745 1.259-4.511 4.856-9.022 8.634-10.646 2.338-1.083 2.428-1.173.63-1.263-3.418 0-9.984-3.7-14.571-8.031-3.148-2.977-5.486-4.33-8.634-5.052-5.127-1.083-6.206-2.887-1.979-3.429 1.619-.18 1.079-.27-1.259-.09-4.137.271-4.227.181-6.026-3.519-2.339-4.872-3.148-8.39-2.429-10.195.45-1.263 1.529-1.444 6.296-.993 3.148.271 8.095 1.354 10.883 2.346Zm3.508 22.466c2.069 1.985 4.587 4.06 5.666 4.602 1.259.631 1.799 1.534 1.439 2.436-.27.812 0 1.804.63 2.165 3.777 2.346-15.2 15.339-22.306 15.339-3.957 0-9.623-3.068-12.142-6.497l-1.798-2.436 2.068-6.586c2.698-8.481 4.317-10.286 11.153-11.91 7.735-1.895 10.973-1.263 15.29 2.887Zm609.62-2.346c4.137 1.264 6.475 3.7 7.735 8.391.449 1.985 1.439 4.963 2.068 6.497 1.08 2.616.99 3.248-.629 5.413-2.609 3.519-8.275 6.587-12.232 6.587-3.778 0-16.37-6.226-18.978-9.294-.899-1.082-2.248-2.797-3.058-3.699-.989-1.263-1.169-1.895-.45-2.165.63-.181 1.08-1.354 1.08-2.527s.449-2.165.899-2.165c.54 0 2.878-1.804 5.217-3.97 2.338-2.165 5.036-4.15 6.026-4.421 2.158-.541 7.735.09 12.322 1.353Z" fill="#766969"/></symbol><symbol fill="none" viewBox="0 0 40 40" id="whatsapp" xmlns="http://www.w3.org/2000/svg"><path d="m31.171 23.157-6-3a1.5 1.5 0 0 0-1.5.094l-2.754 1.838a7.603 7.603 0 0 1-3-3l1.837-2.755a1.5 1.5 0 0 0 .094-1.5l-3-6A1.5 1.5 0 0 0 15.5 8 7.5 7.5 0 0 0 8 15.5 16.519 16.519 0 0 0 24.5 32a7.5 7.5 0 0 0 7.5-7.5 1.5 1.5 0 0 0-.829-1.343ZM24.5 29A13.516 13.516 0 0 1 11 15.5a4.5 4.5 0 0 1 3.617-4.414l2.152 4.313-1.832 2.726a1.5 1.5 0 0 0-.136 1.408 10.589 10.589 0 0 0 5.653 5.653 1.501 1.501 0 0 0 1.42-.123l2.74-1.827 4.313 2.153A4.5 4.5 0 0 1 24.5 29ZM20 .5A19.5 19.5 0 0 0 2.784 29.165L.655 35.549a3 3 0 0 0 3.795 3.795l6.385-2.128a19.501 19.501 0 1 0 17.712-34.74A19.5 19.5 0 0 0 20 .5Zm0 36c-2.9.002-5.75-.762-8.261-2.214a1.5 1.5 0 0 0-1.227-.126L3.5 36.5l2.338-7.012a1.5 1.5 0 0 0-.124-1.227A16.5 16.5 0 1 1 20 36.5Z" fill="#000"/></symbol></svg>