<?xml version="1.0" encoding="UTF-8" standalone="no"?><svg xmlns="http://www.w3.org/2000/svg" xmlns:xlink="http://www.w3.org/1999/xlink"><symbol viewBox="-4.5 0 20 20" id="arrow-right" xmlns="http://www.w3.org/2000/svg"><path d="M.366 19.708c.405.39 1.06.39 1.464 0l8.563-8.264a1.95 1.95 0 0 0 0-2.827L1.768.292A1.063 1.063 0 0 0 .314.282a.976.976 0 0 0-.011 1.425l7.894 7.617a.975.975 0 0 1 0 1.414L.366 18.295a.974.974 0 0 0 0 1.413" fill="#000" fill-rule="evenodd"/></symbol><symbol shape-rendering="geometricPrecision" text-rendering="geometricPrecision" image-rendering="optimizeQuality" fill-rule="evenodd" clip-rule="evenodd" viewBox="0 0 512 266.77" id="arrow-thin-chevron-bottom-icon" xmlns="http://www.w3.org/2000/svg"><path fill-rule="nonzero" d="M493.12 3.22c4.3-4.27 11.3-4.3 15.62-.04a10.85 10.85 0 0 1 .05 15.46L263.83 263.55c-4.3 4.28-11.3 4.3-15.63.05L3.21 18.64a10.85 10.85 0 0 1 .05-15.46c4.32-4.26 11.32-4.23 15.62.04L255.99 240.3 493.12 3.22z"/></symbol><symbol viewBox="0 0 256 256" id="basket" xmlns="http://www.w3.org/2000/svg"><path d="M136 120v56a8 8 0 0 1-16 0v-56a8 8 0 0 1 16 0Zm36.84-.8-5.6 56a8 8 0 0 0 7.16 8.8 7.32 7.32 0 0 0 .81 0 8 8 0 0 0 7.95-7.2l5.6-56a8 8 0 0 0-15.92-1.6Zm-89.68 0a8 8 0 0 0-15.92 1.6l5.6 56a8 8 0 0 0 8 7.2 7.32 7.32 0 0 0 .81 0 8 8 0 0 0 7.16-8.76Zm156.77-30.14-15.07 113.06A16.06 16.06 0 0 1 209 216H47a16.06 16.06 0 0 1-15.86-13.88L16.07 89.06A8 8 0 0 1 24 80h44.37L122 18.73a8 8 0 0 1 12 0L187.63 80H232a8 8 0 0 1 7.93 9.06ZM89.63 80h76.74L128 36.15Zm133.23 16H33.14L47 200h162Z"/></symbol><symbol fill="none" viewBox="0 0 44 44" id="caret-left" xmlns="http://www.w3.org/2000/svg"><path d="M28.473 34.777a1.374 1.374 0 0 1-.446 2.244 1.375 1.375 0 0 1-1.5-.298l-13.75-13.75a1.374 1.374 0 0 1 0-1.946l13.75-13.75a1.376 1.376 0 1 1 1.946 1.946L15.694 22l12.779 12.777Z" fill="#000"/></symbol><symbol fill="none" viewBox="0 0 44 44" id="caret-right" xmlns="http://www.w3.org/2000/svg"><path d="M15.527 9.223a1.374 1.374 0 0 1 .973-2.349 1.376 1.376 0 0 1 .973.403l13.75 13.75a1.374 1.374 0 0 1 0 1.946l-13.75 13.75a1.376 1.376 0 1 1-1.946-1.946L28.306 22 15.527 9.223Z" fill="#000"/></symbol><symbol fill="none" viewBox="0 0 40 40" id="facebook" xmlns="http://www.w3.org/2000/svg"><path d="M20 .5A19.5 19.5 0 1 0 39.5 20 19.521 19.521 0 0 0 20 .5Zm1.5 35.93V24.5H26a1.5 1.5 0 1 0 0-3h-4.5V17a3 3 0 0 1 3-3h3a1.5 1.5 0 1 0 0-3h-3a6 6 0 0 0-6 6v4.5H14a1.5 1.5 0 0 0 0 3h4.5v11.93a16.5 16.5 0 1 1 3 0Z" fill="#000"/></symbol><symbol fill="none" viewBox="0 0 44 41" id="instagram" xmlns="http://www.w3.org/2000/svg"><path d="M22.449 11.313c-1.962 0-3.88.538-5.51 1.548-1.632 1.01-2.903 2.444-3.654 4.123a8.56 8.56 0 0 0-.564 5.308c.383 1.783 1.327 3.42 2.714 4.704 1.388 1.285 3.155 2.16 5.079 2.515s3.918.172 5.73-.523c1.813-.695 3.362-1.873 4.452-3.384a8.714 8.714 0 0 0 1.671-5.104c-.003-2.436-1.048-4.771-2.908-6.494-1.86-1.722-4.38-2.691-7.01-2.694Zm0 15.312a6.992 6.992 0 0 1-3.674-1.032 6.252 6.252 0 0 1-2.435-2.75 5.707 5.707 0 0 1-.376-3.538 6 6 0 0 1 1.81-3.136 6.79 6.79 0 0 1 3.385-1.676 7.104 7.104 0 0 1 3.82.348 6.53 6.53 0 0 1 2.968 2.256A5.81 5.81 0 0 1 29.06 20.5c0 1.625-.697 3.182-1.937 4.331-1.24 1.149-2.921 1.794-4.675 1.794ZM32.367.594H12.53C9.462.597 6.521 1.727 4.352 3.737 2.182 5.747.962 8.47.959 11.312v18.376c.003 2.841 1.223 5.566 3.393 7.575 2.17 2.01 5.11 3.14 8.178 3.143h19.837c3.068-.003 6.01-1.133 8.179-3.143 2.17-2.01 3.39-4.734 3.393-7.575V11.313c-.004-2.842-1.224-5.567-3.393-7.576-2.17-2.01-5.11-3.14-8.179-3.143Zm8.266 29.093c0 2.031-.871 3.979-2.421 5.414-1.55 1.436-3.653 2.243-5.845 2.243H12.53c-2.192 0-4.294-.807-5.844-2.243-1.55-1.435-2.42-3.383-2.42-5.413V11.313c0-2.031.87-3.978 2.42-5.414 1.55-1.436 3.652-2.243 5.844-2.243h19.837c2.192 0 4.295.807 5.845 2.243 1.55 1.436 2.42 3.383 2.42 5.413v18.376Zm-4.96-19.14c0 .454-.145.898-.418 1.276-.272.378-.66.672-1.112.846-.453.174-.952.22-1.433.13a2.546 2.546 0 0 1-1.27-.628 2.25 2.25 0 0 1-.678-1.176 2.141 2.141 0 0 1 .14-1.327c.188-.42.506-.779.914-1.03a2.622 2.622 0 0 1 1.378-.388c.657 0 1.288.242 1.753.673.465.43.726 1.015.726 1.624Z" fill="#000"/></symbol><symbol fill="none" viewBox="0 0 55 55" id="trash" xmlns="http://www.w3.org/2000/svg"><path d="M46.406 10.313h-8.593v-1.72a5.156 5.156 0 0 0-5.157-5.155H22.344a5.156 5.156 0 0 0-5.157 5.156v1.719H8.595a1.719 1.719 0 0 0 0 3.437h1.719v30.938a3.438 3.438 0 0 0 3.437 3.437h27.5a3.438 3.438 0 0 0 3.438-3.438V13.75h1.718a1.719 1.719 0 1 0 0-3.438Zm-25.781-1.72a1.719 1.719 0 0 1 1.719-1.718h10.312a1.719 1.719 0 0 1 1.719 1.719v1.719h-13.75v-1.72ZM41.25 44.688h-27.5V13.75h27.5v30.938ZM24.062 22.345v13.75a1.719 1.719 0 0 1-3.437 0v-13.75a1.719 1.719 0 1 1 3.438 0Zm10.313 0v13.75a1.719 1.719 0 0 1-3.438 0v-13.75a1.719 1.719 0 1 1 3.438 0Z" fill="#000"/></symbol><symbol fill="none" viewBox="0 0 853 158" id="venzel" xmlns="http://www.w3.org/2000/svg"><path d="M176.113 3.24c-.989 2.166-2.069 6.316-2.338 9.294l-.63 5.233-3.508-.451c-2.518-.361-3.957-.09-4.947.902-1.349 1.353-1.259 2.256.27 8.932.36 1.715-.359 2.166-5.846 3.88-7.915 2.346-8.904 3.519-6.835 7.489 2.518 4.962 5.666 8.571 8.454 9.744l2.608 1.083-2.428 3.79c-5.037 7.398-5.666 12.18-2.249 16.06 2.789 3.067 7.376 2.075 13.312-2.798 4.946-4.06 11.512-7.218 9.983-4.782-.27.542.36 2.075 1.529 3.429 1.799 2.075 2.339 2.255 4.047 1.353 1.08-.541 2.969-2.977 4.228-5.413 2.518-5.053 3.327-5.504 10.253-5.504 2.788 0 5.576-.451 6.116-.992.719-.722 2.518-.18 6.746 2.165 8.094 4.511 34.267 13.534 48.837 16.872 4.497 1.083 10.524 2.617 13.492 3.519 2.968.902 11.602 2.436 19.157 3.338 7.555.903 13.221 1.895 12.592 2.256-1.439.722-16.459 2.346-31.749 3.519-10.793.721-17.269.992-49.468 2.255-6.386.27-18.168.903-25.993 1.534-16.909 1.173-49.108.451-65.207-1.444C125.386 87.15 125.296 87.15 119 82.73c-7.824-5.413-13.311-7.94-22.305-10.105-4.137-.993-7.645-2.436-8.814-3.61-1.08-1.082-2.249-1.623-2.518-1.262-.36.27-.09.812.54.992.539.27 1.078.812 1.078 1.353 0 .542-1.349.632-3.507.271-3.958-.631-7.555-3.609-21.136-17.233C51.815 42.49 45.788 37.797 44.349 39.24c-1.259 1.264-.989 9.655.54 13.895.72 1.985 2.249 4.15 3.328 4.962 1.979 1.264 1.979 1.264-.18-1.984-1.26-1.895-2.698-5.233-3.148-7.399-.9-4.06-.54-8.571.72-8.571 2.788 0 17.628 14.526 16.639 16.33-.45.632-.36.903.18.542s1.709.27 2.608 1.263c.99 1.083 3.418 3.158 5.576 4.602 4.228 2.977 4.677 3.88 1.889 4.601-1.529.451-1.799.993-1.35 2.797.27 1.263.27 2.346-.09 2.346-1.258 0-23.114-12.722-26.442-15.429-1.798-1.443-4.047-2.616-4.946-2.616-2.879 0-7.465-3.429-18.888-14.075C6.665 27.33 3.696 25.977.998 31.662c-1.17 2.436-1.26 3.608-.54 5.323 1.17 2.616 14.84 11.73 22.935 15.338 3.328 1.534 6.026 2.887 6.026 3.158 0 .27-1.439 1.353-3.148 2.526-3.867 2.436-4.497 5.955-.9 5.053 2.7-.632 10.524 1.895 12.593 4.15 1.169 1.354 1.259 2.076.45 3.52-.81 1.533-.72 1.984.45 2.435.719.27 1.978.27 2.787 0 .72-.27 5.487.451 10.523 1.624 5.037 1.263 12.592 2.797 16.82 3.61 4.227.811 16.189 3.247 26.532 5.413 20.686 4.42 39.934 7.128 61.969 8.752 11.333.902 18.978.902 35.977 0 11.962-.632 22.395-1.263 23.294-1.534.81-.27 1.529-.09 1.529.36 0 .452-1.439 1.174-3.148 1.444-5.756 1.083-35.886 10.557-45.24 14.256l-9.264 3.609-4.047-1.895c-2.249-1.083-6.206-3.699-8.904-5.864-6.116-5.053-19.518-11.82-25.993-13.173-2.699-.542-6.656-.903-8.815-.722-3.147.18-3.957.631-4.137 2.255-.719 5.143 5.846 18.136 8.994 17.594.81-.09 1.709.091 1.979.542.27.451-.63.812-2.069.902-3.058.09-8.814 2.346-11.062 4.421-.9.812-1.889 2.887-2.159 4.692-.36 1.804-1.349 4.782-2.338 6.676-1.529 3.068-1.529 3.519-.27 6.046.809 1.533 3.058 3.789 5.126 5.233 3.058 1.985 4.767 2.436 9.174 2.436h5.487l-.27 4.511c-.27 3.609.09 5.053 1.709 7.128 2.698 3.428 9.803 6.496 9.803 4.15 0-.541-.809-.902-1.798-.902-5.847 0-9.624-5.323-8.635-12.09.63-3.88.9-4.241 6.476-7.218 5.396-2.797 5.756-2.888 5.127-1.173-2.069 5.594.179 21.654 3.237 23.549.99.631 9.264-4.421 12.772-7.67 2.069-1.985 2.608-3.338 3.148-8.751.54-5.594.809-6.497 2.338-6.497 2.069 0 2.249-.631 2.879-8.571.539-7.94 1.349-11.91 2.698-12.993 2.158-1.714 43.711-15.699 44.521-14.977.629.632-3.508 6.406-7.016 9.925l-3.687 3.519-4.048-1.083c-6.026-1.624-7.915-1.263-2.698.541 2.608.903 4.587 2.166 4.767 2.978.36 1.985-3.688 6.676-7.015 8.03-1.529.631-2.519 1.353-2.339 1.624.27.18 2.339-.722 4.587-2.075 2.878-1.624 4.677-3.519 5.576-5.685.72-1.894 2.879-4.691 4.767-6.225 1.889-1.624 4.677-4.962 6.206-7.399 2.159-3.428 3.868-4.872 6.656-5.864 15.29-5.594 17.988-5.955 55.044-7.76 10.883-.45 29.5-2.075 41.373-3.609 16.729-2.075 28.061-2.977 50.366-3.699 15.83-.451 32.469-.722 36.876-.451 4.497.18 9.894.451 12.142.541 3.958.09 3.868.18-3.597 2.346-7.376 2.166-17.989 7.218-17.989 8.481 0 1.715 1.529 1.534 6.206-.812 11.423-5.774 28.781-9.744 38.765-8.752 8.814.813 20.237 3.88 28.511 7.76 4.407 2.075 7.645 3.158 8.005 2.616.27-.54.36-.992.27-1.172-4.677-3.43-16.909-8.482-23.745-9.745-.989-.18 4.857-.631 13.042-.992 25.813-1.083 63.768.541 89.041 3.88 18.438 2.436 30.67 3.428 55.314 4.51 22.305.903 27.072 1.715 39.394 6.316 4.137 1.534 5.487 2.617 7.825 6.316 1.529 2.436 4.317 5.775 6.116 7.308 1.889 1.625 4.137 4.602 5.127 6.587 1.619 3.338 7.285 7.759 9.893 7.669.54 0-.539-.812-2.428-1.714-3.688-1.985-7.016-5.775-7.016-8.121 0-1.082 1.26-1.894 4.048-2.706 5.576-1.534 4.407-2.256-1.259-.812l-4.587 1.173-3.238-3.158c-3.148-2.978-8.005-9.745-7.375-10.286.809-.631 42.272 13.263 44.43 14.977 1.26.993 3.058 9.745 3.058 14.888 0 4.872.72 6.676 2.699 6.676 1.259 0 1.618 1.083 2.068 5.865.63 6.586 2.339 9.835 6.386 11.819 2.698 1.354 2.698 1.354-.54-1.353-2.428-2.075-3.507-3.88-3.867-6.225-.27-1.805-.989-5.865-1.529-8.933-.72-4.691-.72-6.316.54-9.293.809-1.985 1.439-4.511 1.439-5.504 0-1.082 2.068-4.24 4.497-7.128 3.777-4.33 5.306-5.503 8.994-6.406 2.428-.631 4.227-1.443 3.957-1.804-.18-.361.63-1.534 1.979-2.526 4.227-3.339 9.534-8.301 9.174-8.662-.18-.18-3.058 1.985-6.386 4.872-7.645 6.677-14.121 9.925-19.967 10.196l-4.497.09 3.868.361c2.068.18 3.777.722 3.777 1.083 0 1.353-8.994 9.293-10.163 8.932-1.619-.542-4.317-6.587-3.688-8.211.27-.812 1.799-1.894 3.418-2.436 1.619-.541 4.587-2.255 6.476-3.879 11.872-10.106 27.701-16.873 36.786-15.79 2.518.27 2.698.541 2.518 3.79-.18 1.985-1.079 5.323-2.159 7.398-1.799 3.79-1.888 3.88-6.026 3.609-2.338-.18-2.878-.09-1.259.09 4.227.542 3.148 2.346-2.159 3.519-3.058.632-5.306 1.895-7.555 4.06-4.587 4.692-8.814 7.308-13.401 8.572-2.248.631-3.418 1.173-2.608 1.173 3.058.18 7.825 5.503 9.264 10.285 2.248 7.489 1.529 19.579-1.259 24.09-.81 1.083-1.08 1.083-2.519-.09-.899-.812-2.248-1.714-2.968-2.165-.719-.361-.09.361 1.349 1.714 1.529 1.263 3.148 2.165 3.598 1.985.54-.09 1.709-1.804 2.698-3.789 1.799-3.79 2.519-15.97 1.08-19.94-.72-1.985-.45-1.895 4.946.992 5.307 2.887 5.757 3.339 6.476 7.128 1.349 6.947-.899 10.286-8.814 12.812-.9.271-1.439.722-1.169.993 1.079 1.082 6.925-1.715 9.174-4.331 2.068-2.436 2.338-3.519 2.068-7.489l-.27-4.692 3.688.451c4.587.452 9.444-.992 13.041-4.06 5.037-4.24 4.947-5.594-.629-19.037-1.439-3.248-7.285-6.587-12.052-6.677-2.878-.09-2.788-1.624.09-1.624 3.328 0 9.444-12.09 8.724-17.143-.18-1.895-.809-2.255-3.957-2.526-8.725-.632-24.105 5.413-34.088 13.353-2.428 1.985-6.656 4.602-9.174 5.955l-4.767 2.346-7.825-3.158c-9.803-3.97-21.316-7.579-49.647-15.7-3.238-.901.809-.811 16.549.272 9.444.631 21.316 1.172 26.533 1.172 16.729.09 48.838-3.338 68.804-7.218 18.438-3.609 47.939-9.744 55.494-11.548 4.317-.993 8.454-1.625 9.264-1.354.719.27 1.979.27 2.698 0 1.169-.45 1.259-.902.36-2.526-.9-1.714-.72-2.256 1.439-3.97 3.148-2.436 9.534-4.33 12.052-3.519 3.328.993 2.338-2.797-1.259-5.143-1.709-1.173-3.148-2.255-3.148-2.526 0-.27 2.698-1.624 5.846-3.068 8.365-3.699 21.856-12.721 23.025-15.338.809-1.805.719-2.887-.45-5.414-2.698-5.684-5.666-4.33-19.787 8.843-11.332 10.646-16.009 14.075-18.797 14.075-.9 0-3.148 1.173-4.947 2.616-3.148 2.527-25.184 15.429-26.353 15.429-.27 0-.36-1.083-.09-2.346.27-1.805 0-2.346-1.529-2.797-2.788-.722-2.338-1.624 1.889-4.601 2.159-1.444 4.587-3.52 5.576-4.602.9-.992 2.069-1.624 2.609-1.263.539.27.629.09.269-.451-1.079-1.805 13.761-16.421 16.639-16.421.36 0 .9.902 1.08 1.985.36 1.804.36 1.804.539-.361 0-1.354-.269-2.617-.719-2.888-1.439-.902-10.613 6.497-16.279 13.173-3.148 3.61-8.005 8.301-10.883 10.376-2.788 2.076-5.667 4.512-6.386 5.504-1.259 1.895-8.814 3.7-8.814 2.165 0-.54.539-1.082 1.079-1.353.63-.18.899-.631.63-.992-.36-.361-1.44.18-2.429 1.263-1.079 1.173-4.497 2.526-9.084 3.609-8.364 2.075-16.639 5.865-22.485 10.466-5.127 3.97-7.195 4.421-26.982 6.225-17.629 1.625-37.686 1.534-74.741-.36-10.613-.542-28.062-1.354-38.675-1.895-21.136-.993-48.568-3.519-49.737-4.511-.36-.361 4.227-1.173 10.253-1.805 11.782-1.173 15.11-1.895 32.289-6.225 20.237-5.234 44.88-13.715 52.975-18.226 3.418-1.985 5.127-2.436 5.756-1.804.54.54 3.328.992 6.116.992 6.926 0 7.735.451 10.253 5.504 3.508 6.857 7.286 7.85 9.444 2.526 1.439-3.428 3.148-2.977 10.344 2.887 6.565 5.414 10.792 5.955 13.94 1.895 2.699-3.338 1.979-7.94-2.158-14.165l-3.148-4.782 2.698-1.083c2.878-1.263 5.846-4.692 8.365-9.744 2.068-3.97 1.079-5.143-6.836-7.49l-6.206-1.894.54-2.887c.359-1.534.809-3.609 1.079-4.692.63-3.067-1.799-4.782-6.206-4.24-2.158.27-4.317 1.082-4.947 1.804-.899 1.173-1.619.722-5.126-2.436-3.958-3.7-4.048-3.88-2.878-6.677.629-1.533 2.068-4.24 3.058-5.954l1.888-3.068 1.439 3.338c.72 1.805 1.35 4.782 1.35 6.677 0 1.895.449 4.06.899 4.782 1.079 1.624.36-6.947-.989-11.459-1.709-5.323-3.058-5.323-6.116.18-1.529 2.707-2.789 5.504-2.789 6.316 0 1.083-.359 1.173-2.338.271-3.778-1.714-6.116 1.805-8.005 12.09-1.799 10.106-3.058 12.903-7.645 17.414-1.978 1.985-3.597 3.88-3.597 4.42 0 .452 1.978-1.262 4.497-3.969 4.497-4.872 6.565-9.384 7.645-17.143.809-5.955 2.068-9.474 3.957-11.188 1.619-1.443 1.979-1.263 7.825 3.79 8.454 7.308 13.851 13.353 13.851 15.428 0 3.519-5.397 8.12-15.11 12.902-6.566 3.339-9.534 4.421-9.804 3.61-1.889-5.414-11.332-4.783-15.11 1.082-1.349 2.075-3.867 3.7-9.444 6.045-9.713 4.15-33.458 12.632-33.997 12.18-.72-.721 4.677-7.127 8.094-9.654 2.788-1.984 4.048-2.345 7.375-1.984 2.429.27 4.138.09 4.587-.542.45-.722-.089-.902-1.618-.45-1.26.27-2.969.18-3.688-.272-1.259-.721-1.259-.992 0-2.797.719-1.082 2.698-2.616 4.227-3.248 2.608-1.173 2.698-1.263.81-1.353-1.439-.09-3.598 1.353-6.386 4.15-2.339 2.436-5.577 5.594-7.285 7.038-1.709 1.534-4.587 4.42-6.296 6.496-3.148 3.79-3.328 3.88-17.539 7.489-7.915 2.075-21.226 4.692-29.68 5.955-15.02 2.255-26.803 2.526-44.071.812-6.836-.722-86.703-1.083-134.012-.722-11.333.09-29.771.632-40.923 1.263-19.877.993-20.507.993-36.517-1.353-8.994-1.354-19.067-3.248-22.485-4.24-3.418-.993-9.623-2.617-13.851-3.52-7.105-1.534-7.825-1.985-10.793-5.594-1.708-2.165-4.497-5.142-6.206-6.586-1.708-1.534-5.036-4.602-7.375-7.038-2.788-2.706-4.946-4.24-6.385-4.15-2.069.09-1.979.09.359 1.083 3.058 1.443 6.116 4.24 6.116 5.684 0 .722-1.169 1.083-3.597.902-2.159-.18-3.328.09-2.968.632.269.45 2.248.631 4.407.36 3.328-.36 4.587 0 7.375 1.985 3.148 2.346 8.814 8.933 8.184 9.564-.539.452-19.337-6.135-30.49-10.556-6.835-2.707-10.433-4.782-13.221-7.398-1.979-2.076-4.227-4.15-4.947-4.602-2.518-1.895-8.364-.451-9.263 2.346-.36.902-.9 1.714-1.35 1.714-.449 0-3.058.812-5.846 1.895-3.687 1.353-7.015 3.79-12.591 9.113-4.228 3.97-7.466 7.488-7.196 7.76.18.27 3.958-2.978 8.275-7.129 6.116-5.864 8.994-7.94 12.412-9.113 3.957-1.263 4.497-1.263 4.767-.09.449 1.985-2.699 5.865-5.307 6.677-1.169.36-3.867 1.083-5.846 1.624-2.069.541-6.026 2.887-8.814 5.143-2.699 2.255-5.397 3.88-5.847 3.519-.539-.271-1.708-.09-2.698.45-3.867 2.076-7.015-2.706-5.396-8.39.989-3.61 5.756-10.556 7.375-10.647 2.788-.18 10.253.27 11.782.722 1.079.27 1.439.09 1.079-.541-.359-.542-2.428-.993-4.497-.993-6.385 0-13.311-1.714-15.559-3.79-3.328-3.157-6.566-9.473-5.397-10.556 1.709-1.353 12.322-4.691 13.311-4.15.45.36.81 1.444.81 2.436 0 3.61 12.142 12.632 19.787 14.617 1.259.36-1.169-1.173-5.307-3.429-8.364-4.421-12.232-7.85-13.131-11.368-.45-1.805.18-3.158 2.698-6.136 5.217-6.135 16.459-15.518 17.899-14.977 1.708.632 3.777 5.955 4.497 11.639 1.169 8.12 3.148 12.632 7.734 17.594 2.519 2.707 4.498 4.421 4.498 3.97 0-.541-1.44-2.346-3.238-4.06-4.497-4.331-6.296-8.301-7.915-17.504-1.439-7.94-3.058-11.82-5.576-12.812-.81-.27-1.799-.09-2.429.541-1.349 1.354-2.428 1.264-2.428-.18 0-1.173-4.138-9.564-5.487-10.917-.359-.451-1.529.992-2.518 3.158Zm6.746 6.677c1.169 2.707 1.169 2.707-7.466 11.008-4.766 4.601-8.814 8.39-8.904 8.39-.539 0-2.068-9.293-1.619-10.014.63-1.173 7.915-.993 9.084.18.63.632.99-.992 1.08-5.594.09-3.519.809-7.94 1.529-9.654l1.349-3.248 1.889 3.068c.989 1.714 2.428 4.33 3.058 5.864ZM7.204 30.58c4.227 1.804 17.179 14.075 16.01 15.248-.63.632-.27 1.624.899 3.248.99 1.263 1.439 2.436.99 2.616-2.25.722-21.767-11.819-23.565-15.067-.9-1.714.63-7.308 2.068-7.308.36 0 1.979.541 3.598 1.263Zm844.186 1.985c1.079 2.977.989 3.428-.9 5.413-3.867 4.06-21.765 14.797-22.845 13.715-.27-.271.36-1.444 1.259-2.707 1.26-1.534 1.529-2.526.9-3.158-.9-.902 1.889-3.97 10.973-11.82 3.058-2.706 6.385-4.51 8.454-4.601.54-.09 1.529 1.353 2.159 3.158Zm-159.016-.902c2.698.812 5.756 1.985 6.836 2.706l1.978 1.263-2.158 3.88c-1.259 2.165-3.148 4.782-4.317 5.865-2.159 2.075-9.085 3.79-15.38 3.79-1.979 0-4.228.36-4.857.721-.63.451 2.248.541 6.386.36 7.465-.36 7.465-.36 9.803 2.347 1.259 1.534 3.058 4.691 3.868 6.857 1.349 3.428 1.439 4.601.449 6.767-1.259 3.158-3.058 4.06-5.486 2.797-.989-.541-2.159-.722-2.698-.451-.45.36-3.148-1.263-5.846-3.52-2.789-2.255-6.746-4.6-8.815-5.142-1.978-.541-4.677-1.263-5.846-1.624-2.608-.812-5.756-4.692-5.306-6.677.269-1.173.809-1.173 4.767.09 3.417 1.173 6.295 3.249 12.411 9.113 4.318 4.15 8.095 7.399 8.275 7.128.27-.27-2.968-3.79-7.195-7.76-5.397-5.142-8.994-7.759-12.322-9.022-5.307-1.985-5.487-1.714 2.968-4.691 7.465-2.707 14.84-9.294 16.459-14.707.54-1.895.09-1.805 6.026-.09Zm-487.39 16.601c4.137 4.24 3.148 5.865-3.598 5.955-4.587.09-6.026.451-7.824 2.165-1.26 1.173-2.519 2.978-2.789 3.97-.719 2.526-3.058 5.053-4.497 5.053-.719 0-.27-.903.99-2.256 1.259-1.173 2.248-2.616 2.248-3.158 0-.631.81-2.075 1.799-3.338.989-1.263 1.979-3.7 2.338-5.594.81-4.421 1.889-5.504 5.487-5.504 2.248 0 3.867.722 5.846 2.707Zm452.943-1.624c.539.631 1.169 2.707 1.529 4.601.359 1.805 1.439 4.331 2.338 5.504.989 1.173 1.709 2.617 1.709 3.248 0 .542.989 1.985 2.249 3.158 1.259 1.354 1.708 2.256.989 2.256-1.439 0-3.778-2.527-4.497-5.053-.27-.992-1.529-2.797-2.788-3.97-1.799-1.714-3.238-2.075-7.825-2.165-6.746-.09-7.735-1.714-3.598-5.955 2.968-2.887 8.095-3.7 9.894-1.624ZM44.979 61.255c6.566 2.707 14.48 6.316 17.718 8.12l5.847 3.249h-3.778c-2.159 0-5.486-.632-7.465-1.444-2.159-.902-4.767-1.263-6.386-.902-1.439.27-2.518.18-2.248-.27.54-.903-2.339-1.895-5.487-1.895-1.079 0-3.957-1.264-6.475-2.797-2.699-1.715-6.206-3.068-8.725-3.339l-4.317-.45 3.058-2.617c1.709-1.354 3.867-2.527 4.767-2.527.9 0 7.015 2.166 13.491 4.872Zm781.407-2.436 2.968 2.527-4.407.631c-2.338.361-6.296 1.895-8.724 3.339-2.429 1.533-5.307 2.797-6.386 2.797-3.148 0-6.026 1.082-5.486 1.984.269.452-.45.542-1.799.181-1.259-.27-4.228.09-6.746.992-2.518.813-5.756 1.354-7.375 1.173-2.788-.27-2.698-.27 2.518-3.338 6.476-3.7 27.882-12.632 30.58-12.722 1.08 0 3.238 1.083 4.857 2.436ZM83.384 71.722c1.17.721 1.08.902-.18.902-.9 0-1.619.451-1.619.902 0 .541 1.17.361 2.698-.451 2.339-1.173 3.508-1.263 8.365-.36 5.486 1.082 8.814 2.616 5.666 2.616-.81 0-1.35.36-.99.902.36.541 1.35.451 2.699-.18 1.709-.813 3.058-.632 6.206.54 5.126 1.986 15.74 8.843 14.3 9.294-.539.18-8.184-1.083-17.088-2.887-8.815-1.805-17.809-3.429-20.057-3.61-2.249-.18-7.465-1.533-11.692-2.977-6.746-2.436-7.286-2.797-4.318-2.797 1.8-.09 5.937 1.083 9.354 2.617 3.328 1.534 6.116 2.616 6.296 2.436.18-.18-1.709-1.263-4.227-2.436L74.3 74.067l2.069-1.624c2.338-1.804 4.946-2.075 7.015-.721Zm693.355.54 2.878 1.445-5.217 2.526c-7.015 3.428-5.396 3.428 2.159 0 3.328-1.534 7.375-2.707 9.174-2.617 2.698 0 1.709.542-5.756 3.158-4.947 1.715-9.444 2.887-10.074 2.707-.629-.27-8.904 1.173-18.438 3.068-9.533 1.985-17.988 3.609-18.707 3.609-2.339 0 3.597-4.331 10.703-7.85 5.756-2.797 7.015-3.158 9.263-2.256 1.439.542 2.699.542 3.058.09.27-.45-.269-.811-1.079-.811-3.148 0 .18-1.534 5.666-2.617 4.857-.902 6.026-.812 8.365.361 1.529.812 2.698.992 2.698.451 0-.451-.719-.902-1.529-.902-1.349 0-1.439-.18-.27-.902 1.889-1.264 3.778-1.083 7.106.54ZM127.005 92.384c6.296 2.256 15.65 7.669 21.586 12.632 2.428 2.075 5.756 4.15 7.285 4.601 1.619.542 3.148 1.624 3.418 2.436.63 1.624-2.069 7.669-3.688 8.211-1.169.361-10.163-7.669-10.163-9.113 0-.451 1.979-.722 4.947-.451 2.698.271 4.677.18 4.407-.09-.27-.271-3.238-.722-6.656-.993l-6.116-.451 4.407 5.053c2.429 2.797 4.408 5.955 4.408 7.037 0 .993.629 3.519 1.439 5.504 1.259 3.068 1.349 4.511.449 8.752-.539 2.797-.989 6.316-.989 7.85 0 3.879-1.889 6.225-8.185 10.466l-5.306 3.518-1.619-2.345c-1.889-2.978-2.608-16.151-1.169-21.745 1.259-4.511 4.856-9.022 8.634-10.646 2.338-1.083 2.428-1.173.63-1.263-3.418 0-9.984-3.7-14.571-8.031-3.148-2.977-5.486-4.33-8.634-5.052-5.127-1.083-6.206-2.887-1.979-3.429 1.619-.18 1.079-.27-1.259-.09-4.137.271-4.227.181-6.026-3.519-2.339-4.872-3.148-8.39-2.429-10.195.45-1.263 1.529-1.444 6.296-.993 3.148.271 8.095 1.354 10.883 2.346Zm3.508 22.466c2.069 1.985 4.587 4.06 5.666 4.602 1.259.631 1.799 1.534 1.439 2.436-.27.812 0 1.804.63 2.165 3.777 2.346-15.2 15.339-22.306 15.339-3.957 0-9.623-3.068-12.142-6.497l-1.798-2.436 2.068-6.586c2.698-8.481 4.317-10.286 11.153-11.91 7.735-1.895 10.973-1.263 15.29 2.887Zm609.62-2.346c4.137 1.264 6.475 3.7 7.735 8.391.449 1.985 1.439 4.963 2.068 6.497 1.08 2.616.99 3.248-.629 5.413-2.609 3.519-8.275 6.587-12.232 6.587-3.778 0-16.37-6.226-18.978-9.294-.899-1.082-2.248-2.797-3.058-3.699-.989-1.263-1.169-1.895-.45-2.165.63-.181 1.08-1.354 1.08-2.527s.449-2.165.899-2.165c.54 0 2.878-1.804 5.217-3.97 2.338-2.165 5.036-4.15 6.026-4.421 2.158-.541 7.735.09 12.322 1.353Z" fill="#766969"/></symbol><symbol fill="none" viewBox="0 0 40 40" id="whatsapp" xmlns="http://www.w3.org/2000/svg"><path d="m31.171 23.157-6-3a1.5 1.5 0 0 0-1.5.094l-2.754 1.838a7.603 7.603 0 0 1-3-3l1.837-2.755a1.5 1.5 0 0 0 .094-1.5l-3-6A1.5 1.5 0 0 0 15.5 8 7.5 7.5 0 0 0 8 15.5 16.519 16.519 0 0 0 24.5 32a7.5 7.5 0 0 0 7.5-7.5 1.5 1.5 0 0 0-.829-1.343ZM24.5 29A13.516 13.516 0 0 1 11 15.5a4.5 4.5 0 0 1 3.617-4.414l2.152 4.313-1.832 2.726a1.5 1.5 0 0 0-.136 1.408 10.589 10.589 0 0 0 5.653 5.653 1.501 1.501 0 0 0 1.42-.123l2.74-1.827 4.313 2.153A4.5 4.5 0 0 1 24.5 29ZM20 .5A19.5 19.5 0 0 0 2.784 29.165L.655 35.549a3 3 0 0 0 3.795 3.795l6.385-2.128a19.501 19.501 0 1 0 17.712-34.74A19.5 19.5 0 0 0 20 .5Zm0 36c-2.9.002-5.75-.762-8.261-2.214a1.5 1.5 0 0 0-1.227-.126L3.5 36.5l2.338-7.012a1.5 1.5 0 0 0-.124-1.227A16.5 16.5 0 1 1 20 36.5Z" fill="#000"/></symbol></svg>