<svg width="44" height="44" viewBox="0 0 44 44" fill="none" xmlns="http://www.w3.org/2000/svg">
<path d="M28.4729 34.777C28.6007 34.9047 28.702 35.0564 28.7711 35.2233C28.8403 35.3902 28.8759 35.5691 28.8759 35.7498C28.8759 35.9305 28.8403 36.1094 28.7711 36.2763C28.702 36.4432 28.6007 36.5949 28.4729 36.7226C28.3452 36.8504 28.1935 36.9517 28.0266 37.0208C27.8597 37.09 27.6808 37.1256 27.5001 37.1256C27.3194 37.1256 27.1405 37.09 26.9736 37.0208C26.8067 36.9517 26.655 36.8504 26.5273 36.7226L12.7773 22.9726C12.6494 22.8449 12.548 22.6933 12.4788 22.5263C12.4096 22.3594 12.374 22.1805 12.374 21.9998C12.374 21.8191 12.4096 21.6402 12.4788 21.4732C12.548 21.3063 12.6494 21.1547 12.7773 21.027L26.5273 7.27698C26.7853 7.01897 27.1352 6.87402 27.5001 6.87402C27.865 6.87402 28.2149 7.01897 28.4729 7.27698C28.7309 7.53498 28.8759 7.88491 28.8759 8.24979C28.8759 8.61466 28.7309 8.96459 28.4729 9.2226L15.694 21.9998L28.4729 34.777Z" fill="black"/>
</svg>
