<svg width="40" height="40" viewBox="0 0 40 40" fill="none" xmlns="http://www.w3.org/2000/svg">
<path d="M20 0.5C16.1433 0.5 12.3731 1.64366 9.16639 3.78634C5.95963 5.92903 3.46027 8.97451 1.98436 12.5377C0.508449 16.1008 0.122284 20.0216 0.874696 23.8043C1.62711 27.5869 3.4843 31.0615 6.21143 33.7886C8.93855 36.5157 12.4131 38.3729 16.1957 39.1253C19.9784 39.8777 23.8992 39.4916 27.4623 38.0156C31.0255 36.5397 34.071 34.0404 36.2137 30.8336C38.3564 27.6269 39.5 23.8567 39.5 20C39.4945 14.83 37.4383 9.87322 33.7826 6.21745C30.1268 2.56167 25.1701 0.50546 20 0.5ZM21.5 36.4306V24.5H26C26.3978 24.5 26.7794 24.342 27.0607 24.0607C27.342 23.7794 27.5 23.3978 27.5 23C27.5 22.6022 27.342 22.2206 27.0607 21.9393C26.7794 21.658 26.3978 21.5 26 21.5H21.5V17C21.5 16.2044 21.8161 15.4413 22.3787 14.8787C22.9413 14.3161 23.7044 14 24.5 14H27.5C27.8978 14 28.2794 13.842 28.5607 13.5607C28.842 13.2794 29 12.8978 29 12.5C29 12.1022 28.842 11.7206 28.5607 11.4393C28.2794 11.158 27.8978 11 27.5 11H24.5C22.9087 11 21.3826 11.6321 20.2574 12.7574C19.1322 13.8826 18.5 15.4087 18.5 17V21.5H14C13.6022 21.5 13.2207 21.658 12.9393 21.9393C12.658 22.2206 12.5 22.6022 12.5 23C12.5 23.3978 12.658 23.7794 12.9393 24.0607C13.2207 24.342 13.6022 24.5 14 24.5H18.5V36.4306C14.2715 36.0446 10.3546 34.0433 7.56395 30.8431C4.77334 27.6428 3.32389 23.4899 3.5171 19.2482C3.7103 15.0065 5.53129 11.0025 8.60128 8.0692C11.6713 5.13586 15.7539 3.49895 20 3.49895C24.2461 3.49895 28.3288 5.13586 31.3987 8.0692C34.4687 11.0025 36.2897 15.0065 36.4829 19.2482C36.6761 23.4899 35.2267 27.6428 32.4361 30.8431C29.6455 34.0433 25.7285 36.0446 21.5 36.4306Z" fill="black"/>
</svg>
