<svg width="853" height="158" viewBox="0 0 853 158" fill="none" xmlns="http://www.w3.org/2000/svg">
<path d="M176.113 3.24054C175.124 5.40594 174.044 9.5563 173.775 12.5337L173.145 17.7668L169.637 17.3157C167.119 16.9548 165.68 17.2255 164.69 18.2179C163.341 19.5713 163.431 20.4736 164.96 27.1503C165.32 28.8645 164.601 29.3157 159.114 31.0299C151.199 33.3758 150.21 34.5487 152.279 38.5186C154.797 43.481 157.945 47.09 160.733 48.263L163.341 49.3457L160.913 53.1351C155.876 60.5336 155.247 65.3156 158.664 69.1953C161.453 72.2629 166.04 71.2705 171.976 66.3983C176.922 62.3381 183.488 59.1803 181.959 61.6163C181.689 62.1577 182.319 63.6915 183.488 65.0449C185.287 67.1201 185.827 67.3005 187.535 66.3983C188.615 65.8569 190.504 63.4208 191.763 60.9848C194.281 55.9321 195.09 55.481 202.016 55.481C204.804 55.481 207.592 55.0299 208.132 54.4885C208.851 53.7667 210.65 54.3081 214.878 56.6539C222.972 61.1652 249.145 70.1877 263.715 73.5261C268.212 74.6088 274.239 76.1426 277.207 77.0449C280.175 77.9471 288.809 79.481 296.364 80.3832C303.919 81.2855 309.585 82.2779 308.956 82.6388C307.517 83.3606 292.497 84.9847 277.207 86.1576C266.414 86.8794 259.938 87.1501 227.739 88.4133C221.353 88.6839 209.571 89.3155 201.746 89.9471C184.837 91.12 152.638 90.3982 136.539 88.5035C125.386 87.1501 125.296 87.1501 119 82.7291C111.176 77.3156 105.689 74.7892 96.6951 72.6238C92.5578 71.6314 89.0501 70.1877 87.8809 69.0148C86.8016 67.9321 85.6324 67.3908 85.3626 67.7517C85.0028 68.0223 85.2726 68.5637 85.9022 68.7441C86.4418 69.0148 86.9815 69.5562 86.9815 70.0975C86.9815 70.6389 85.6324 70.7291 83.4738 70.3682C79.5164 69.7366 75.9188 66.7592 62.3377 53.1351C51.8146 42.4886 45.7885 37.7968 44.3495 39.2404C43.0903 40.5036 43.3601 48.8946 44.8891 53.1351C45.6087 55.1201 47.1376 57.2855 48.2169 58.0975C50.1956 59.3607 50.1956 59.3607 48.0371 56.1126C46.7779 54.2179 45.3388 50.8795 44.8891 48.7141C43.9897 44.654 44.3495 40.1427 45.6087 40.1427C48.3968 40.1427 63.2371 54.669 62.2477 56.4735C61.798 57.1051 61.888 57.3757 62.4276 57.0148C62.9673 56.6539 64.1365 57.2855 65.0359 58.278C66.0252 59.3607 68.4537 61.4359 70.6122 62.8795C74.8395 65.8569 75.2892 66.7592 72.501 67.481C70.972 67.9321 70.7022 68.4735 71.1519 70.278C71.4217 71.5411 71.4217 72.6238 71.0619 72.6238C69.8028 72.6238 47.9471 59.9021 44.6193 57.1953C42.8205 55.7517 40.572 54.5788 39.6726 54.5788C36.7944 54.5788 32.2075 51.1502 20.785 40.5036C6.66422 27.3307 3.69617 25.9773 0.997941 31.6615C-0.171291 34.0976 -0.261232 35.2705 0.458296 36.9848C1.62753 39.6013 15.2986 48.7141 23.3932 52.3231C26.7211 53.857 29.4193 55.2103 29.4193 55.481C29.4193 55.7517 27.9802 56.8344 26.2713 58.0073C22.4039 60.4434 21.7743 63.9622 25.3719 63.0599C28.0702 62.4284 35.895 64.9547 37.9637 67.2103C39.1329 68.5637 39.2228 69.2855 38.4134 70.7291C37.6039 72.2629 37.6938 72.7141 38.8631 73.1652C39.5826 73.4359 40.8418 73.4359 41.6513 73.1652C42.3708 72.8945 47.1376 73.6163 52.1743 74.7892C57.211 76.0524 64.7661 77.5862 68.9933 78.3983C73.2205 79.2103 85.1827 81.6464 95.5259 83.8118C116.212 88.2328 135.46 90.9396 157.495 92.5636C168.828 93.4659 176.473 93.4659 193.472 92.5636C205.434 91.9321 215.867 91.3005 216.766 91.0298C217.576 90.7591 218.295 90.9396 218.295 91.3907C218.295 91.8418 216.856 92.5636 215.147 92.8343C209.391 93.917 179.261 103.391 169.907 107.09L160.643 110.699L156.596 108.804C154.347 107.721 150.39 105.105 147.692 102.94C141.576 97.8869 128.174 91.12 121.699 89.7666C119 89.2253 115.043 88.8644 112.884 89.0448C109.737 89.2253 108.927 89.6764 108.747 91.3005C108.028 96.4433 114.593 109.436 117.741 108.894C118.551 108.804 119.45 108.985 119.72 109.436C119.99 109.887 119.09 110.248 117.651 110.338C114.593 110.428 108.837 112.684 106.589 114.759C105.689 115.571 104.7 117.646 104.43 119.451C104.07 121.255 103.081 124.233 102.092 126.127C100.563 129.195 100.563 129.646 101.822 132.173C102.631 133.706 104.88 135.962 106.948 137.406C110.006 139.391 111.715 139.842 116.122 139.842H121.609L121.339 144.353C121.069 147.962 121.429 149.406 123.048 151.481C125.746 154.909 132.851 157.977 132.851 155.631C132.851 155.09 132.042 154.729 131.053 154.729C125.206 154.729 121.429 149.406 122.418 142.639C123.048 138.759 123.318 138.398 128.894 135.421C134.29 132.624 134.65 132.533 134.021 134.248C131.952 139.842 134.2 155.902 137.258 157.797C138.248 158.428 146.522 153.376 150.03 150.127C152.099 148.142 152.638 146.789 153.178 141.376C153.718 135.782 153.987 134.879 155.516 134.879C157.585 134.879 157.765 134.248 158.395 126.308C158.934 118.368 159.744 114.398 161.093 113.315C163.251 111.601 204.804 97.6163 205.614 98.3381C206.243 98.9696 202.106 104.744 198.598 108.263L194.911 111.782L190.863 110.699C184.837 109.075 182.948 109.436 188.165 111.24C190.773 112.143 192.752 113.406 192.932 114.218C193.292 116.203 189.244 120.894 185.917 122.248C184.388 122.879 183.398 123.601 183.578 123.872C183.848 124.052 185.917 123.15 188.165 121.797C191.043 120.173 192.842 118.278 193.741 116.112C194.461 114.218 196.62 111.421 198.508 109.887C200.397 108.263 203.185 104.925 204.714 102.488C206.873 99.0599 208.582 97.6163 211.37 96.6238C226.66 91.0298 229.358 90.6689 266.414 88.8644C277.297 88.4133 295.914 86.7892 307.787 85.2554C324.516 83.1802 335.848 82.2779 358.153 81.5561C373.983 81.105 390.622 80.8343 395.029 81.105C399.526 81.2855 404.923 81.5561 407.171 81.6464C411.129 81.7366 411.039 81.8268 403.574 83.9922C396.198 86.1576 385.585 91.2103 385.585 92.4734C385.585 94.1877 387.114 94.0072 391.791 91.6614C403.214 85.887 420.572 81.917 430.556 82.9095C439.37 83.7215 450.793 86.7892 459.067 90.6689C463.474 92.7441 466.712 93.8268 467.072 93.2854C467.342 92.7441 467.432 92.293 467.342 92.1125C462.665 88.6839 450.433 83.6313 443.597 82.3682C442.608 82.1877 448.454 81.7366 456.639 81.3757C482.452 80.293 520.407 81.917 545.68 85.2554C564.118 87.6915 576.35 88.6839 600.994 89.7666C623.299 90.6689 628.066 91.4809 640.388 96.0824C644.525 97.6163 645.875 98.699 648.213 102.398C649.742 104.834 652.53 108.173 654.329 109.706C656.218 111.331 658.466 114.308 659.456 116.293C661.075 119.631 666.741 124.052 669.349 123.962C669.889 123.962 668.81 123.15 666.921 122.248C663.233 120.263 659.905 116.473 659.905 114.127C659.905 113.045 661.165 112.233 663.953 111.421C669.529 109.887 668.36 109.165 662.694 110.609L658.107 111.782L654.869 108.624C651.721 105.646 646.864 98.8794 647.494 98.3381C648.303 97.7065 689.766 111.601 691.924 113.315C693.184 114.308 694.982 123.06 694.982 128.203C694.982 133.075 695.702 134.879 697.681 134.879C698.94 134.879 699.299 135.962 699.749 140.744C700.379 147.33 702.088 150.579 706.135 152.563C708.833 153.917 708.833 153.917 705.595 151.21C703.167 149.135 702.088 147.33 701.728 144.985C701.458 143.18 700.739 139.12 700.199 136.052C699.479 131.361 699.479 129.736 700.739 126.759C701.548 124.774 702.178 122.248 702.178 121.255C702.178 120.173 704.246 117.015 706.675 114.127C710.452 109.797 711.981 108.624 715.669 107.721C718.097 107.09 719.896 106.278 719.626 105.917C719.446 105.556 720.256 104.383 721.605 103.391C725.832 100.052 731.139 95.0899 730.779 94.729C730.599 94.5486 727.721 96.714 724.393 99.6012C716.748 106.278 710.272 109.526 704.426 109.797L699.929 109.887L703.797 110.248C705.865 110.428 707.574 110.97 707.574 111.331C707.574 112.684 698.58 120.624 697.411 120.263C695.792 119.721 693.094 113.676 693.723 112.052C693.993 111.24 695.522 110.158 697.141 109.616C698.76 109.075 701.728 107.361 703.617 105.737C715.489 95.6313 731.318 88.8644 740.403 89.9471C742.921 90.2178 743.101 90.4884 742.921 93.7366C742.741 95.7215 741.842 99.0599 740.762 101.135C738.963 104.925 738.874 105.015 734.736 104.744C732.398 104.564 731.858 104.654 733.477 104.834C737.704 105.376 736.625 107.18 731.318 108.353C728.26 108.985 726.012 110.248 723.763 112.413C719.176 117.105 714.949 119.721 710.362 120.985C708.114 121.616 706.944 122.158 707.754 122.158C710.812 122.338 715.579 127.661 717.018 132.443C719.266 139.932 718.547 152.022 715.759 156.533C714.949 157.616 714.679 157.616 713.24 156.443C712.341 155.631 710.992 154.729 710.272 154.278C709.553 153.917 710.182 154.639 711.621 155.992C713.15 157.255 714.769 158.157 715.219 157.977C715.759 157.887 716.928 156.173 717.917 154.188C719.716 150.398 720.436 138.218 718.997 134.248C718.277 132.263 718.547 132.353 723.943 135.24C729.25 138.127 729.7 138.579 730.419 142.368C731.768 149.315 729.52 152.654 721.605 155.18C720.705 155.451 720.166 155.902 720.436 156.173C721.515 157.255 727.361 154.458 729.61 151.842C731.678 149.406 731.948 148.323 731.678 144.353L731.408 139.661L735.096 140.112C739.683 140.564 744.54 139.12 748.137 136.052C753.174 131.812 753.084 130.458 747.508 117.015C746.069 113.767 740.223 110.428 735.456 110.338C732.578 110.248 732.668 108.714 735.546 108.714C738.874 108.714 744.99 96.6238 744.27 91.5712C744.09 89.6764 743.461 89.3155 740.313 89.0448C731.588 88.4133 716.208 94.4584 706.225 102.398C703.797 104.383 699.569 107 697.051 108.353L692.284 110.699L684.459 107.541C674.656 103.571 663.143 99.9621 634.812 91.8418C631.574 90.9396 635.621 91.0298 651.361 92.1125C660.805 92.7441 672.677 93.2854 677.894 93.2854C694.623 93.3757 726.732 89.9471 746.698 86.0674C765.136 82.4584 794.637 76.3231 802.192 74.5186C806.509 73.5261 810.646 72.8945 811.456 73.1652C812.175 73.4359 813.435 73.4359 814.154 73.1652C815.323 72.7141 815.413 72.2629 814.514 70.6389C813.614 68.9246 813.794 68.3832 815.953 66.669C819.101 64.2329 825.487 62.3381 828.005 63.1502C831.333 64.1426 830.343 60.3532 826.746 58.0073C825.037 56.8344 823.598 55.7517 823.598 55.481C823.598 55.2103 826.296 53.857 829.444 52.4133C837.809 48.7141 851.3 39.6916 852.469 37.075C853.278 35.2705 853.188 34.1878 852.019 31.6615C849.321 25.9773 846.353 27.3307 832.232 40.5036C820.9 51.1502 816.223 54.5788 813.435 54.5788C812.535 54.5788 810.287 55.7517 808.488 57.1953C805.34 59.7216 783.304 72.6238 782.135 72.6238C781.865 72.6238 781.775 71.5411 782.045 70.278C782.315 68.4735 782.045 67.9321 780.516 67.481C777.728 66.7592 778.178 65.8569 782.405 62.8795C784.564 61.4359 786.992 59.3607 787.981 58.278C788.881 57.2855 790.05 56.6539 790.59 57.0148C791.129 57.2855 791.219 57.1051 790.859 56.5637C789.78 54.7592 804.62 40.1427 807.498 40.1427C807.858 40.1427 808.398 41.045 808.578 42.1277C808.938 43.9322 808.938 43.9322 809.117 41.7668C809.117 40.4134 808.848 39.1502 808.398 38.8795C806.959 37.9773 797.785 45.3758 792.119 52.0524C788.971 55.6615 784.114 60.3532 781.236 62.4284C778.448 64.5035 775.569 66.9396 774.85 67.9321C773.591 69.8268 766.036 71.6314 766.036 70.0975C766.036 69.5562 766.575 69.0148 767.115 68.7441C767.745 68.5637 768.014 68.1126 767.745 67.7517C767.385 67.3908 766.305 67.9321 765.316 69.0148C764.237 70.1877 760.819 71.5411 756.232 72.6238C747.868 74.699 739.593 78.4885 733.747 83.09C728.62 87.0599 726.552 87.511 706.765 89.3155C689.136 90.9396 669.079 90.8493 632.024 88.9546C621.411 88.4133 603.962 87.6012 593.349 87.0599C572.213 86.0674 544.781 83.5411 543.612 82.5486C543.252 82.1877 547.839 81.3757 553.865 80.7441C565.647 79.5712 568.975 78.8494 586.154 74.5186C606.391 69.2855 631.034 60.8043 639.129 56.293C642.547 54.3081 644.256 53.857 644.885 54.4885C645.425 55.0299 648.213 55.481 651.001 55.481C657.927 55.481 658.736 55.9321 661.254 60.9848C664.762 67.8419 668.54 68.8344 670.698 63.5111C672.137 60.0825 673.846 60.5336 681.042 66.3983C687.607 71.8118 691.834 72.3532 694.982 68.293C697.681 64.9547 696.961 60.3532 692.824 54.1276L689.676 49.3457L692.374 48.263C695.252 46.9998 698.22 43.5713 700.739 38.5186C702.807 34.5487 701.818 33.3758 693.903 31.0299L687.697 29.1352L688.237 26.248C688.596 24.7142 689.046 22.639 689.316 21.5563C689.946 18.4886 687.517 16.7743 683.11 17.3157C680.952 17.5864 678.793 18.3984 678.163 19.1202C677.264 20.2931 676.544 19.842 673.037 16.6841C669.079 12.9849 668.989 12.8044 670.159 10.0074C670.788 8.4736 672.227 5.76685 673.217 4.05257L675.105 0.984894L676.544 4.32324C677.264 6.12775 677.894 9.10518 677.894 10.9999C677.894 12.8947 678.343 15.0601 678.793 15.7819C679.872 17.4059 679.153 8.8345 677.804 4.32324C676.095 -1.00006 674.746 -1.00006 671.688 4.50369C670.159 7.21045 668.899 10.0074 668.899 10.8195C668.899 11.9022 668.54 11.9924 666.561 11.0901C662.783 9.37585 660.445 12.8947 658.556 23.1803C656.757 33.2856 655.498 36.0826 650.911 40.5938C648.933 42.5788 647.314 44.4735 647.314 45.0149C647.314 45.466 649.292 43.7517 651.811 41.045C656.308 36.1728 658.376 31.6615 659.456 23.9021C660.265 17.9473 661.524 14.4285 663.413 12.7142C665.032 11.2706 665.392 11.451 671.238 16.5037C679.692 23.8119 685.089 29.857 685.089 31.9322C685.089 35.451 679.692 40.0525 669.979 44.8344C663.413 48.1728 660.445 49.2555 660.175 48.4434C658.286 43.0299 648.843 43.6615 645.065 49.5261C643.716 51.6013 641.198 53.2254 635.621 55.5712C625.908 59.7216 602.163 68.2028 601.624 67.7517C600.904 67.0299 606.301 60.6239 609.718 58.0975C612.506 56.1126 613.766 55.7517 617.093 56.1126C619.522 56.3833 621.231 56.2028 621.68 55.5712C622.13 54.8494 621.591 54.669 620.062 55.1201C618.802 55.3908 617.093 55.3006 616.374 54.8494C615.115 54.1276 615.115 53.857 616.374 52.0524C617.093 50.9697 619.072 49.4359 620.601 48.8043C623.209 47.6314 623.299 47.5412 621.411 47.451C619.972 47.3607 617.813 48.8043 615.025 51.6013C612.686 54.0374 609.448 57.1953 607.74 58.6389C606.031 60.1727 603.153 63.0599 601.444 65.1351C598.296 68.9246 598.116 69.0148 583.905 72.6238C575.99 74.699 562.679 77.3156 554.225 78.5787C539.205 80.8343 527.422 81.105 510.154 79.3907C503.318 78.6689 423.451 78.308 376.142 78.6689C364.809 78.7592 346.371 79.3005 335.219 79.9321C315.342 80.9246 314.712 80.9246 298.702 78.5787C289.708 77.2253 279.635 75.3306 276.217 74.3381C272.799 73.3456 266.594 71.7216 262.366 70.8193C255.261 69.2855 254.541 68.8344 251.573 65.2253C249.865 63.0599 247.076 60.0825 245.367 58.6389C243.659 57.1051 240.331 54.0374 237.992 51.6013C235.204 48.8946 233.046 47.3607 231.607 47.451C229.538 47.5412 229.628 47.5412 231.966 48.5337C235.024 49.9773 238.082 52.7742 238.082 54.2179C238.082 54.9397 236.913 55.3006 234.485 55.1201C232.326 54.9397 231.157 55.2103 231.517 55.7517C231.786 56.2028 233.765 56.3833 235.924 56.1126C239.252 55.7517 240.511 56.1126 243.299 58.0975C246.447 60.4434 252.113 67.0299 251.483 67.6614C250.944 68.1126 232.146 61.5261 220.993 57.1051C214.158 54.3983 210.56 52.3231 207.772 49.7066C205.793 47.6314 203.545 45.5562 202.825 45.1051C200.307 43.2104 194.461 44.654 193.562 47.451C193.202 48.3532 192.662 49.1652 192.212 49.1652C191.763 49.1652 189.154 49.9773 186.366 51.06C182.679 52.4133 179.351 54.8494 173.775 60.1727C169.547 64.1426 166.309 67.6614 166.579 67.9321C166.759 68.2028 170.537 64.9547 174.854 60.8043C180.97 54.9397 183.848 52.8645 187.266 51.6915C191.223 50.4284 191.763 50.4284 192.033 51.6013C192.482 53.5863 189.334 57.466 186.726 58.278C185.557 58.6389 182.859 59.3607 180.88 59.9021C178.811 60.4434 174.854 62.7893 172.066 65.0449C169.367 67.3005 166.669 68.9246 166.219 68.5637C165.68 68.293 164.511 68.4735 163.521 69.0148C159.654 71.09 156.506 66.3081 158.125 60.6239C159.114 57.0148 163.881 50.0675 165.5 49.9773C168.288 49.7968 175.753 50.2479 177.282 50.6991C178.361 50.9697 178.721 50.7893 178.361 50.1577C178.002 49.6164 175.933 49.1652 173.864 49.1652C167.479 49.1652 160.553 47.451 158.305 45.3758C154.977 42.2179 151.739 35.9021 152.908 34.8194C154.617 33.466 165.23 30.1277 166.219 30.669C166.669 31.0299 167.029 32.1126 167.029 33.1051C167.029 36.7141 179.171 45.7367 186.816 47.7216C188.075 48.0825 185.647 46.5487 181.509 44.2931C173.145 39.872 169.277 36.4435 168.378 32.9247C167.928 31.1202 168.558 29.7668 171.076 26.7894C176.293 20.654 187.535 11.2706 188.975 11.8119C190.683 12.4435 192.752 17.7668 193.472 23.451C194.641 31.5713 196.62 36.0826 201.206 41.045C203.725 43.7517 205.704 45.466 205.704 45.0149C205.704 44.4735 204.264 42.669 202.466 40.9547C197.969 36.6239 196.17 32.654 194.551 23.451C193.112 15.5112 191.493 11.6315 188.975 10.639C188.165 10.3683 187.176 10.5488 186.546 11.1804C185.197 12.5337 184.118 12.4435 184.118 10.9999C184.118 9.82698 179.98 1.43602 178.631 0.0826416C178.272 -0.368484 177.102 1.07512 176.113 3.24054ZM182.859 9.91721C184.028 12.624 184.028 12.624 175.393 20.9247C170.627 25.5262 166.579 29.3157 166.489 29.3157C165.95 29.3157 164.421 20.0224 164.87 19.3006C165.5 18.1277 172.785 18.3082 173.954 19.4811C174.584 20.1127 174.944 18.4886 175.034 13.8871C175.124 10.3683 175.843 5.9473 176.563 4.23302L177.912 0.984894L179.801 4.05257C180.79 5.76685 182.229 8.38338 182.859 9.91721ZM7.20387 30.5788C11.4311 32.3833 24.3826 44.654 23.2134 45.8269C22.5838 46.4585 22.9435 47.451 24.1128 49.075C25.1021 50.3382 25.5518 51.5111 25.1021 51.6915C22.8536 52.4133 3.33641 39.872 1.53759 36.6239C0.638178 34.9096 2.16717 29.3157 3.60623 29.3157C3.96599 29.3157 5.58493 29.857 7.20387 30.5788ZM851.39 32.5638C852.469 35.5412 852.379 35.9923 850.49 37.9773C846.623 42.0374 828.725 52.7742 827.645 51.6915C827.375 51.4209 828.005 50.2479 828.904 48.9848C830.164 47.451 830.433 46.4585 829.804 45.8269C828.904 44.9246 831.693 41.857 840.777 34.0074C843.835 31.3006 847.162 29.4961 849.231 29.4059C849.771 29.3157 850.76 30.7593 851.39 32.5638ZM692.374 31.6615C695.072 32.4735 698.13 33.6465 699.21 34.3683L701.188 35.6314L699.03 39.5111C697.771 41.6765 695.882 44.2931 694.713 45.3758C692.554 47.451 685.628 49.1652 679.333 49.1652C677.354 49.1652 675.105 49.5261 674.476 49.887C673.846 50.3382 676.724 50.4284 680.862 50.2479C688.327 49.887 688.327 49.887 690.665 52.5938C691.924 54.1276 693.723 57.2855 694.533 59.4509C695.882 62.8795 695.972 64.0524 694.982 66.2178C693.723 69.3757 691.924 70.278 689.496 69.0148C688.507 68.4735 687.337 68.293 686.798 68.5637C686.348 68.9246 683.65 67.3005 680.952 65.0449C678.163 62.7893 674.206 60.4434 672.137 59.9021C670.159 59.3607 667.46 58.6389 666.291 58.278C663.683 57.466 660.535 53.5863 660.985 51.6013C661.254 50.4284 661.794 50.4284 665.752 51.6915C669.169 52.8645 672.047 54.9397 678.163 60.8043C682.481 64.9547 686.258 68.2028 686.438 67.9321C686.708 67.6614 683.47 64.1426 679.243 60.1727C673.846 55.0299 670.249 52.4133 666.921 51.1502C661.614 49.1652 661.434 49.4359 669.889 46.4585C677.354 43.7517 684.729 37.1653 686.348 31.7517C686.888 29.857 686.438 29.9472 692.374 31.6615ZM204.984 48.263C209.121 52.5036 208.132 54.1276 201.386 54.2179C196.799 54.3081 195.36 54.669 193.562 56.3833C192.302 57.5562 191.043 59.3607 190.773 60.3532C190.054 62.8795 187.715 65.4058 186.276 65.4058C185.557 65.4058 186.006 64.5035 187.266 63.1502C188.525 61.9772 189.514 60.5336 189.514 59.9923C189.514 59.3607 190.324 57.9171 191.313 56.6539C192.302 55.3908 193.292 52.9547 193.651 51.06C194.461 46.6389 195.54 45.5562 199.138 45.5562C201.386 45.5562 203.005 46.278 204.984 48.263ZM657.927 46.6389C658.466 47.2705 659.096 49.3457 659.456 51.2404C659.815 53.0449 660.895 55.5712 661.794 56.7442C662.783 57.9171 663.503 59.3607 663.503 59.9923C663.503 60.5336 664.492 61.9772 665.752 63.1502C667.011 64.5035 667.46 65.4058 666.741 65.4058C665.302 65.4058 662.963 62.8795 662.244 60.3532C661.974 59.3607 660.715 57.5562 659.456 56.3833C657.657 54.669 656.218 54.3081 651.631 54.2179C644.885 54.1276 643.896 52.5036 648.033 48.263C651.001 45.3758 656.128 44.5637 657.927 46.6389ZM44.9791 61.2554C51.5448 63.9622 59.4596 67.5712 62.6974 69.3757L68.5436 72.6238H64.7661C62.6075 72.6238 59.2797 71.9923 57.301 71.1802C55.1424 70.278 52.5341 69.9171 50.9152 70.278C49.4761 70.5486 48.3968 70.4584 48.6666 70.0073C49.2063 69.105 46.3282 68.1126 43.1802 68.1126C42.101 68.1126 39.2228 66.8494 36.7045 65.3156C34.0063 63.6013 30.4986 62.2479 27.9802 61.9772L23.6631 61.5261L26.7211 58.9096C28.4299 57.5562 30.5885 56.3833 31.4879 56.3833C32.3873 56.3833 38.5033 58.5487 44.9791 61.2554ZM826.386 58.8194L829.354 61.3457L824.947 61.9772C822.609 62.3381 818.651 63.872 816.223 65.3156C813.794 66.8494 810.916 68.1126 809.837 68.1126C806.689 68.1126 803.811 69.1953 804.351 70.0975C804.62 70.5486 803.901 70.6389 802.552 70.278C801.293 70.0073 798.324 70.3682 795.806 71.2705C793.288 72.0825 790.05 72.6238 788.431 72.4434C785.643 72.1727 785.733 72.1727 790.949 69.105C797.425 65.4058 818.831 56.4735 821.529 56.3833C822.609 56.3833 824.767 57.466 826.386 58.8194ZM83.3839 71.7216C84.5531 72.4434 84.4631 72.6238 83.204 72.6238C82.3046 72.6238 81.585 73.075 81.585 73.5261C81.585 74.0674 82.7543 73.887 84.2833 73.075C86.6217 71.902 87.791 71.8118 92.6478 72.7141C98.1342 73.7968 101.462 75.3306 98.314 75.3306C97.5046 75.3306 96.9649 75.6915 97.3247 76.2328C97.6845 76.7742 98.6738 76.684 100.023 76.0524C101.732 75.2404 103.081 75.4208 106.229 76.5937C111.355 78.5787 121.969 85.4358 120.529 85.887C119.99 86.0674 112.345 84.8043 103.441 82.9997C94.6265 81.1952 85.6324 79.5712 83.3839 79.3907C81.1353 79.2103 75.9188 77.8569 71.6915 76.4133C64.946 73.9772 64.4063 73.6163 67.3744 73.6163C69.1732 73.5261 73.3105 74.699 76.7282 76.2328C80.056 77.7667 82.8442 78.8494 83.0241 78.6689C83.204 78.4885 81.3152 77.4058 78.7969 76.2328L74.2998 74.0674L76.3685 72.4434C78.7069 70.6389 81.3152 70.3682 83.3839 71.7216ZM776.739 72.2629L779.617 73.7065L774.4 76.2328C767.385 79.6614 769.004 79.6614 776.559 76.2328C779.887 74.699 783.934 73.5261 785.733 73.6163C788.431 73.6163 787.442 74.1577 779.977 76.7742C775.03 78.4885 770.533 79.6614 769.903 79.481C769.274 79.2103 760.999 80.6539 751.465 82.5486C741.932 84.5336 733.477 86.1576 732.758 86.1576C730.419 86.1576 736.355 81.8268 743.461 78.308C749.217 75.511 750.476 75.1501 752.724 76.0524C754.163 76.5937 755.423 76.5937 755.782 76.1426C756.052 75.6915 755.513 75.3306 754.703 75.3306C751.555 75.3306 754.883 73.7968 760.369 72.7141C765.226 71.8118 766.395 71.902 768.734 73.075C770.263 73.887 771.432 74.0674 771.432 73.5261C771.432 73.075 770.713 72.6238 769.903 72.6238C768.554 72.6238 768.464 72.4434 769.633 71.7216C771.522 70.4584 773.411 70.6389 776.739 72.2629ZM127.005 92.3832C133.301 94.6388 142.655 100.052 148.591 105.015C151.019 107.09 154.347 109.165 155.876 109.616C157.495 110.158 159.024 111.24 159.294 112.052C159.924 113.676 157.225 119.721 155.606 120.263C154.437 120.624 145.443 112.594 145.443 111.15C145.443 110.699 147.422 110.428 150.39 110.699C153.088 110.97 155.067 110.879 154.797 110.609C154.527 110.338 151.559 109.887 148.141 109.616L142.025 109.165L146.432 114.218C148.861 117.015 150.84 120.173 150.84 121.255C150.84 122.248 151.469 124.774 152.279 126.759C153.538 129.827 153.628 131.27 152.728 135.511C152.189 138.308 151.739 141.827 151.739 143.361C151.739 147.24 149.85 149.586 143.554 153.827L138.248 157.345L136.629 155C134.74 152.022 134.021 138.849 135.46 133.255C136.719 128.744 140.316 124.233 144.094 122.609C146.432 121.526 146.522 121.436 144.724 121.346C141.306 121.346 134.74 117.646 130.153 113.315C127.005 110.338 124.667 108.985 121.519 108.263C116.392 107.18 115.313 105.376 119.54 104.834C121.159 104.654 120.619 104.564 118.281 104.744C114.144 105.015 114.054 104.925 112.255 101.225C109.916 96.3531 109.107 92.8343 109.826 91.0298C110.276 89.7666 111.355 89.5862 116.122 90.0373C119.27 90.308 124.217 91.3907 127.005 92.3832ZM130.513 114.849C132.582 116.834 135.1 118.909 136.179 119.451C137.438 120.082 137.978 120.985 137.618 121.887C137.348 122.699 137.618 123.691 138.248 124.052C142.025 126.398 123.048 139.391 115.942 139.391C111.985 139.391 106.319 136.323 103.8 132.894L102.002 130.458L104.07 123.872C106.768 115.391 108.387 113.586 115.223 111.962C122.958 110.067 126.196 110.699 130.513 114.849ZM740.133 112.503C744.27 113.767 746.608 116.203 747.868 120.894C748.317 122.879 749.307 125.857 749.936 127.391C751.016 130.007 750.926 130.639 749.307 132.804C746.698 136.323 741.032 139.391 737.075 139.391C733.297 139.391 720.705 133.165 718.097 130.097C717.198 129.015 715.849 127.3 715.039 126.398C714.05 125.135 713.87 124.503 714.589 124.233C715.219 124.052 715.669 122.879 715.669 121.706C715.669 120.533 716.118 119.541 716.568 119.541C717.108 119.541 719.446 117.737 721.785 115.571C724.123 113.406 726.821 111.421 727.811 111.15C729.969 110.609 735.546 111.24 740.133 112.503Z" fill="#766969"/>
</svg>
